SplineFontDB: 3.0
FontName: MyriadPro-BoldCond
FullName: Myriad Pro Bold Condensed
FamilyName: Myriad Pro
Weight: Bold
Copyright: (c) 2000, 2004 Adobe Systems Incorporated. All Rights Reserved. U.S. Patent D454,582.
Version: 2.007;PS 002.000;Core 1.0.38;makeotf.lib1.7.9032
ItalicAngle: 0
UnderlinePosition: -50
UnderlineWidth: 50
Ascent: 750
Descent: 250
sfntRevision: 0x000201ca
LayerCount: 2
Layer: 0 1 "Back"  1
Layer: 1 1 "Fore"  0
XUID: [1021 588 1133928653 5358673]
BaseHoriz: 2 'ideo' 'romn'
BaseScript: 'cyrl' 1  -163 0
BaseScript: 'grek' 1  -163 0
BaseScript: 'latn' 1  -163 0
FSType: 8
OS2Version: 2
OS2_WeightWidthSlopeOnly: 0
OS2_UseTypoMetrics: 1
CreationTime: 1116583136
ModificationTime: 1351172592
PfmFamily: 17
TTFWeight: 700
TTFWidth: 3
LineGap: 200
VLineGap: 0
Panose: 2 11 7 6 3 4 3 2 2 4
OS2TypoAscent: 0
OS2TypoAOffset: 1
OS2TypoDescent: 0
OS2TypoDOffset: 1
OS2TypoLinegap: 200
OS2WinAscent: 0
OS2WinAOffset: 1
OS2WinDescent: 0
OS2WinDOffset: 1
HheadAscent: -208
HheadAOffset: 1
HheadDescent: 0
HheadDOffset: 1
OS2SubXSize: 650
OS2SubYSize: 600
OS2SubXOff: 0
OS2SubYOff: 75
OS2SupXSize: 650
OS2SupYSize: 600
OS2SupXOff: 0
OS2SupYOff: 350
OS2StrikeYSize: 50
OS2StrikeYPos: 290
OS2Vendor: 'ADBE'
OS2CodePages: 0000019f.00000000
OS2UnicodeRanges: a00002af.5000204b.00000000.00000000
Lookup: 1 0 0 "'aalt' Access All Alternates lookup 0"  {"'aalt' Access All Alternates lookup 0 subtable"  } ['aalt' ('DFLT' <'dflt' > 'cyrl' <'SRB ' 'dflt' > 'grek' <'dflt' > 'latn' <'AZE ' 'CRT ' 'DEU ' 'MOL ' 'ROM ' 'TRK ' 'dflt' > ) ]
Lookup: 3 0 0 "'aalt' Access All Alternates lookup 1"  {"'aalt' Access All Alternates lookup 1 subtable"  } ['aalt' ('DFLT' <'dflt' > 'cyrl' <'SRB ' 'dflt' > 'grek' <'dflt' > 'latn' <'AZE ' 'CRT ' 'DEU ' 'MOL ' 'ROM ' 'TRK ' 'dflt' > ) ]

StartChar: .notdef
Encoding: 65536 -1 0
Width: 500
Flags: W
LayerCount: 2
Fore
SplineSet
0 0 m 1,0,-1
 0 700 l 1,1,-1
 500 700 l 1,2,-1
 500 0 l 1,3,-1
 0 0 l 1,0,-1
250 395 m 1,4,-1
 420 650 l 1,5,-1
 80 650 l 1,6,-1
 250 395 l 1,4,-1
280 350 m 1,7,-1
 450 95 l 1,8,-1
 450 605 l 1,9,-1
 280 350 l 1,7,-1
80 50 m 1,10,-1
 420 50 l 1,11,-1
 250 305 l 1,12,-1
 80 50 l 1,10,-1
50 605 m 1,13,-1
 50 95 l 1,14,-1
 220 350 l 1,15,-1
 50 605 l 1,13,-1
EndSplineSet
EndChar

StartChar: exclam
Encoding: 33 33 4
Width: 236
GlyphClass: 2
Flags: W
LayerCount: 2
Fore
SplineSet
174 219 m 1,0,-1
 62 219 l 1,1,-1
 47 674 l 1,2,-1
 190 674 l 1,3,-1
 174 219 l 1,0,-1
119 -8 m 2,4,-1
 118 -8 l 2,5,6
 86 -8 86 -8 64.5 15 c 128,-1,7
 43 38 43 38 43 72 c 0,8,9
 43 108 43 108 65 130.5 c 128,-1,10
 87 153 87 153 118 153 c 0,11,12
 151 153 151 153 172 130.5 c 128,-1,13
 193 108 193 108 193 72 c 0,14,15
 193 37 193 37 172.5 14.5 c 128,-1,16
 152 -8 152 -8 119 -8 c 2,4,-1
EndSplineSet
EndChar

StartChar: quotedbl
Encoding: 34 34 5
Width: 331
GlyphClass: 2
Flags: W
LayerCount: 2
Fore
SplineSet
33 684 m 1,0,-1
 138 684 l 1,1,-1
 118 424 l 1,2,-1
 53 424 l 1,3,-1
 33 684 l 1,0,-1
193 684 m 1,4,-1
 299 684 l 1,5,-1
 278 424 l 1,6,-1
 214 424 l 1,7,-1
 193 684 l 1,4,-1
EndSplineSet
EndChar

StartChar: numbersign
Encoding: 35 35 6
Width: 426
GlyphClass: 2
Flags: W
LayerCount: 2
Fore
SplineSet
171 270 m 1,0,-1
 242 270 l 1,1,-1
 256 385 l 1,2,-1
 185 385 l 1,3,-1
 171 270 l 1,0,-1
137 0 m 1,4,-1
 62 0 l 1,5,-1
 87 195 l 1,6,-1
 15 195 l 1,7,-1
 15 270 l 1,8,-1
 97 270 l 1,9,-1
 111 385 l 1,10,-1
 36 385 l 1,11,-1
 36 460 l 1,12,-1
 121 460 l 1,13,-1
 144 650 l 1,14,-1
 218 650 l 1,15,-1
 195 460 l 1,16,-1
 266 460 l 1,17,-1
 290 650 l 1,18,-1
 364 650 l 1,19,-1
 340 460 l 1,20,-1
 411 460 l 1,21,-1
 411 385 l 1,22,-1
 331 385 l 1,23,-1
 316 270 l 1,24,-1
 391 270 l 1,25,-1
 391 195 l 1,26,-1
 307 195 l 1,27,-1
 282 0 l 1,28,-1
 207 0 l 1,29,-1
 232 195 l 1,30,-1
 161 195 l 1,31,-1
 137 0 l 1,4,-1
EndSplineSet
Substitution2: "'onum' Oldstyle Figures lookup 5 subtable" uniF650
Substitution2: "'aalt' Access All Alternates lookup 0 subtable" uniF650
EndChar

StartChar: dollar
Encoding: 36 36 7
Width: 426
GlyphClass: 2
Flags: W
LayerCount: 2
Fore
SplineSet
247 -85 m 1,0,-1
 162 -85 l 1,1,-1
 162 17 l 1,2,3
 100 18 100 18 55 43 c 1,4,-1
 75 146 l 1,5,6
 123 118 123 118 179 118 c 0,7,8
 214 118 214 118 233.5 136.5 c 128,-1,9
 253 155 253 155 253 184 c 0,10,11
 253 238 253 238 176 286 c 0,12,13
 114 325 114 325 85 364.5 c 128,-1,14
 56 404 56 404 56 460 c 0,15,16
 56 517 56 517 88 560.5 c 128,-1,17
 120 604 120 604 176 623 c 1,18,-1
 176 725 l 1,19,-1
 261 725 l 1,20,-1
 261 633 l 1,21,22
 314 633 314 633 360 608 c 1,23,-1
 338 508 l 1,24,25
 294 533 294 533 251 533 c 0,26,27
 217 533 217 533 198 515.5 c 128,-1,28
 179 498 179 498 179 471 c 0,29,30
 179 445 179 445 195 426 c 128,-1,31
 211 407 211 407 261 376 c 1,32,33
 375 308 375 308 375 196 c 0,34,35
 375 130 375 130 340.5 85 c 128,-1,36
 306 40 306 40 247 26 c 1,37,-1
 247 -85 l 1,0,-1
EndSplineSet
Substitution2: "'frac' Diagonal Fractions lookup 19 subtable" uniF62F
Substitution2: "'dnom' Denominators lookup 13 subtable" uniF62A
Substitution2: "'numr' Numerators lookup 12 subtable" uniF62F
Substitution2: "'sinf' Scientific Inferiors lookup 11 subtable" uniF6E3
Substitution2: "'sups' Superscript lookup 10 subtable" uniF6E4
Substitution2: "'onum' Oldstyle Figures lookup 5 subtable" uniF653
AlternateSubs2: "'aalt' Access All Alternates lookup 1 subtable" uniF653 uniF6E4 uniF6E3 uniF62F uniF62A
EndChar

StartChar: percent
Encoding: 37 37 8
Width: 657
GlyphClass: 3
Flags: W
LayerCount: 2
Fore
SplineSet
150 658 m 2,0,-1
 151 658 l 2,1,2
 196 658 196 658 226 626.5 c 128,-1,3
 256 595 256 595 267 553 c 128,-1,4
 278 511 278 511 278 461 c 0,5,6
 278 364 278 364 240.5 312 c 128,-1,7
 203 260 203 260 149 260 c 0,8,9
 85 260 85 260 51.5 318 c 128,-1,10
 18 376 18 376 18 456 c 0,11,12
 18 540 18 540 53.5 599 c 128,-1,13
 89 658 89 658 150 658 c 2,0,-1
149 588 m 2,14,-1
 148 588 l 2,15,16
 106 588 106 588 106 460 c 1,17,18
 104 329 104 329 149 329 c 0,19,20
 190 329 190 329 190 458 c 0,21,22
 190 588 190 588 149 588 c 2,14,-1
187 -10 m 1,23,-1
 119 -10 l 1,24,-1
 469 659 l 1,25,-1
 537 659 l 1,26,-1
 187 -10 l 1,23,-1
511 392 m 2,27,-1
 512 392 l 2,28,29
 557 392 557 392 587 360.5 c 128,-1,30
 617 329 617 329 628 287 c 128,-1,31
 639 245 639 245 639 196 c 0,32,33
 639 98 639 98 601.5 46 c 128,-1,34
 564 -6 564 -6 510 -6 c 0,35,36
 446 -6 446 -6 412.5 52.5 c 128,-1,37
 379 111 379 111 379 191 c 0,38,39
 379 274 379 274 414.5 333 c 128,-1,40
 450 392 450 392 511 392 c 2,27,-1
510 323 m 2,41,-1
 509 323 l 2,42,43
 467 323 467 323 467 194 c 1,44,45
 465 64 465 64 510 64 c 0,46,47
 551 64 551 64 551 193 c 0,48,49
 551 323 551 323 510 323 c 2,41,-1
EndSplineSet
Ligature2: "Ligature Substitution lookup 22 subtable" uniF661 fraction uniF661
Substitution2: "'onum' Oldstyle Figures lookup 5 subtable" uniF642
Substitution2: "'aalt' Access All Alternates lookup 0 subtable" uniF642
EndChar

StartChar: ampersand
Encoding: 38 38 9
Width: 530
GlyphClass: 2
Flags: W
LayerCount: 2
Fore
SplineSet
526 0 m 1,0,-1
 383 0 l 1,1,2
 380 4 380 4 369.5 18.5 c 128,-1,3
 359 33 359 33 351 44 c 1,4,5
 292 -8 292 -8 205 -8 c 0,6,7
 120 -8 120 -8 69.5 46 c 128,-1,8
 19 100 19 100 19 181 c 0,9,10
 19 298 19 298 125 366 c 1,11,-1
 125 368 l 1,12,13
 75 437 75 437 75 514 c 0,14,15
 75 585 75 585 121 633.5 c 128,-1,16
 167 682 167 682 244 682 c 0,17,18
 309 682 309 682 350.5 640.5 c 128,-1,19
 392 599 392 599 392 531 c 0,20,21
 392 480 392 480 368 437.5 c 128,-1,22
 344 395 344 395 276 348 c 1,23,-1
 276 344 l 1,24,25
 346 238 346 238 375 201 c 1,26,27
 401 250 401 250 405 359 c 1,28,-1
 516 359 l 1,29,30
 501 205 501 205 431 121 c 1,31,32
 438 113 438 113 455 90.5 c 128,-1,33
 472 68 472 68 490.5 45 c 128,-1,34
 509 22 509 22 526 0 c 1,0,-1
229 89 m 2,35,-1
 230 89 l 2,36,37
 272 89 272 89 299 121 c 1,38,39
 264 164 264 164 177 290 c 1,40,41
 139 252 139 252 139 197 c 0,42,43
 139 152 139 152 164 120.5 c 128,-1,44
 189 89 189 89 229 89 c 2,35,-1
239 595 m 2,45,-1
 238 595 l 2,46,47
 216 595 216 595 203.5 573.5 c 128,-1,48
 191 552 191 552 191 519 c 0,49,50
 191 468 191 468 224 419 c 1,51,52
 282 465 282 465 282 525 c 0,53,54
 282 595 282 595 239 595 c 2,45,-1
EndSplineSet
EndChar

StartChar: quotesingle
Encoding: 39 39 10
Width: 170
GlyphClass: 2
Flags: W
LayerCount: 2
Fore
SplineSet
33 684 m 1,0,-1
 138 684 l 1,1,-1
 118 424 l 1,2,-1
 53 424 l 1,3,-1
 33 684 l 1,0,-1
EndSplineSet
EndChar

StartChar: parenleft
Encoding: 40 40 11
Width: 258
GlyphClass: 2
Flags: W
LayerCount: 2
Fore
SplineSet
147 692 m 1,0,-1
 241 692 l 1,1,2
 135 526 135 526 135 284 c 0,3,4
 135 52 135 52 241 -120 c 1,5,-1
 147 -120 l 1,6,7
 98 -55 98 -55 65 48.5 c 128,-1,8
 32 152 32 152 32 285 c 1,9,10
 35 421 35 421 67.5 524.5 c 128,-1,11
 100 628 100 628 147 692 c 1,0,-1
EndSplineSet
Substitution2: "'frac' Diagonal Fractions lookup 19 subtable" uniF631
Substitution2: "'dnom' Denominators lookup 13 subtable" uniF62C
Substitution2: "'numr' Numerators lookup 12 subtable" uniF631
Substitution2: "'sinf' Scientific Inferiors lookup 11 subtable" uni208D
Substitution2: "'sups' Superscript lookup 10 subtable" uni207D
Substitution2: "'case' Case-Sensitive Forms lookup 6 subtable" uniF6AE
AlternateSubs2: "'aalt' Access All Alternates lookup 1 subtable" uniF6AE uni207D uni208D uniF631 uniF62C
EndChar

StartChar: parenright
Encoding: 41 41 12
Width: 258
GlyphClass: 2
Flags: W
LayerCount: 2
Fore
SplineSet
111 -120 m 1,0,-1
 17 -120 l 1,1,2
 123 48 123 48 123 288 c 0,3,4
 123 524 123 524 17 692 c 1,5,-1
 111 692 l 1,6,7
 226 542 226 542 226 288 c 1,8,9
 221 33 221 33 111 -120 c 1,0,-1
EndSplineSet
Substitution2: "'frac' Diagonal Fractions lookup 19 subtable" uniF632
Substitution2: "'dnom' Denominators lookup 13 subtable" uniF62D
Substitution2: "'numr' Numerators lookup 12 subtable" uniF632
Substitution2: "'sinf' Scientific Inferiors lookup 11 subtable" uni208E
Substitution2: "'sups' Superscript lookup 10 subtable" uni207E
Substitution2: "'case' Case-Sensitive Forms lookup 6 subtable" uniF6AF
AlternateSubs2: "'aalt' Access All Alternates lookup 1 subtable" uniF6AF uni207E uni208E uniF632 uniF62D
EndChar

StartChar: asterisk
Encoding: 42 42 13
Width: 385
GlyphClass: 2
Flags: W
LayerCount: 2
Fore
SplineSet
245 682 m 1,0,-1
 327 636 l 1,1,-1
 228 519 l 1,2,-1
 229 516 l 1,3,-1
 370 542 l 1,4,-1
 370 451 l 1,5,-1
 228 477 l 1,6,-1
 227 474 l 1,7,-1
 327 361 l 1,8,-1
 243 314 l 1,9,-1
 190 458 l 1,10,-1
 188 455 l 1,11,-1
 131 313 l 1,12,-1
 56 360 l 1,13,-1
 155 479 l 1,14,-1
 153 480 l 1,15,-1
 15 451 l 1,16,-1
 15 542 l 1,17,-1
 151 516 l 1,18,-1
 154 519 l 1,19,-1
 56 634 l 1,20,-1
 138 681 l 1,21,-1
 191 540 l 1,22,-1
 194 540 l 1,23,-1
 245 682 l 1,0,-1
EndSplineSet
EndChar

StartChar: plus
Encoding: 43 43 14
Width: 596
GlyphClass: 2
Flags: W
LayerCount: 2
Fore
SplineSet
256 532 m 1,0,-1
 340 532 l 1,1,-1
 340 308 l 1,2,-1
 556 308 l 1,3,-1
 556 226 l 1,4,-1
 340 226 l 1,5,-1
 340 0 l 1,6,-1
 256 0 l 1,7,-1
 256 226 l 1,8,-1
 40 226 l 1,9,-1
 40 308 l 1,10,-1
 256 308 l 1,11,-1
 256 532 l 1,0,-1
EndSplineSet
EndChar

StartChar: comma
Encoding: 44 44 15
Width: 233
GlyphClass: 2
Flags: W
LayerCount: 2
Fore
SplineSet
94 -116 m 1,0,-1
 10 -125 l 1,1,2
 60 18 60 18 77 141 c 1,3,-1
 210 151 l 1,4,5
 153 -19 153 -19 94 -116 c 1,0,-1
EndSplineSet
Substitution2: "'frac' Diagonal Fractions lookup 19 subtable" uniF66B
Substitution2: "'dnom' Denominators lookup 13 subtable" uniF65F
Substitution2: "'numr' Numerators lookup 12 subtable" uniF66B
Substitution2: "'sinf' Scientific Inferiors lookup 11 subtable" uniF6E1
Substitution2: "'sups' Superscript lookup 10 subtable" uniF6E2
AlternateSubs2: "'aalt' Access All Alternates lookup 1 subtable" uniF6E2 uniF6E1 uniF66B uniF65F
EndChar

StartChar: hyphen
Encoding: 45 45 16
Width: 259
GlyphClass: 2
Flags: W
LayerCount: 2
Fore
SplineSet
30 323 m 1,0,-1
 229 323 l 1,1,-1
 229 229 l 1,2,-1
 30 229 l 1,3,-1
 30 323 l 1,0,-1
EndSplineSet
Substitution2: "'frac' Diagonal Fractions lookup 19 subtable" uniF630
Substitution2: "'dnom' Denominators lookup 13 subtable" uniF62B
Substitution2: "'numr' Numerators lookup 12 subtable" uniF630
Substitution2: "'sinf' Scientific Inferiors lookup 11 subtable" uniF6E5
Substitution2: "'sups' Superscript lookup 10 subtable" uniF6E6
Substitution2: "'case' Case-Sensitive Forms lookup 6 subtable" uniF6BA
AlternateSubs2: "'aalt' Access All Alternates lookup 1 subtable" endash emdash uniF6BA uniF6E6 uniF6E5 uniF630 uniF62B
EndChar

StartChar: period
Encoding: 46 46 17
Width: 233
GlyphClass: 2
Flags: W
LayerCount: 2
Fore
SplineSet
124 -8 m 2,0,-1
 123 -8 l 2,1,2
 92 -8 92 -8 70 16 c 128,-1,3
 48 40 48 40 48 79 c 0,4,5
 48 116 48 116 71 141 c 128,-1,6
 94 166 94 166 125 166 c 0,7,8
 157 166 157 166 179 142 c 128,-1,9
 201 118 201 118 201 79 c 0,10,11
 201 39 201 39 180 15.5 c 128,-1,12
 159 -8 159 -8 124 -8 c 2,0,-1
EndSplineSet
Substitution2: "'frac' Diagonal Fractions lookup 19 subtable" uniF66C
Substitution2: "'dnom' Denominators lookup 13 subtable" uniF660
Substitution2: "'numr' Numerators lookup 12 subtable" uniF66C
Substitution2: "'sinf' Scientific Inferiors lookup 11 subtable" uniF6E7
Substitution2: "'sups' Superscript lookup 10 subtable" uniF6E8
AlternateSubs2: "'aalt' Access All Alternates lookup 1 subtable" ellipsis uniF6E8 uniF6E7 uniF66C uniF660
EndChar

StartChar: slash
Encoding: 47 47 18
Width: 280
GlyphClass: 2
Flags: W
LayerCount: 2
Fore
SplineSet
63 -40 m 1,0,-1
 -22 -40 l 1,1,-1
 212 682 l 1,2,-1
 298 682 l 1,3,-1
 63 -40 l 1,0,-1
EndSplineSet
Substitution2: "'frac' Diagonal Fractions lookup 19 subtable" fraction
Substitution2: "'dnom' Denominators lookup 13 subtable" fraction
Substitution2: "'numr' Numerators lookup 12 subtable" fraction
Substitution2: "'aalt' Access All Alternates lookup 0 subtable" fraction
EndChar

StartChar: zero
Encoding: 48 48 19
Width: 426
GlyphClass: 2
Flags: W
LayerCount: 2
Fore
SplineSet
218 658 m 0,0,1
 272 658 272 658 310 629 c 128,-1,2
 348 600 348 600 367.5 550 c 128,-1,3
 387 500 387 500 395 446 c 128,-1,4
 403 392 403 392 403 328 c 0,5,6
 403 161 403 161 350 76.5 c 128,-1,7
 297 -8 297 -8 213 -8 c 0,8,9
 162 -8 162 -8 124 19.5 c 128,-1,10
 86 47 86 47 64.5 95 c 128,-1,11
 43 143 43 143 33 199.5 c 128,-1,12
 23 256 23 256 23 322 c 0,13,14
 23 471 23 471 72 564.5 c 128,-1,15
 121 658 121 658 218 658 c 0,0,1
216 546 m 0,16,17
 154 546 154 546 155 325 c 1,18,19
 152 104 152 104 216 104 c 0,20,21
 246 104 246 104 258.5 157 c 128,-1,22
 271 210 271 210 271 325 c 0,23,24
 271 546 271 546 216 546 c 0,16,17
EndSplineSet
Substitution2: "'frac' Diagonal Fractions lookup 19 subtable" uniF661
Substitution2: "'zero' Slashed Zero lookup 18 subtable" uniF638
Substitution2: "'dnom' Denominators lookup 13 subtable" uniF655
Substitution2: "'numr' Numerators lookup 12 subtable" uniF661
Substitution2: "'sinf' Scientific Inferiors lookup 11 subtable" uni2080
Substitution2: "'sups' Superscript lookup 10 subtable" uni2070
Substitution2: "'pnum' Proportional Numbers lookup 8 subtable" uniF639
Substitution2: "'onum' Oldstyle Figures lookup 5 subtable" uniF643
AlternateSubs2: "'aalt' Access All Alternates lookup 1 subtable" uniF639 uniF730 uniF643 uni2070 uni2080 uniF661 uniF655 uniF638
EndChar

StartChar: one
Encoding: 49 49 20
Width: 426
GlyphClass: 2
Flags: W
LayerCount: 2
Fore
SplineSet
179 0 m 1,0,-1
 179 527 l 1,1,-1
 177 527 l 1,2,-1
 67 470 l 1,3,-1
 45 573 l 1,4,-1
 194 650 l 1,5,-1
 309 650 l 1,6,-1
 309 0 l 1,7,-1
 179 0 l 1,0,-1
EndSplineSet
Substitution2: "'frac' Diagonal Fractions lookup 19 subtable" uniF662
Substitution2: "'dnom' Denominators lookup 13 subtable" uniF656
Substitution2: "'numr' Numerators lookup 12 subtable" uniF662
Substitution2: "'sinf' Scientific Inferiors lookup 11 subtable" uni2081
Substitution2: "'sups' Superscript lookup 10 subtable" uni00B9
Substitution2: "'pnum' Proportional Numbers lookup 8 subtable" uniF6DC
Substitution2: "'onum' Oldstyle Figures lookup 5 subtable" uniF644
AlternateSubs2: "'aalt' Access All Alternates lookup 1 subtable" uniF6DC uniF731 uniF644 uni00B9 uni2081 uniF662 uniF656
EndChar

StartChar: two
Encoding: 50 50 21
Width: 426
GlyphClass: 2
Flags: W
LayerCount: 2
Fore
SplineSet
380 0 m 1,0,-1
 24 0 l 1,1,-1
 24 88 l 1,2,-1
 89 171 l 2,3,4
 143 239 143 239 169 276 c 128,-1,5
 195 313 195 313 218.5 364.5 c 128,-1,6
 242 416 242 416 242 460 c 0,7,8
 242 500 242 500 220.5 524.5 c 128,-1,9
 199 549 199 549 159 549 c 0,10,11
 114 549 114 549 61 516 c 1,12,-1
 38 618 l 1,13,14
 101 658 101 658 183 658 c 0,15,16
 281 658 281 658 326 604 c 128,-1,17
 371 550 371 550 371 470 c 0,18,19
 371 388 371 388 331 317 c 128,-1,20
 291 246 291 246 220 163 c 2,21,-1
 181 118 l 1,22,-1
 181 116 l 1,23,-1
 380 116 l 1,24,-1
 380 0 l 1,0,-1
EndSplineSet
Substitution2: "'frac' Diagonal Fractions lookup 19 subtable" uniF663
Substitution2: "'dnom' Denominators lookup 13 subtable" uniF657
Substitution2: "'numr' Numerators lookup 12 subtable" uniF663
Substitution2: "'sinf' Scientific Inferiors lookup 11 subtable" uni2082
Substitution2: "'sups' Superscript lookup 10 subtable" uni00B2
Substitution2: "'pnum' Proportional Numbers lookup 8 subtable" uniF63A
Substitution2: "'onum' Oldstyle Figures lookup 5 subtable" uniF645
AlternateSubs2: "'aalt' Access All Alternates lookup 1 subtable" uniF63A uniF732 uniF645 uni00B2 uni2082 uniF663 uniF657
EndChar

StartChar: three
Encoding: 51 51 22
Width: 426
GlyphClass: 2
Flags: W
LayerCount: 2
Fore
SplineSet
24 21 m 1,0,-1
 43 124 l 1,1,2
 86 99 86 99 140 99 c 0,3,4
 186 99 186 99 212 125 c 128,-1,5
 238 151 238 151 238 193 c 0,6,7
 238 244 238 244 204 270 c 128,-1,8
 170 296 170 296 116 296 c 2,9,-1
 98 296 l 1,10,-1
 98 392 l 1,11,-1
 111 392 l 1,12,13
 154 393 154 393 187.5 413 c 128,-1,14
 221 433 221 433 221 476 c 0,15,16
 221 511 221 511 200.5 531 c 128,-1,17
 180 551 180 551 145 551 c 0,18,19
 105 551 105 551 63 525 c 1,20,-1
 46 624 l 1,21,22
 100 658 100 658 180 658 c 0,23,24
 261 658 261 658 306 612.5 c 128,-1,25
 351 567 351 567 351 501 c 0,26,27
 351 453 351 453 326 414 c 128,-1,28
 301 375 301 375 258 355 c 1,29,-1
 258 353 l 1,30,31
 308 336 308 336 338.5 293.5 c 128,-1,32
 369 251 369 251 369 188 c 0,33,34
 369 108 369 108 310.5 50 c 128,-1,35
 252 -8 252 -8 152 -8 c 0,36,37
 77 -8 77 -8 24 21 c 1,0,-1
EndSplineSet
Substitution2: "'frac' Diagonal Fractions lookup 19 subtable" uniF664
Substitution2: "'dnom' Denominators lookup 13 subtable" uniF658
Substitution2: "'numr' Numerators lookup 12 subtable" uniF664
Substitution2: "'sinf' Scientific Inferiors lookup 11 subtable" uni2083
Substitution2: "'sups' Superscript lookup 10 subtable" uni00B3
Substitution2: "'pnum' Proportional Numbers lookup 8 subtable" uniF63B
Substitution2: "'onum' Oldstyle Figures lookup 5 subtable" uniF646
AlternateSubs2: "'aalt' Access All Alternates lookup 1 subtable" uniF63B uniF733 uniF646 uni00B3 uni2083 uniF664 uniF658
EndChar

StartChar: four
Encoding: 52 52 23
Width: 426
GlyphClass: 2
Flags: W
LayerCount: 2
Fore
SplineSet
350 0 m 1,0,-1
 234 0 l 1,1,-1
 234 155 l 1,2,-1
 11 155 l 1,3,-1
 11 245 l 1,4,-1
 224 650 l 1,5,-1
 350 650 l 1,6,-1
 350 260 l 1,7,-1
 415 260 l 1,8,-1
 415 155 l 1,9,-1
 350 155 l 1,10,-1
 350 0 l 1,0,-1
122 260 m 1,11,-1
 234 260 l 1,12,-1
 234 393 l 2,13,14
 234 421 234 421 241 500 c 1,15,-1
 237 500 l 1,16,17
 217 451 217 451 192 399 c 1,18,-1
 122 262 l 1,19,-1
 122 260 l 1,11,-1
EndSplineSet
Substitution2: "'frac' Diagonal Fractions lookup 19 subtable" uniF665
Substitution2: "'dnom' Denominators lookup 13 subtable" uniF659
Substitution2: "'numr' Numerators lookup 12 subtable" uniF665
Substitution2: "'sinf' Scientific Inferiors lookup 11 subtable" uni2084
Substitution2: "'sups' Superscript lookup 10 subtable" uni2074
Substitution2: "'pnum' Proportional Numbers lookup 8 subtable" uniF63C
Substitution2: "'onum' Oldstyle Figures lookup 5 subtable" uniF647
AlternateSubs2: "'aalt' Access All Alternates lookup 1 subtable" uniF63C uniF734 uniF647 uni2074 uni2084 uniF665 uniF659
EndChar

StartChar: five
Encoding: 53 53 24
Width: 426
GlyphClass: 2
Flags: W
LayerCount: 2
Fore
SplineSet
365 650 m 1,0,-1
 365 536 l 1,1,-1
 193 536 l 1,2,-1
 178 420 l 1,3,-1
 198 420 l 1,4,5
 271 417 271 417 320 371 c 0,6,7
 376 317 376 317 376 222 c 0,8,9
 376 124 376 124 315 58 c 128,-1,10
 254 -8 254 -8 150 -8 c 0,11,12
 76 -8 76 -8 28 18 c 1,13,-1
 48 122 l 1,14,15
 94 99 94 99 141 99 c 0,16,17
 190 99 190 99 218.5 128.5 c 128,-1,18
 247 158 247 158 247 210 c 0,19,20
 247 271 247 271 207.5 298.5 c 128,-1,21
 168 326 168 326 106 326 c 0,22,23
 73 326 73 326 60 324 c 1,24,-1
 96 650 l 1,25,-1
 365 650 l 1,0,-1
EndSplineSet
Substitution2: "'frac' Diagonal Fractions lookup 19 subtable" uniF666
Substitution2: "'dnom' Denominators lookup 13 subtable" uniF65A
Substitution2: "'numr' Numerators lookup 12 subtable" uniF666
Substitution2: "'sinf' Scientific Inferiors lookup 11 subtable" uni2085
Substitution2: "'sups' Superscript lookup 10 subtable" uni2075
Substitution2: "'pnum' Proportional Numbers lookup 8 subtable" uniF63D
Substitution2: "'onum' Oldstyle Figures lookup 5 subtable" uniF648
AlternateSubs2: "'aalt' Access All Alternates lookup 1 subtable" uniF63D uniF735 uniF648 uni2075 uni2085 uniF666 uniF65A
EndChar

StartChar: six
Encoding: 54 54 25
Width: 426
GlyphClass: 2
Flags: W
LayerCount: 2
Fore
SplineSet
355 658 m 1,0,-1
 355 552 l 1,1,2
 327 550 327 550 301 545 c 0,3,4
 185 519 185 519 156 372 c 1,5,-1
 159 372 l 1,6,7
 198 424 198 424 259 424 c 0,8,9
 325 424 325 424 365.5 369 c 128,-1,10
 406 314 406 314 406 222 c 0,11,12
 406 128 406 128 358 60 c 128,-1,13
 310 -8 310 -8 221 -8 c 0,14,15
 129 -8 129 -8 76 65 c 128,-1,16
 23 138 23 138 23 260 c 0,17,18
 23 449 23 449 130 563 c 1,19,20
 193 633 193 633 289 651 c 0,21,22
 308 655 308 655 355 658 c 1,0,-1
219 87 m 2,23,-1
 220 87 l 2,24,25
 277 87 277 87 277 223 c 1,26,27
 276 268 276 268 261 299 c 128,-1,28
 246 330 246 330 216 330 c 0,29,30
 181 330 181 330 163 286 c 1,31,32
 156 274 156 274 156 229 c 0,33,34
 156 165 156 165 173 126 c 128,-1,35
 190 87 190 87 219 87 c 2,23,-1
EndSplineSet
Substitution2: "'frac' Diagonal Fractions lookup 19 subtable" uniF667
Substitution2: "'dnom' Denominators lookup 13 subtable" uniF65B
Substitution2: "'numr' Numerators lookup 12 subtable" uniF667
Substitution2: "'sinf' Scientific Inferiors lookup 11 subtable" uni2086
Substitution2: "'sups' Superscript lookup 10 subtable" uni2076
Substitution2: "'pnum' Proportional Numbers lookup 8 subtable" uniF63E
Substitution2: "'onum' Oldstyle Figures lookup 5 subtable" uniF649
AlternateSubs2: "'aalt' Access All Alternates lookup 1 subtable" uniF63E uniF736 uniF649 uni2076 uni2086 uniF667 uniF65B
EndChar

StartChar: seven
Encoding: 55 55 26
Width: 426
GlyphClass: 2
Flags: W
LayerCount: 2
Fore
SplineSet
39 650 m 1,0,-1
 393 650 l 1,1,-1
 393 564 l 1,2,-1
 189 0 l 1,3,-1
 61 0 l 1,4,-1
 261 532 l 1,5,-1
 261 534 l 1,6,-1
 39 534 l 1,7,-1
 39 650 l 1,0,-1
EndSplineSet
Substitution2: "'frac' Diagonal Fractions lookup 19 subtable" uniF668
Substitution2: "'dnom' Denominators lookup 13 subtable" uniF65C
Substitution2: "'numr' Numerators lookup 12 subtable" uniF668
Substitution2: "'sinf' Scientific Inferiors lookup 11 subtable" uni2087
Substitution2: "'sups' Superscript lookup 10 subtable" uni2077
Substitution2: "'pnum' Proportional Numbers lookup 8 subtable" uniF63F
Substitution2: "'onum' Oldstyle Figures lookup 5 subtable" uniF64A
AlternateSubs2: "'aalt' Access All Alternates lookup 1 subtable" uniF63F uniF737 uniF64A uni2077 uni2087 uniF668 uniF65C
EndChar

StartChar: eight
Encoding: 56 56 27
Width: 426
GlyphClass: 2
Flags: W
LayerCount: 2
Fore
SplineSet
118 342 m 1,0,-1
 118 344 l 1,1,2
 78 370 78 370 58 408.5 c 128,-1,3
 38 447 38 447 38 487 c 0,4,5
 38 564 38 564 91 611 c 128,-1,6
 144 658 144 658 222 658 c 0,7,8
 293 658 293 658 341.5 613.5 c 128,-1,9
 390 569 390 569 390 498 c 0,10,11
 390 408 390 408 305 354 c 1,12,-1
 305 352 l 1,13,14
 351 327 351 327 378 282.5 c 128,-1,15
 405 238 405 238 405 182 c 0,16,17
 405 95 405 95 349 43.5 c 128,-1,18
 293 -8 293 -8 210 -8 c 0,19,20
 126 -8 126 -8 73 41 c 128,-1,21
 20 90 20 90 20 169 c 0,22,23
 20 279 20 279 118 342 c 1,0,-1
215 80 m 0,24,25
 245 80 245 80 261.5 107 c 128,-1,26
 278 134 278 134 278 177 c 0,27,28
 278 258 278 258 203 297 c 1,29,30
 147 258 147 258 147 184 c 0,31,32
 147 140 147 140 165 110 c 128,-1,33
 183 80 183 80 215 80 c 0,24,25
217 570 m 128,-1,35
 190 570 190 570 175.5 547 c 128,-1,36
 161 524 161 524 161 491 c 0,37,38
 161 427 161 427 225 393 c 1,39,40
 245 404 245 404 257.5 430.5 c 128,-1,41
 270 457 270 457 270 486 c 0,42,43
 270 522 270 522 257 546 c 128,-1,34
 244 570 244 570 217 570 c 128,-1,35
EndSplineSet
Substitution2: "'frac' Diagonal Fractions lookup 19 subtable" uniF669
Substitution2: "'dnom' Denominators lookup 13 subtable" uniF65D
Substitution2: "'numr' Numerators lookup 12 subtable" uniF669
Substitution2: "'sinf' Scientific Inferiors lookup 11 subtable" uni2088
Substitution2: "'sups' Superscript lookup 10 subtable" uni2078
Substitution2: "'pnum' Proportional Numbers lookup 8 subtable" uniF640
Substitution2: "'onum' Oldstyle Figures lookup 5 subtable" uniF64B
AlternateSubs2: "'aalt' Access All Alternates lookup 1 subtable" uniF640 uniF738 uniF64B uni2078 uni2088 uniF669 uniF65D
EndChar

StartChar: nine
Encoding: 57 57 28
Width: 426
GlyphClass: 2
Flags: W
LayerCount: 2
Fore
SplineSet
74 -8 m 1,0,-1
 74 101 l 1,1,2
 107 101 107 101 134 106 c 0,3,4
 178 115 178 115 210 145 c 0,5,6
 257 190 257 190 273 276 c 1,7,-1
 270 276 l 1,8,9
 233 236 233 236 177 236 c 0,10,11
 112 236 112 236 68 289.5 c 128,-1,12
 24 343 24 343 24 430 c 0,13,14
 24 520 24 520 76.5 589 c 128,-1,15
 129 658 129 658 218 658 c 0,16,17
 306 658 306 658 354 585 c 128,-1,18
 402 512 402 512 402 391 c 0,19,20
 402 191 402 191 295 77 c 0,21,22
 233 11 233 11 135 -5 c 0,23,24
 114 -8 114 -8 74 -8 c 1,0,-1
211 563 m 2,25,-1
 210 563 l 2,26,27
 184 563 184 563 168 530.5 c 128,-1,28
 152 498 152 498 153 441 c 0,29,30
 154 391 154 391 169.5 358.5 c 128,-1,31
 185 326 185 326 214 326 c 0,32,33
 230 326 230 326 244 336 c 128,-1,34
 258 346 258 346 264 360 c 0,35,36
 270 376 270 376 270 429 c 0,37,38
 270 492 270 492 254 527.5 c 128,-1,39
 238 563 238 563 211 563 c 2,25,-1
EndSplineSet
Substitution2: "'frac' Diagonal Fractions lookup 19 subtable" uniF66A
Substitution2: "'dnom' Denominators lookup 13 subtable" uniF65E
Substitution2: "'numr' Numerators lookup 12 subtable" uniF66A
Substitution2: "'sinf' Scientific Inferiors lookup 11 subtable" uni2089
Substitution2: "'sups' Superscript lookup 10 subtable" uni2079
Substitution2: "'pnum' Proportional Numbers lookup 8 subtable" uniF641
Substitution2: "'onum' Oldstyle Figures lookup 5 subtable" uniF64C
AlternateSubs2: "'aalt' Access All Alternates lookup 1 subtable" uniF641 uniF739 uniF64C uni2079 uni2089 uniF66A uniF65E
EndChar

StartChar: colon
Encoding: 58 58 29
Width: 233
GlyphClass: 2
Flags: W
LayerCount: 2
Fore
SplineSet
124 320 m 2,0,-1
 123 320 l 2,1,2
 93 320 93 320 72 343 c 128,-1,3
 51 366 51 366 51 402 c 0,4,5
 51 437 51 437 73 461.5 c 128,-1,6
 95 486 95 486 125 486 c 0,7,8
 157 486 157 486 178 463 c 128,-1,9
 199 440 199 440 199 402 c 0,10,11
 199 366 199 366 178.5 343 c 128,-1,12
 158 320 158 320 124 320 c 2,0,-1
124 -8 m 2,13,-1
 123 -8 l 2,14,15
 93 -8 93 -8 72 15.5 c 128,-1,16
 51 39 51 39 51 75 c 0,17,18
 51 109 51 109 73 133.5 c 128,-1,19
 95 158 95 158 125 158 c 0,20,21
 157 158 157 158 178 135 c 128,-1,22
 199 112 199 112 199 75 c 128,-1,23
 199 38 199 38 178.5 15 c 128,-1,24
 158 -8 158 -8 124 -8 c 2,13,-1
EndSplineSet
EndChar

StartChar: semicolon
Encoding: 59 59 30
Width: 233
GlyphClass: 2
Flags: W
LayerCount: 2
Fore
SplineSet
91 -116 m 1,0,-1
 11 -125 l 1,1,2
 61 18 61 18 78 141 c 1,3,-1
 207 151 l 1,4,5
 150 -19 150 -19 91 -116 c 1,0,-1
129 320 m 2,6,-1
 128 320 l 2,7,8
 98 320 98 320 77 343 c 128,-1,9
 56 366 56 366 56 402 c 0,10,11
 56 437 56 437 77.5 461.5 c 128,-1,12
 99 486 99 486 130 486 c 0,13,14
 162 486 162 486 183 463 c 128,-1,15
 204 440 204 440 204 402 c 0,16,17
 204 366 204 366 183.5 343 c 128,-1,18
 163 320 163 320 129 320 c 2,6,-1
EndSplineSet
EndChar

StartChar: less
Encoding: 60 60 31
Width: 596
GlyphClass: 2
Flags: W
LayerCount: 2
Fore
SplineSet
58 235 m 1,0,-1
 58 297 l 1,1,-1
 538 532 l 1,2,-1
 538 430 l 1,3,-1
 186 266 l 1,4,-1
 186 264 l 1,5,-1
 538 101 l 1,6,-1
 538 0 l 1,7,-1
 58 235 l 1,0,-1
EndSplineSet
EndChar

StartChar: equal
Encoding: 61 61 32
Width: 596
GlyphClass: 2
Flags: W
LayerCount: 2
Fore
SplineSet
556 320 m 1,0,-1
 40 320 l 1,1,-1
 40 402 l 1,2,-1
 556 402 l 1,3,-1
 556 320 l 1,0,-1
556 133 m 1,4,-1
 40 133 l 1,5,-1
 40 215 l 1,6,-1
 556 215 l 1,7,-1
 556 133 l 1,4,-1
EndSplineSet
EndChar

StartChar: greater
Encoding: 62 62 33
Width: 596
GlyphClass: 2
Flags: W
LayerCount: 2
Fore
SplineSet
538 310 m 1,0,-1
 538 222 l 1,1,-1
 58 0 l 1,2,-1
 58 99 l 1,3,-1
 442 265 l 1,4,-1
 442 267 l 1,5,-1
 58 433 l 1,6,-1
 58 532 l 1,7,-1
 538 310 l 1,0,-1
EndSplineSet
EndChar

StartChar: question
Encoding: 63 63 34
Width: 334
GlyphClass: 2
Flags: W
LayerCount: 2
Fore
SplineSet
199 211 m 1,0,-1
 88 211 l 1,1,-1
 86 229 l 2,2,3
 77 302 77 302 139 399 c 1,4,5
 182 463 182 463 182 511 c 0,6,7
 182 539 182 539 164 556 c 128,-1,8
 146 573 146 573 116 573 c 0,9,10
 76 573 76 573 52 555 c 1,11,-1
 30 656 l 1,12,13
 75 686 75 686 147 686 c 0,14,15
 194 686 194 686 228.5 671.5 c 128,-1,16
 263 657 263 657 281 633.5 c 128,-1,17
 299 610 299 610 307.5 584.5 c 128,-1,18
 316 559 316 559 316 532 c 0,19,20
 316 500 316 500 303 465 c 128,-1,21
 290 430 290 430 278 410 c 128,-1,22
 266 390 266 390 242 355 c 0,23,24
 198 288 198 288 199 232 c 1,25,-1
 199 211 l 1,0,-1
145 -8 m 2,26,-1
 144 -8 l 2,27,28
 112 -8 112 -8 91 15 c 128,-1,29
 70 38 70 38 70 72 c 0,30,31
 70 108 70 108 92 130.5 c 128,-1,32
 114 153 114 153 144 154 c 1,33,34
 177 154 177 154 198 131 c 128,-1,35
 219 108 219 108 219 72 c 0,36,37
 219 37 219 37 199 14.5 c 128,-1,38
 179 -8 179 -8 145 -8 c 2,26,-1
EndSplineSet
EndChar

StartChar: at
Encoding: 64 64 35
Width: 621
GlyphClass: 2
Flags: W
LayerCount: 2
Fore
SplineSet
348 232 m 2,0,-1
 371 362 l 1,1,2
 362 367 362 367 345 367 c 0,3,4
 308 367 308 367 276.5 315 c 128,-1,5
 245 263 245 263 245 190 c 0,6,7
 245 135 245 135 280 135 c 0,8,9
 302 135 302 135 322 164.5 c 128,-1,10
 342 194 342 194 348 232 c 2,0,-1
426 -17 m 1,11,-1
 441 -59 l 1,12,13
 372 -99 372 -99 282 -99 c 0,14,15
 180 -99 180 -99 105.5 -19.5 c 128,-1,16
 31 60 31 60 31 201 c 0,17,18
 31 357 31 357 122.5 475 c 128,-1,19
 214 593 214 593 355 593 c 0,20,21
 469 593 469 593 530 518 c 128,-1,22
 591 443 591 443 591 334 c 0,23,24
 591 206 591 206 549 135.5 c 128,-1,25
 507 65 507 65 433 65 c 0,26,27
 360 65 360 65 360 150 c 1,28,-1
 357 150 l 1,29,30
 339 110 339 110 309.5 87.5 c 128,-1,31
 280 65 280 65 247 65 c 0,32,33
 207 65 207 65 184 97.5 c 128,-1,34
 161 130 161 130 161 185 c 0,35,36
 161 284 161 284 217.5 356 c 128,-1,37
 274 428 274 428 368 428 c 0,38,39
 422 428 422 428 461 407 c 1,40,-1
 427 223 l 2,41,42
 408 120 408 120 455 120 c 0,43,44
 488 120 488 120 512.5 173 c 128,-1,45
 537 226 537 226 537 320 c 0,46,47
 537 422 537 422 489 485 c 128,-1,48
 441 548 441 548 344 548 c 0,49,50
 241 548 241 548 163.5 450 c 128,-1,51
 86 352 86 352 86 201 c 0,52,53
 86 78 86 78 144 12.5 c 128,-1,54
 202 -53 202 -53 296 -53 c 0,55,56
 363 -53 363 -53 426 -17 c 1,11,-1
EndSplineSet
Substitution2: "'case' Case-Sensitive Forms lookup 6 subtable" uniF633
Substitution2: "'aalt' Access All Alternates lookup 0 subtable" uniF633
EndChar

StartChar: A
Encoding: 65 65 36
Width: 458
GlyphClass: 2
Flags: W
LayerCount: 2
Fore
SplineSet
286 154 m 1,0,-1
 165 154 l 1,1,-1
 135 0 l 1,2,-1
 8 0 l 1,3,-1
 154 674 l 1,4,-1
 311 674 l 1,5,-1
 442 0 l 1,6,-1
 315 0 l 1,7,-1
 286 154 l 1,0,-1
178 256 m 1,8,-1
 274 256 l 1,9,-1
 252 397 l 2,10,11
 245 440 245 440 230 550 c 1,12,-1
 227 550 l 1,13,14
 203 398 203 398 203 396 c 2,15,-1
 178 256 l 1,8,-1
EndSplineSet
Substitution2: "'ordn' Ordinals lookup 17 subtable" ordfeminine
Substitution2: "'aalt' Access All Alternates lookup 0 subtable" ordfeminine
Position2: "'cpsp' Capital Spacing lookup 0 subtable" dx=10 dy=0 dh=20 dv=0
EndChar

StartChar: B
Encoding: 66 66 37
Width: 483
GlyphClass: 2
Flags: W
LayerCount: 2
Fore
SplineSet
58 2 m 1,0,-1
 58 664 l 1,1,2
 116 677 116 677 207 677 c 0,3,4
 322 677 322 677 378 629 c 0,5,6
 429 586 429 586 429 507 c 0,7,8
 429 460 429 460 404 420.5 c 128,-1,9
 379 381 379 381 331 360 c 1,10,-1
 331 356 l 1,11,12
 388 340 388 340 419.5 296 c 128,-1,13
 451 252 451 252 451 195 c 0,14,15
 451 115 451 115 401 63 c 1,16,17
 339 -5 339 -5 180 -5 c 0,18,19
 110 -5 110 -5 58 2 c 1,0,-1
189 575 m 1,20,-1
 189 397 l 1,21,-1
 217 397 l 2,22,23
 252 397 252 397 276 424 c 128,-1,24
 300 451 300 451 300 492 c 0,25,26
 300 531 300 531 281 555 c 128,-1,27
 262 579 262 579 223 579 c 0,28,29
 200 579 200 579 189 575 c 1,20,-1
189 300 m 1,30,-1
 189 98 l 1,31,32
 197 96 197 96 218 96 c 0,33,34
 260 96 260 96 287.5 122 c 128,-1,35
 315 148 315 148 315 197 c 0,36,37
 315 245 315 245 286.5 272 c 128,-1,38
 258 299 258 299 217 300 c 1,39,-1
 189 300 l 1,30,-1
EndSplineSet
Position2: "'cpsp' Capital Spacing lookup 0 subtable" dx=10 dy=0 dh=20 dv=0
EndChar

StartChar: C
Encoding: 67 67 38
Width: 395
GlyphClass: 2
Flags: W
LayerCount: 2
Fore
SplineSet
368 120 m 1,0,-1
 381 10 l 1,1,2
 347 -6 347 -6 279 -6 c 0,3,4
 155 -6 155 -6 90 85.5 c 128,-1,5
 25 177 25 177 25 327 c 0,6,7
 25 418 25 418 48.5 488.5 c 128,-1,8
 72 559 72 559 112 599.5 c 128,-1,9
 152 640 152 640 199 660 c 128,-1,10
 246 680 246 680 297 680 c 0,11,12
 362 680 362 680 388 662 c 1,13,-1
 366 552 l 1,14,15
 338 565 338 565 305 565 c 0,16,17
 244 565 244 565 204 508 c 128,-1,18
 164 451 164 451 164 334 c 0,19,20
 164 219 164 219 202.5 164.5 c 128,-1,21
 241 110 241 110 305 110 c 0,22,23
 336 110 336 110 368 120 c 1,0,-1
EndSplineSet
Position2: "'cpsp' Capital Spacing lookup 0 subtable" dx=10 dy=0 dh=20 dv=0
EndChar

StartChar: D
Encoding: 68 68 39
Width: 491
GlyphClass: 2
Flags: W
LayerCount: 2
Fore
SplineSet
58 2 m 1,0,-1
 58 664 l 1,1,2
 112 677 112 677 191 677 c 0,3,4
 314 677 314 677 378 617 c 1,5,6
 466 538 466 538 466 345 c 0,7,8
 466 143 466 143 372 60 c 1,9,10
 306 -5 306 -5 166 -5 c 0,11,12
 119 -5 119 -5 58 2 c 1,0,-1
189 569 m 1,13,-1
 189 104 l 1,14,15
 195 102 195 102 212 102 c 0,16,17
 264 102 264 102 297 161 c 128,-1,18
 330 220 330 220 330 350 c 0,19,20
 330 572 330 572 215 572 c 0,21,22
 197 572 197 572 189 569 c 1,13,-1
EndSplineSet
Position2: "'cpsp' Capital Spacing lookup 0 subtable" dx=10 dy=0 dh=20 dv=0
EndChar

StartChar: E
Encoding: 69 69 40
Width: 394
GlyphClass: 2
Flags: W
LayerCount: 2
Fore
SplineSet
343 405 m 1,0,-1
 343 296 l 1,1,-1
 189 296 l 1,2,-1
 189 114 l 1,3,-1
 363 114 l 1,4,-1
 363 0 l 1,5,-1
 58 0 l 1,6,-1
 58 674 l 1,7,-1
 351 674 l 1,8,-1
 351 560 l 1,9,-1
 189 560 l 1,10,-1
 189 405 l 1,11,-1
 343 405 l 1,0,-1
EndSplineSet
Position2: "'cpsp' Capital Spacing lookup 0 subtable" dx=10 dy=0 dh=20 dv=0
EndChar

StartChar: F
Encoding: 70 70 41
Width: 392
GlyphClass: 2
Flags: W
LayerCount: 2
Fore
SplineSet
58 0 m 1,0,-1
 58 674 l 1,1,-1
 351 674 l 1,2,-1
 351 560 l 1,3,-1
 189 560 l 1,4,-1
 189 387 l 1,5,-1
 341 387 l 1,6,-1
 341 278 l 1,7,-1
 189 278 l 1,8,-1
 189 0 l 1,9,-1
 58 0 l 1,0,-1
EndSplineSet
Position2: "'cpsp' Capital Spacing lookup 0 subtable" dx=10 dy=0 dh=20 dv=0
EndChar

StartChar: G
Encoding: 71 71 42
Width: 472
GlyphClass: 2
Flags: W
LayerCount: 2
Fore
SplineSet
432 378 m 1,0,-1
 432 18 l 1,1,2
 374 -6 374 -6 292 -6 c 0,3,4
 179 -6 179 -6 112 61 c 1,5,6
 22 148 22 148 25 333 c 0,7,8
 26 422 26 422 50.5 490.5 c 128,-1,9
 75 559 75 559 116 599 c 128,-1,10
 157 639 157 639 206.5 659.5 c 128,-1,11
 256 680 256 680 311 680 c 0,12,13
 379 680 379 680 421 660 c 1,14,-1
 398 547 l 1,15,16
 366 562 366 562 321 562 c 0,17,18
 248 562 248 562 204.5 505.5 c 128,-1,19
 161 449 161 449 161 325 c 0,20,21
 161 212 161 212 197 158.5 c 128,-1,22
 233 105 233 105 285 105 c 0,23,24
 304 105 304 105 311 108 c 1,25,-1
 311 271 l 1,26,-1
 251 271 l 1,27,-1
 251 378 l 1,28,-1
 432 378 l 1,0,-1
EndSplineSet
Position2: "'cpsp' Capital Spacing lookup 0 subtable" dx=10 dy=0 dh=20 dv=0
EndChar

StartChar: H
Encoding: 72 72 43
Width: 515
GlyphClass: 2
Flags: W
LayerCount: 2
Fore
SplineSet
58 674 m 1,0,-1
 189 674 l 1,1,-1
 189 404 l 1,2,-1
 326 404 l 1,3,-1
 326 674 l 1,4,-1
 457 674 l 1,5,-1
 457 0 l 1,6,-1
 326 0 l 1,7,-1
 326 282 l 1,8,-1
 189 282 l 1,9,-1
 189 0 l 1,10,-1
 58 0 l 1,11,-1
 58 674 l 1,0,-1
EndSplineSet
Position2: "'cpsp' Capital Spacing lookup 0 subtable" dx=10 dy=0 dh=20 dv=0
EndChar

StartChar: I
Encoding: 73 73 44
Width: 248
GlyphClass: 2
Flags: W
LayerCount: 2
Fore
SplineSet
58 674 m 1,0,-1
 189 674 l 1,1,-1
 189 0 l 1,2,-1
 58 0 l 1,3,-1
 58 674 l 1,0,-1
EndSplineSet
Position2: "'cpsp' Capital Spacing lookup 0 subtable" dx=10 dy=0 dh=20 dv=0
EndChar

StartChar: J
Encoding: 74 74 45
Width: 296
GlyphClass: 2
Flags: W
LayerCount: 2
Fore
SplineSet
115 209 m 2,0,-1
 115 674 l 1,1,-1
 247 674 l 1,2,-1
 247 215 l 2,3,4
 247 145 247 145 231.5 98.5 c 128,-1,5
 216 52 216 52 187 30 c 128,-1,6
 158 8 158 8 128 0 c 128,-1,7
 98 -8 98 -8 57 -8 c 128,-1,8
 16 -8 16 -8 -9 2 c 1,9,-1
 2 112 l 1,10,11
 24 107 24 107 45 107 c 0,12,13
 78 107 78 107 96.5 128 c 128,-1,14
 115 149 115 149 115 209 c 2,0,-1
EndSplineSet
Position2: "'cpsp' Capital Spacing lookup 0 subtable" dx=10 dy=0 dh=20 dv=0
EndChar

StartChar: K
Encoding: 75 75 46
Width: 459
GlyphClass: 2
Flags: W
LayerCount: 2
Fore
SplineSet
58 0 m 1,0,-1
 58 674 l 1,1,-1
 189 674 l 1,2,-1
 189 371 l 1,3,-1
 191 371 l 1,4,-1
 224 458 l 1,5,-1
 314 674 l 1,6,-1
 458 674 l 1,7,-1
 307 381 l 1,8,-1
 460 0 l 1,9,-1
 317 0 l 1,10,-1
 219 279 l 1,11,-1
 189 224 l 1,12,-1
 189 0 l 1,13,-1
 58 0 l 1,0,-1
EndSplineSet
Position2: "'cpsp' Capital Spacing lookup 0 subtable" dx=10 dy=0 dh=20 dv=0
EndChar

StartChar: L
Encoding: 76 76 47
Width: 380
GlyphClass: 2
Flags: W
LayerCount: 2
Fore
SplineSet
58 0 m 1,0,-1
 58 674 l 1,1,-1
 189 674 l 1,2,-1
 189 111 l 1,3,-1
 362 111 l 1,4,-1
 362 0 l 1,5,-1
 58 0 l 1,0,-1
EndSplineSet
Position2: "'cpsp' Capital Spacing lookup 0 subtable" dx=10 dy=0 dh=20 dv=0
EndChar

StartChar: M
Encoding: 77 77 48
Width: 637
GlyphClass: 2
Flags: W
LayerCount: 2
Fore
SplineSet
482 0 m 1,0,-1
 470 236 l 2,1,2
 462 399 462 399 464 459 c 1,3,-1
 461 459 l 1,4,5
 444 354 444 354 418 252 c 1,6,-1
 360 11 l 1,7,-1
 267 11 l 1,8,-1
 211 248 l 2,9,10
 183 365 183 365 170 459 c 1,11,-1
 167 459 l 1,12,13
 164 353 164 353 157 234 c 1,14,-1
 146 0 l 1,15,-1
 33 0 l 1,16,-1
 82 674 l 1,17,-1
 220 674 l 1,18,-1
 274 430 l 2,19,20
 311 266 311 266 322 194 c 1,21,-1
 324 194 l 1,22,23
 336 283 336 283 367 430 c 2,24,-1
 420 674 l 1,25,-1
 558 674 l 1,26,-1
 599 0 l 1,27,-1
 482 0 l 1,0,-1
EndSplineSet
Position2: "'cpsp' Capital Spacing lookup 0 subtable" dx=10 dy=0 dh=20 dv=0
EndChar

StartChar: N
Encoding: 78 78 49
Width: 516
GlyphClass: 2
Flags: W
LayerCount: 2
Fore
SplineSet
173 0 m 1,0,-1
 58 0 l 1,1,-1
 58 674 l 1,2,-1
 178 674 l 1,3,-1
 282 410 l 2,4,5
 335 273 335 273 354 213 c 1,6,-1
 356 213 l 1,7,8
 343 444 343 444 343 525 c 2,9,-1
 343 674 l 1,10,-1
 458 674 l 1,11,-1
 458 0 l 1,12,-1
 338 0 l 1,13,-1
 235 256 l 1,14,15
 185 385 185 385 167 459 c 1,16,-1
 165 459 l 1,17,18
 173 278 173 278 173 151 c 2,19,-1
 173 0 l 1,0,-1
EndSplineSet
Position2: "'cpsp' Capital Spacing lookup 0 subtable" dx=10 dy=0 dh=20 dv=0
EndChar

StartChar: O
Encoding: 79 79 50
Width: 481
GlyphClass: 2
Flags: W
LayerCount: 2
Fore
SplineSet
247 682 m 0,0,1
 294 682 294 682 331 662 c 128,-1,2
 368 642 368 642 391 609.5 c 128,-1,3
 414 577 414 577 429 532.5 c 128,-1,4
 444 488 444 488 450 443 c 128,-1,5
 456 398 456 398 456 349 c 0,6,7
 456 166 456 166 397.5 79 c 128,-1,8
 339 -8 339 -8 238 -8 c 0,9,10
 165 -8 165 -8 115.5 41.5 c 128,-1,11
 66 91 66 91 45.5 166.5 c 128,-1,12
 25 242 25 242 25 339 c 0,13,14
 25 434 25 434 49 510 c 128,-1,15
 73 586 73 586 124 634 c 128,-1,16
 175 682 175 682 247 682 c 0,0,1
242 568 m 0,17,18
 203 568 203 568 182 507 c 128,-1,19
 161 446 161 446 161 337 c 0,20,21
 161 106 161 106 243 106 c 0,22,23
 319 106 319 106 319 343 c 0,24,25
 319 568 319 568 242 568 c 0,17,18
EndSplineSet
Substitution2: "'ordn' Ordinals lookup 17 subtable" ordmasculine
Substitution2: "'aalt' Access All Alternates lookup 0 subtable" ordmasculine
Position2: "'cpsp' Capital Spacing lookup 0 subtable" dx=10 dy=0 dh=20 dv=0
EndChar

StartChar: P
Encoding: 80 80 51
Width: 457
GlyphClass: 2
Flags: W
LayerCount: 2
Fore
SplineSet
58 0 m 1,0,-1
 58 664 l 1,1,2
 118 677 118 677 195 677 c 0,3,4
 322 677 322 677 378 625 c 1,5,6
 436 574 436 574 436 477 c 0,7,8
 436 377 436 377 379 315 c 1,9,10
 349 284 349 284 304 267.5 c 128,-1,11
 259 251 259 251 215 251 c 2,12,-1
 189 251 l 1,13,-1
 189 0 l 1,14,-1
 58 0 l 1,0,-1
189 566 m 1,15,-1
 189 358 l 1,16,17
 195 356 195 356 210 356 c 0,18,19
 258 356 258 356 282 386 c 128,-1,20
 306 416 306 416 306 466 c 0,21,22
 306 513 306 513 285 542 c 128,-1,23
 264 571 264 571 221 571 c 0,24,25
 202 571 202 571 189 566 c 1,15,-1
EndSplineSet
Position2: "'cpsp' Capital Spacing lookup 0 subtable" dx=10 dy=0 dh=20 dv=0
EndChar

StartChar: Q
Encoding: 81 81 52
Width: 481
GlyphClass: 2
Flags: W
LayerCount: 2
Fore
SplineSet
487 -11 m 1,0,-1
 441 -110 l 1,1,2
 356 -75 356 -75 268 -22 c 1,3,4
 242 -8 242 -8 236 -8 c 0,5,6
 137 -8 137 -8 81 83.5 c 128,-1,7
 25 175 25 175 25 339 c 0,8,9
 25 484 25 484 83 583 c 128,-1,10
 141 682 141 682 248 682 c 0,11,12
 306 682 306 682 348.5 652.5 c 128,-1,13
 391 623 391 623 413.5 572.5 c 128,-1,14
 436 522 436 522 446 467 c 128,-1,15
 456 412 456 412 456 349 c 0,16,17
 456 100 456 100 355 44 c 1,18,-1
 355 39 l 1,19,20
 374 31 374 31 396.5 22 c 128,-1,21
 419 13 419 13 446 3.5 c 128,-1,22
 473 -6 473 -6 487 -11 c 1,0,-1
242 106 m 2,23,-1
 243 106 l 2,24,25
 319 106 319 106 319 343 c 0,26,27
 319 568 319 568 242 568 c 0,28,29
 203 568 203 568 182 504 c 128,-1,30
 161 440 161 440 161 340 c 0,31,32
 160 232 160 232 180 169 c 128,-1,33
 200 106 200 106 242 106 c 2,23,-1
EndSplineSet
Position2: "'cpsp' Capital Spacing lookup 0 subtable" dx=10 dy=0 dh=20 dv=0
EndChar

StartChar: R
Encoding: 82 82 53
Width: 470
GlyphClass: 2
Flags: W
LayerCount: 2
Fore
SplineSet
58 0 m 1,0,-1
 58 664 l 1,1,2
 125 677 125 677 201 677 c 0,3,4
 326 677 326 677 381 627 c 0,5,6
 434 579 434 579 434 487 c 0,7,8
 434 431 434 431 407.5 386 c 128,-1,9
 381 341 381 341 330 318 c 1,10,-1
 330 316 l 1,11,12
 392 292 392 292 412 183 c 1,13,14
 437 37 437 37 455 0 c 1,15,-1
 318 0 l 1,16,17
 301 39 301 39 285 161 c 0,18,19
 276 223 276 223 259 246 c 128,-1,20
 242 269 242 269 208 269 c 2,21,-1
 189 269 l 1,22,-1
 189 0 l 1,23,-1
 58 0 l 1,0,-1
189 571 m 1,24,-1
 189 370 l 1,25,-1
 212 370 l 2,26,27
 254 370 254 370 278 399.5 c 128,-1,28
 302 429 302 429 302 475 c 0,29,30
 302 572 302 572 220 575 c 0,31,32
 198 575 198 575 189 571 c 1,24,-1
EndSplineSet
Position2: "'cpsp' Capital Spacing lookup 0 subtable" dx=10 dy=0 dh=20 dv=0
EndChar

StartChar: S
Encoding: 83 83 54
Width: 394
GlyphClass: 2
Flags: W
LayerCount: 2
Fore
SplineSet
24 21 m 1,0,-1
 43 134 l 1,1,2
 90 108 90 108 154 108 c 0,3,4
 199 108 199 108 222.5 129 c 128,-1,5
 246 150 246 150 246 184 c 128,-1,6
 246 218 246 218 226.5 240.5 c 128,-1,7
 207 263 207 263 159 294 c 1,8,9
 94 334 94 334 63 383 c 128,-1,10
 32 432 32 432 32 482 c 0,11,12
 32 567 32 567 88 623.5 c 128,-1,13
 144 680 144 680 245 680 c 0,14,15
 311 680 311 680 351 656 c 1,16,-1
 330 543 l 1,17,18
 294 566 294 566 244 566 c 0,19,20
 204 566 204 566 182.5 545.5 c 128,-1,21
 161 525 161 525 161 496 c 0,22,23
 161 466 161 466 180 445 c 128,-1,24
 199 424 199 424 254 391 c 0,25,26
 376 317 376 317 376 198 c 0,27,28
 376 106 376 106 314 50 c 128,-1,29
 252 -6 252 -6 153 -6 c 0,30,31
 70 -6 70 -6 24 21 c 1,0,-1
EndSplineSet
Position2: "'cpsp' Capital Spacing lookup 0 subtable" dx=10 dy=0 dh=20 dv=0
EndChar

StartChar: T
Encoding: 84 84 55
Width: 393
GlyphClass: 2
Flags: W
LayerCount: 2
Fore
SplineSet
131 0 m 1,0,-1
 131 553 l 1,1,-1
 12 553 l 1,2,-1
 12 674 l 1,3,-1
 382 674 l 1,4,-1
 382 553 l 1,5,-1
 262 553 l 1,6,-1
 262 0 l 1,7,-1
 131 0 l 1,0,-1
EndSplineSet
Position2: "'cpsp' Capital Spacing lookup 0 subtable" dx=10 dy=0 dh=20 dv=0
EndChar

StartChar: U
Encoding: 85 85 56
Width: 500
GlyphClass: 2
Flags: W
LayerCount: 2
Fore
SplineSet
54 674 m 1,0,-1
 185 674 l 1,1,-1
 185 236 l 2,2,3
 185 107 185 107 249 107 c 0,4,5
 280 107 280 107 297 135.5 c 128,-1,6
 314 164 314 164 314 236 c 2,7,-1
 314 674 l 1,8,-1
 445 674 l 1,9,-1
 445 259 l 2,10,11
 445 128 445 128 396 60 c 128,-1,12
 347 -8 347 -8 250 -8 c 0,13,14
 147 -8 147 -8 100.5 59.5 c 128,-1,15
 54 127 54 127 54 258 c 2,16,-1
 54 674 l 1,0,-1
EndSplineSet
Position2: "'cpsp' Capital Spacing lookup 0 subtable" dx=10 dy=0 dh=20 dv=0
EndChar

StartChar: V
Encoding: 86 86 57
Width: 452
GlyphClass: 2
Flags: W
LayerCount: 2
Fore
SplineSet
299 0 m 1,0,-1
 152 0 l 1,1,-1
 1 674 l 1,2,-1
 146 674 l 1,3,-1
 194 383 l 2,4,5
 220 225 220 225 229 149 c 1,6,-1
 231 149 l 1,7,8
 244 268 244 268 263 386 c 2,9,-1
 309 674 l 1,10,-1
 453 674 l 1,11,-1
 299 0 l 1,0,-1
EndSplineSet
Position2: "'cpsp' Capital Spacing lookup 0 subtable" dx=10 dy=0 dh=20 dv=0
EndChar

StartChar: W
Encoding: 87 87 58
Width: 679
GlyphClass: 2
Flags: W
LayerCount: 2
Fore
SplineSet
258 0 m 1,0,-1
 128 0 l 1,1,-1
 13 674 l 1,2,-1
 149 674 l 1,3,-1
 182 406 l 2,4,5
 186 371 186 371 190 332 c 128,-1,6
 194 293 194 293 198 245 c 128,-1,7
 202 197 202 197 205 169 c 1,8,-1
 208 169 l 1,9,10
 213 215 213 215 246 406 c 1,11,-1
 294 674 l 1,12,-1
 400 674 l 1,13,-1
 445 408 l 1,14,15
 469 255 469 255 477 169 c 1,16,-1
 479 169 l 1,17,18
 490 280 490 280 505 407 c 2,19,-1
 538 674 l 1,20,-1
 666 674 l 1,21,-1
 547 0 l 1,22,-1
 412 0 l 1,23,-1
 372 220 l 2,24,25
 357 307 357 307 342 442 c 1,26,-1
 340 442 l 1,27,28
 317 284 317 284 303 220 c 2,29,-1
 258 0 l 1,0,-1
EndSplineSet
Position2: "'cpsp' Capital Spacing lookup 0 subtable" dx=10 dy=0 dh=20 dv=0
EndChar

StartChar: X
Encoding: 88 88 59
Width: 407
GlyphClass: 2
Flags: W
LayerCount: 2
Fore
SplineSet
411 0 m 1,0,-1
 276 0 l 1,1,-1
 233 124 l 2,2,3
 218 170 218 170 197 244 c 1,4,-1
 195 244 l 1,5,6
 191 230 191 230 163 122 c 1,7,-1
 127 0 l 1,8,-1
 -3 0 l 1,9,-1
 123 345 l 1,10,-1
 2 674 l 1,11,-1
 139 674 l 1,12,-1
 178 549 l 2,13,14
 184 528 184 528 195.5 488.5 c 128,-1,15
 207 449 207 449 209 441 c 1,16,-1
 211 441 l 1,17,18
 224 491 224 491 239 551 c 1,19,-1
 273 674 l 1,20,-1
 404 674 l 1,21,-1
 278 339 l 1,22,-1
 411 0 l 1,0,-1
EndSplineSet
Position2: "'cpsp' Capital Spacing lookup 0 subtable" dx=10 dy=0 dh=20 dv=0
EndChar

StartChar: Y
Encoding: 89 89 60
Width: 402
GlyphClass: 2
Flags: W
LayerCount: 2
Fore
SplineSet
264 0 m 1,0,-1
 133 0 l 1,1,-1
 133 258 l 1,2,-1
 -15 674 l 1,3,-1
 125 674 l 1,4,-1
 171 513 l 2,5,6
 194 432 194 432 206 370 c 1,7,-1
 208 370 l 1,8,9
 218 433 218 433 239 516 c 2,10,-1
 279 674 l 1,11,-1
 415 674 l 1,12,-1
 264 263 l 1,13,-1
 264 0 l 1,0,-1
EndSplineSet
Position2: "'cpsp' Capital Spacing lookup 0 subtable" dx=10 dy=0 dh=20 dv=0
EndChar

StartChar: Z
Encoding: 90 90 61
Width: 387
GlyphClass: 2
Flags: W
LayerCount: 2
Fore
SplineSet
11 0 m 1,0,-1
 11 77 l 1,1,-1
 224 557 l 1,2,-1
 224 560 l 1,3,-1
 31 560 l 1,4,-1
 31 674 l 1,5,-1
 372 674 l 1,6,-1
 372 577 l 1,7,-1
 168 117 l 1,8,-1
 168 114 l 1,9,-1
 371 114 l 1,10,-1
 371 0 l 1,11,-1
 11 0 l 1,0,-1
EndSplineSet
Position2: "'cpsp' Capital Spacing lookup 0 subtable" dx=10 dy=0 dh=20 dv=0
EndChar

StartChar: bracketleft
Encoding: 91 91 62
Width: 258
GlyphClass: 2
Flags: W
LayerCount: 2
Fore
SplineSet
235 -112 m 1,0,-1
 50 -112 l 1,1,-1
 50 686 l 1,2,-1
 235 686 l 1,3,-1
 235 602 l 1,4,-1
 149 602 l 1,5,-1
 149 -28 l 1,6,-1
 235 -28 l 1,7,-1
 235 -112 l 1,0,-1
EndSplineSet
Substitution2: "'case' Case-Sensitive Forms lookup 6 subtable" uniF6B0
Substitution2: "'aalt' Access All Alternates lookup 0 subtable" uniF6B0
EndChar

StartChar: backslash
Encoding: 92 92 63
Width: 233
GlyphClass: 2
Flags: W
LayerCount: 2
Fore
SplineSet
255 -40 m 1,0,-1
 170 -40 l 1,1,-1
 -17 682 l 1,2,-1
 68 682 l 1,3,-1
 255 -40 l 1,0,-1
EndSplineSet
EndChar

StartChar: bracketright
Encoding: 93 93 64
Width: 258
GlyphClass: 2
Flags: W
LayerCount: 2
Fore
SplineSet
23 686 m 1,0,-1
 208 686 l 1,1,-1
 208 -112 l 1,2,-1
 23 -112 l 1,3,-1
 23 -28 l 1,4,-1
 109 -28 l 1,5,-1
 109 602 l 1,6,-1
 23 602 l 1,7,-1
 23 686 l 1,0,-1
EndSplineSet
Substitution2: "'case' Case-Sensitive Forms lookup 6 subtable" uniF6B1
Substitution2: "'aalt' Access All Alternates lookup 0 subtable" uniF6B1
EndChar

StartChar: asciicircum
Encoding: 94 94 65
Width: 596
GlyphClass: 2
Flags: W
LayerCount: 2
Fore
SplineSet
552 177 m 1,0,-1
 452 177 l 1,1,-1
 300 538 l 1,2,-1
 295 538 l 1,3,-1
 143 177 l 1,4,-1
 44 177 l 1,5,-1
 256 650 l 1,6,-1
 340 650 l 1,7,-1
 552 177 l 1,0,-1
EndSplineSet
EndChar

StartChar: underscore
Encoding: 95 95 66
Width: 500
GlyphClass: 2
Flags: W
LayerCount: 2
Fore
SplineSet
0 -75 m 1,0,-1
 500 -75 l 1,1,-1
 500 -125 l 1,2,-1
 0 -125 l 1,3,-1
 0 -75 l 1,0,-1
EndSplineSet
EndChar

StartChar: grave
Encoding: 96 96 67
Width: 300
GlyphClass: 2
Flags: W
LayerCount: 2
Fore
SplineSet
29 689 m 1,0,-1
 143 689 l 1,1,-1
 212 549 l 1,2,-1
 129 549 l 1,3,-1
 29 689 l 1,0,-1
EndSplineSet
Substitution2: "'case' Case-Sensitive Forms lookup 6 subtable" uniF6CE
Substitution2: "'aalt' Access All Alternates lookup 0 subtable" uniF6CE
EndChar

StartChar: a
Encoding: 97 97 68
Width: 422
GlyphClass: 2
Flags: W
LayerCount: 2
Fore
SplineSet
375 294 m 2,0,-1
 375 112 l 2,1,2
 375 44 375 44 383 0 c 1,3,-1
 265 0 l 1,4,-1
 258 48 l 1,5,-1
 256 48 l 1,6,7
 216 -8 216 -8 148 -8 c 0,8,9
 92 -8 92 -8 55.5 34 c 128,-1,10
 19 76 19 76 19 141 c 0,11,12
 19 202 19 202 52.5 244.5 c 128,-1,13
 86 287 86 287 135 304.5 c 128,-1,14
 184 322 184 322 243 323 c 1,15,-1
 243 334 l 2,16,17
 243 364 243 364 225 382 c 128,-1,18
 207 400 207 400 174 400 c 0,19,20
 119 400 119 400 74 372 c 1,21,-1
 50 460 l 1,22,23
 112 497 112 497 202 497 c 0,24,25
 245 497 245 497 277 485 c 128,-1,26
 309 473 309 473 327.5 454.5 c 128,-1,27
 346 436 346 436 357 408 c 128,-1,28
 368 380 368 380 371.5 353.5 c 128,-1,29
 375 327 375 327 375 294 c 2,0,-1
247 153 m 2,30,-1
 247 238 l 1,31,32
 143 236 143 236 143 155 c 0,33,34
 143 122 143 122 157.5 105 c 128,-1,35
 172 88 172 88 190 88 c 0,36,37
 207 88 207 88 222.5 99 c 128,-1,38
 238 110 238 110 244 130 c 0,39,40
 247 140 247 140 247 153 c 2,30,-1
EndSplineSet
Substitution2: "'ordn' Ordinals lookup 17 subtable" ordfeminine
Substitution2: "'aalt' Access All Alternates lookup 0 subtable" ordfeminine
EndChar

StartChar: b
Encoding: 98 98 69
Width: 447
GlyphClass: 2
Flags: W
LayerCount: 2
Fore
SplineSet
45 145 m 2,0,-1
 45 692 l 1,1,-1
 176 692 l 1,2,-1
 176 440 l 1,3,-1
 178 440 l 1,4,5
 217 497 217 497 280 497 c 0,6,7
 348 497 348 497 383 430 c 128,-1,8
 418 363 418 363 418 258 c 0,9,10
 418 133 418 133 373.5 62.5 c 128,-1,11
 329 -8 329 -8 259 -8 c 0,12,13
 198 -8 198 -8 163 58 c 1,14,-1
 160 58 l 1,15,-1
 153 0 l 1,16,-1
 41 0 l 1,17,18
 45 86 45 86 45 145 c 2,0,-1
176 312 m 2,19,-1
 176 175 l 2,20,21
 176 156 176 156 181 144 c 1,22,23
 195 99 195 99 226 99 c 0,24,25
 288 99 288 99 288 248 c 0,26,27
 288 387 288 387 225 387 c 0,28,29
 211 387 211 387 199 374 c 128,-1,30
 187 361 187 361 181 342 c 0,31,32
 176 329 176 329 176 312 c 2,19,-1
EndSplineSet
EndChar

StartChar: c
Encoding: 99 99 70
Width: 323
GlyphClass: 2
Flags: W
LayerCount: 2
Fore
SplineSet
306 111 m 1,0,-1
 317 8 l 1,1,2
 287 -6 287 -6 234 -6 c 0,3,4
 139 -6 139 -6 84 58 c 128,-1,5
 29 122 29 122 29 240 c 0,6,7
 29 354 29 354 90.5 425 c 128,-1,8
 152 496 152 496 253 496 c 0,9,10
 297 496 297 496 325 483 c 1,11,-1
 308 380 l 1,12,13
 283 389 283 389 259 389 c 0,14,15
 213 389 213 389 186 349 c 128,-1,16
 159 309 159 309 159 244 c 0,17,18
 159 177 159 177 185 139 c 128,-1,19
 211 101 211 101 257 101 c 0,20,21
 286 101 286 101 306 111 c 1,0,-1
EndSplineSet
EndChar

StartChar: d
Encoding: 100 100 71
Width: 447
GlyphClass: 2
Flags: W
LayerCount: 2
Fore
SplineSet
270 692 m 1,0,-1
 401 692 l 1,1,-1
 401 145 l 2,2,3
 401 90 401 90 405 0 c 1,4,-1
 292 0 l 1,5,-1
 285 55 l 1,6,-1
 283 55 l 1,7,8
 269 28 269 28 241 10 c 128,-1,9
 213 -8 213 -8 181 -8 c 0,10,11
 107 -8 107 -8 68 63.5 c 128,-1,12
 29 135 29 135 29 244 c 0,13,14
 29 365 29 365 74.5 431 c 128,-1,15
 120 497 120 497 186 497 c 0,16,17
 247 497 247 497 268 448 c 1,18,-1
 270 448 l 1,19,-1
 270 692 l 1,0,-1
270 172 m 2,20,-1
 270 301 l 2,21,22
 270 320 270 320 269 330 c 0,23,24
 265 354 265 354 252.5 370.5 c 128,-1,25
 240 387 240 387 222 387 c 0,26,27
 159 387 159 387 159 241 c 0,28,29
 159 173 159 173 176 136 c 128,-1,30
 193 99 193 99 221 99 c 0,31,32
 253 99 253 99 266 142 c 1,33,34
 270 151 270 151 270 172 c 2,20,-1
EndSplineSet
EndChar

StartChar: e
Encoding: 101 101 72
Width: 419
GlyphClass: 2
Flags: W
LayerCount: 2
Fore
SplineSet
387 198 m 1,0,-1
 155 198 l 1,1,2
 158 94 158 94 259 94 c 0,3,4
 306 94 306 94 352 110 c 1,5,-1
 370 16 l 1,6,7
 312 -6 312 -6 235 -6 c 0,8,9
 136 -6 136 -6 82.5 57 c 128,-1,10
 29 120 29 120 29 235 c 0,11,12
 29 355 29 355 84.5 426 c 128,-1,13
 140 497 140 497 225 497 c 0,14,15
 304 497 304 497 347.5 437 c 128,-1,16
 391 377 391 377 391 266 c 0,17,18
 391 217 391 217 387 198 c 1,0,-1
156 290 m 1,19,-1
 272 290 l 1,20,21
 272 402 272 402 217 402 c 0,22,23
 188 402 188 402 172.5 367.5 c 128,-1,24
 157 333 157 333 156 290 c 1,19,-1
EndSplineSet
EndChar

StartChar: f
Encoding: 102 102 73
Width: 286
GlyphClass: 2
Flags: W
LayerCount: 2
Fore
SplineSet
200 0 m 1,0,-1
 69 0 l 1,1,-1
 69 396 l 1,2,-1
 3 396 l 1,3,-1
 3 489 l 1,4,-1
 69 489 l 1,5,-1
 69 509 l 2,6,7
 69 604 69 604 119 655 c 0,8,9
 163 700 163 700 236 700 c 0,10,11
 280 700 280 700 315 689 c 1,12,-1
 300 587 l 1,13,14
 285 593 285 593 260 593 c 0,15,16
 229 593 229 593 214.5 570 c 128,-1,17
 200 547 200 547 200 512 c 2,18,-1
 200 489 l 1,19,-1
 285 489 l 1,20,-1
 285 396 l 1,21,-1
 200 396 l 1,22,-1
 200 0 l 1,0,-1
EndSplineSet
EndChar

StartChar: g
Encoding: 103 103 74
Width: 447
GlyphClass: 2
Flags: W
LayerCount: 2
Fore
SplineSet
402 334 m 2,0,-1
 402 55 l 2,1,2
 402 -90 402 -90 343 -146 c 0,3,4
 286 -200 286 -200 184 -200 c 0,5,6
 116 -200 116 -200 62 -177 c 1,7,-1
 86 -76 l 1,8,9
 134 -97 134 -97 180 -97 c 0,10,11
 272 -97 272 -97 272 22 c 2,12,-1
 272 52 l 1,13,-1
 270 52 l 1,14,15
 243 3 243 3 182 3 c 0,16,17
 130 3 130 3 94 39 c 128,-1,18
 58 75 58 75 43.5 126.5 c 128,-1,19
 29 178 29 178 29 240 c 0,20,21
 29 359 29 359 76 428 c 128,-1,22
 123 497 123 497 194 497 c 0,23,24
 255 497 255 497 284 440 c 1,25,-1
 286 440 l 1,26,-1
 293 489 l 1,27,-1
 407 489 l 1,28,29
 402 379 402 379 402 334 c 2,0,-1
272 180 m 2,30,-1
 272 311 l 2,31,32
 272 330 272 330 267 347 c 0,33,34
 256 387 256 387 225 387 c 0,35,36
 192 387 192 387 175.5 347 c 128,-1,37
 159 307 159 307 159 243 c 0,38,39
 159 177 159 177 176 141.5 c 128,-1,40
 193 106 193 106 222 106 c 0,41,42
 253 106 253 106 266 141 c 0,43,44
 272 158 272 158 272 180 c 2,30,-1
EndSplineSet
EndChar

StartChar: h
Encoding: 104 104 75
Width: 458
GlyphClass: 2
Flags: W
LayerCount: 2
Fore
SplineSet
46 0 m 1,0,-1
 46 692 l 1,1,-1
 177 692 l 1,2,-1
 177 438 l 1,3,-1
 179 438 l 1,4,5
 194 462 194 462 221 480 c 1,6,7
 250 497 250 497 287 497 c 0,8,9
 412 497 412 497 412 297 c 2,10,-1
 412 0 l 1,11,-1
 281 0 l 1,12,-1
 281 297 l 2,13,14
 281 387 281 387 233 387 c 0,15,16
 196 387 196 387 182 341 c 1,17,18
 177 321 177 321 177 304 c 2,19,-1
 177 0 l 1,20,-1
 46 0 l 1,0,-1
EndSplineSet
EndChar

StartChar: i
Encoding: 105 105 76
Width: 223
GlyphClass: 2
Flags: W
LayerCount: 2
Fore
SplineSet
177 0 m 1,0,-1
 46 0 l 1,1,-1
 46 489 l 1,2,-1
 177 489 l 1,3,-1
 177 0 l 1,0,-1
110 690 m 0,4,5
 139 690 139 690 158 670.5 c 128,-1,6
 177 651 177 651 177 619 c 1,7,8
 178 588 178 588 158 568 c 128,-1,9
 138 548 138 548 108 548 c 0,10,11
 80 548 80 548 61 568 c 128,-1,12
 42 588 42 588 43 619 c 1,13,14
 42 651 42 651 62 670.5 c 128,-1,15
 82 690 82 690 110 690 c 0,4,5
EndSplineSet
EndChar

StartChar: j
Encoding: 106 106 77
Width: 224
GlyphClass: 2
Flags: W
LayerCount: 2
Fore
SplineSet
-29 -200 m 1,0,-1
 -39 -96 l 1,1,2
 7 -90 7 -90 25 -70 c 1,3,4
 39 -56 39 -56 43 -28 c 128,-1,5
 47 0 47 0 47 60 c 2,6,-1
 47 489 l 1,7,-1
 179 489 l 1,8,-1
 179 35 l 2,9,10
 179 -44 179 -44 163 -88 c 128,-1,11
 147 -132 147 -132 114 -158 c 0,12,13
 62 -200 62 -200 -29 -200 c 1,0,-1
113 690 m 128,-1,15
 142 690 142 690 161 670.5 c 128,-1,16
 180 651 180 651 180 619 c 0,17,18
 180 588 180 588 160.5 568 c 128,-1,19
 141 548 141 548 111 548 c 0,20,21
 83 548 83 548 64 568 c 128,-1,22
 45 588 45 588 46 619 c 1,23,24
 45 651 45 651 64.5 670.5 c 128,-1,14
 84 690 84 690 113 690 c 128,-1,15
EndSplineSet
EndChar

StartChar: k
Encoding: 107 107 78
Width: 413
GlyphClass: 2
Flags: W
LayerCount: 2
Fore
SplineSet
176 692 m 1,0,-1
 176 275 l 1,1,-1
 178 275 l 1,2,3
 192 319 192 319 203 343 c 2,4,-1
 266 489 l 1,5,-1
 407 489 l 1,6,-1
 289 284 l 1,7,-1
 414 0 l 1,8,-1
 268 0 l 1,9,-1
 198 201 l 1,10,-1
 176 159 l 1,11,-1
 176 0 l 1,12,-1
 45 0 l 1,13,-1
 45 692 l 1,14,-1
 176 692 l 1,0,-1
EndSplineSet
EndChar

StartChar: l
Encoding: 108 108 79
Width: 225
GlyphClass: 2
Flags: W
LayerCount: 2
Fore
SplineSet
46 0 m 1,0,-1
 46 692 l 1,1,-1
 177 692 l 1,2,-1
 177 0 l 1,3,-1
 46 0 l 1,0,-1
EndSplineSet
EndChar

StartChar: m
Encoding: 109 109 80
Width: 680
GlyphClass: 2
Flags: W
LayerCount: 2
Fore
SplineSet
46 0 m 1,0,-1
 46 342 l 2,1,2
 46 373 46 373 44 425 c 128,-1,3
 42 477 42 477 42 489 c 1,4,-1
 156 489 l 1,5,-1
 162 432 l 1,6,-1
 164 432 l 1,7,8
 208 497 208 497 281 497 c 0,9,10
 361 497 361 497 388 431 c 1,11,-1
 390 431 l 1,12,13
 409 461 409 461 439 480 c 1,14,15
 470 497 470 497 508 497 c 0,16,17
 634 497 634 497 634 310 c 2,18,-1
 634 0 l 1,19,-1
 504 0 l 1,20,-1
 504 288 l 2,21,22
 504 337 504 337 494.5 363 c 128,-1,23
 485 389 485 389 458 389 c 0,24,25
 423 389 423 389 409 344 c 0,26,27
 405 330 405 330 405 310 c 2,28,-1
 405 0 l 1,29,-1
 275 0 l 1,30,-1
 275 307 l 2,31,32
 275 389 275 389 230 389 c 0,33,34
 195 389 195 389 181 345 c 0,35,36
 176 330 176 330 176 308 c 2,37,-1
 176 0 l 1,38,-1
 46 0 l 1,0,-1
EndSplineSet
EndChar

StartChar: n
Encoding: 110 110 81
Width: 458
GlyphClass: 2
Flags: W
LayerCount: 2
Fore
SplineSet
46 0 m 1,0,-1
 46 342 l 2,1,2
 46 373 46 373 44 425 c 128,-1,3
 42 477 42 477 42 489 c 1,4,-1
 155 489 l 1,5,-1
 161 433 l 1,6,-1
 163 433 l 1,7,8
 206 497 206 497 282 497 c 0,9,10
 412 497 412 497 412 314 c 2,11,-1
 412 0 l 1,12,-1
 281 0 l 1,13,-1
 281 306 l 2,14,15
 281 387 281 387 233 387 c 0,16,17
 198 387 198 387 184 343 c 1,18,19
 177 326 177 326 177 298 c 2,20,-1
 177 0 l 1,21,-1
 46 0 l 1,0,-1
EndSplineSet
EndChar

StartChar: o
Encoding: 111 111 82
Width: 431
GlyphClass: 2
Flags: W
LayerCount: 2
Fore
SplineSet
218 497 m 0,0,1
 304 497 304 497 353.5 429.5 c 128,-1,2
 403 362 403 362 403 246 c 0,3,4
 403 174 403 174 384.5 121 c 128,-1,5
 366 68 366 68 336.5 41.5 c 128,-1,6
 307 15 307 15 277 3.5 c 128,-1,7
 247 -8 247 -8 216 -8 c 0,8,9
 128 -8 128 -8 78.5 58 c 128,-1,10
 29 124 29 124 29 243 c 0,11,12
 29 367 29 367 84 432 c 128,-1,13
 139 497 139 497 218 497 c 0,0,1
217 398 m 0,14,15
 159 398 159 398 159 246 c 0,16,17
 159 92 159 92 219 92 c 0,18,19
 272 92 272 92 272 246 c 0,20,21
 272 398 272 398 217 398 c 0,14,15
EndSplineSet
Substitution2: "'ordn' Ordinals lookup 17 subtable" ordmasculine
Substitution2: "'aalt' Access All Alternates lookup 0 subtable" ordmasculine
EndChar

StartChar: p
Encoding: 112 112 83
Width: 447
GlyphClass: 2
Flags: W
LayerCount: 2
Fore
SplineSet
45 -192 m 1,0,-1
 45 334 l 2,1,2
 45 397 45 397 41 489 c 1,3,-1
 155 489 l 1,4,-1
 162 433 l 1,5,-1
 164 433 l 1,6,7
 196 497 196 497 266 497 c 0,8,9
 342 497 342 497 380 426 c 128,-1,10
 418 355 418 355 418 245 c 0,11,12
 418 122 418 122 372 57 c 128,-1,13
 326 -8 326 -8 259 -8 c 0,14,15
 207 -8 207 -8 178 40 c 1,16,-1
 176 40 l 1,17,-1
 176 -192 l 1,18,-1
 45 -192 l 1,0,-1
176 310 m 2,19,-1
 176 179 l 2,20,21
 176 151 176 151 183 137 c 1,22,23
 196 99 196 99 225 99 c 0,24,25
 287 99 287 99 287 244 c 0,26,27
 287 387 287 387 226 387 c 0,28,29
 211 387 211 387 198.5 374.5 c 128,-1,30
 186 362 186 362 182 345 c 1,31,32
 176 333 176 333 176 310 c 2,19,-1
EndSplineSet
EndChar

StartChar: q
Encoding: 113 113 84
Width: 447
GlyphClass: 2
Flags: W
LayerCount: 2
Fore
SplineSet
271 -192 m 1,0,-1
 271 42 l 1,1,-1
 269 42 l 1,2,3
 235 -8 235 -8 176 -8 c 0,4,5
 108 -8 108 -8 68.5 61.5 c 128,-1,6
 29 131 29 131 29 234 c 0,7,8
 29 355 29 355 75.5 426 c 128,-1,9
 122 497 122 497 194 497 c 0,10,11
 256 497 256 497 284 438 c 1,12,-1
 286 437 l 1,13,-1
 293 489 l 1,14,-1
 406 489 l 1,15,16
 402 401 402 401 402 334 c 2,17,-1
 402 -192 l 1,18,-1
 271 -192 l 1,0,-1
271 174 m 2,19,-1
 271 310 l 2,20,21
 271 328 271 328 267 339 c 1,22,23
 262 361 262 361 249.5 374 c 128,-1,24
 237 387 237 387 222 387 c 0,25,26
 160 387 160 387 160 244 c 0,27,28
 160 176 160 176 176 137.5 c 128,-1,29
 192 99 192 99 222 99 c 0,30,31
 254 99 254 99 266 142 c 1,32,33
 271 156 271 156 271 174 c 2,19,-1
EndSplineSet
EndChar

StartChar: r
Encoding: 114 114 85
Width: 294
GlyphClass: 2
Flags: W
LayerCount: 2
Fore
SplineSet
45 0 m 1,0,-1
 45 342 l 2,1,2
 45 399 45 399 41 489 c 1,3,-1
 155 489 l 1,4,-1
 162 418 l 1,5,-1
 165 418 l 1,6,7
 181 456 181 456 207.5 476.5 c 128,-1,8
 234 497 234 497 262 497 c 0,9,10
 282 497 282 497 290 495 c 1,11,-1
 290 365 l 1,12,13
 282 367 282 367 262 367 c 0,14,15
 238 367 238 367 215 349.5 c 128,-1,16
 192 332 192 332 182 297 c 0,17,18
 177 279 177 279 177 248 c 2,19,-1
 177 0 l 1,20,-1
 45 0 l 1,0,-1
EndSplineSet
EndChar

StartChar: s
Encoding: 115 115 86
Width: 324
GlyphClass: 2
Flags: W
LayerCount: 2
Fore
SplineSet
18 22 m 1,0,-1
 42 118 l 1,1,2
 83 92 83 92 130 92 c 0,3,4
 183 92 183 92 183 136 c 0,5,6
 183 155 183 155 170.5 169 c 128,-1,7
 158 183 158 183 126 202 c 0,8,9
 27 258 27 258 27 343 c 0,10,11
 27 410 27 410 71.5 453.5 c 128,-1,12
 116 497 116 497 188 497 c 0,13,14
 239 497 239 497 287 475 c 1,15,-1
 264 379 l 1,16,17
 229 399 229 399 196 399 c 0,18,19
 172 399 172 399 159.5 387 c 128,-1,20
 147 375 147 375 147 357 c 0,21,22
 147 340 147 340 158.5 328 c 128,-1,23
 170 316 170 316 204 296 c 0,24,25
 303 240 303 240 303 148 c 0,26,27
 303 75 303 75 255.5 34.5 c 128,-1,28
 208 -6 208 -6 130 -6 c 0,29,30
 56 -6 56 -6 18 22 c 1,0,-1
EndSplineSet
EndChar

StartChar: t
Encoding: 116 116 87
Width: 311
GlyphClass: 2
Flags: W
LayerCount: 2
Fore
SplineSet
69 576 m 1,0,-1
 200 617 l 1,1,-1
 200 489 l 1,2,-1
 296 489 l 1,3,-1
 296 396 l 1,4,-1
 200 396 l 1,5,-1
 200 173 l 2,6,7
 200 102 200 102 250 102 c 0,8,9
 268 102 268 102 284 105 c 1,10,-1
 285 3 l 1,11,12
 253 -6 253 -6 205 -6 c 0,13,14
 143 -6 143 -6 111 25 c 0,15,16
 69 65 69 65 69 165 c 2,17,-1
 69 396 l 1,18,-1
 11 396 l 1,19,-1
 11 489 l 1,20,-1
 69 489 l 1,21,-1
 69 576 l 1,0,-1
EndSplineSet
EndChar

StartChar: u
Encoding: 117 117 88
Width: 452
GlyphClass: 2
Flags: W
LayerCount: 2
Fore
SplineSet
404 489 m 1,0,-1
 404 149 l 2,1,2
 404 92 404 92 408 0 c 1,3,-1
 295 0 l 1,4,-1
 288 52 l 1,5,-1
 286 52 l 1,6,7
 244 -8 244 -8 173 -8 c 0,8,9
 105 -8 105 -8 73.5 42 c 128,-1,10
 42 92 42 92 42 193 c 2,11,-1
 42 489 l 1,12,-1
 174 489 l 1,13,-1
 174 207 l 2,14,15
 174 102 174 102 223 102 c 0,16,17
 253 102 253 102 265 135 c 1,18,19
 273 151 273 151 273 177 c 2,20,-1
 273 489 l 1,21,-1
 404 489 l 1,0,-1
EndSplineSet
EndChar

StartChar: v
Encoding: 118 118 89
Width: 395
GlyphClass: 2
Flags: W
LayerCount: 2
Fore
SplineSet
5 489 m 1,0,-1
 144 489 l 1,1,-1
 181 271 l 1,2,3
 196 176 196 176 202 134 c 1,4,-1
 204 134 l 1,5,6
 211 191 211 191 223 271 c 1,7,-1
 261 489 l 1,8,-1
 390 489 l 1,9,-1
 259 0 l 1,10,-1
 138 0 l 1,11,-1
 5 489 l 1,0,-1
EndSplineSet
EndChar

StartChar: w
Encoding: 119 119 90
Width: 616
GlyphClass: 2
Flags: W
LayerCount: 2
Fore
SplineSet
5 489 m 1,0,-1
 145 489 l 1,1,-1
 171 278 l 2,2,3
 183 186 183 186 188 130 c 1,4,-1
 191 130 l 1,5,6
 204 202 204 202 218 276 c 2,7,-1
 261 489 l 1,8,-1
 362 489 l 1,9,-1
 404 281 l 1,10,11
 424 173 424 173 429 130 c 1,12,-1
 432 130 l 1,13,14
 436 196 436 196 449 280 c 2,15,-1
 479 489 l 1,16,-1
 608 489 l 1,17,-1
 482 0 l 1,18,-1
 371 0 l 1,19,-1
 334 171 l 2,20,21
 317 245 317 245 309 323 c 1,22,-1
 307 323 l 1,23,24
 300 258 300 258 279 170 c 2,25,-1
 237 0 l 1,26,-1
 125 0 l 1,27,-1
 5 489 l 1,0,-1
EndSplineSet
EndChar

StartChar: x
Encoding: 120 120 91
Width: 396
GlyphClass: 2
Flags: W
LayerCount: 2
Fore
SplineSet
7 489 m 1,0,-1
 149 489 l 1,1,-1
 179 402 l 2,2,3
 192 365 192 365 203 320 c 1,4,-1
 205 320 l 1,5,6
 227 400 227 400 228 402 c 2,7,-1
 257 489 l 1,8,-1
 389 489 l 1,9,-1
 278 249 l 1,10,-1
 391 0 l 1,11,-1
 248 0 l 1,12,-1
 215 92 l 2,13,14
 202 130 202 130 191 167 c 1,15,-1
 189 167 l 1,16,17
 186 153 186 153 177.5 126.5 c 128,-1,18
 169 100 169 100 167 92 c 2,19,-1
 137 0 l 1,20,-1
 6 0 l 1,21,-1
 115 243 l 1,22,-1
 7 489 l 1,0,-1
EndSplineSet
EndChar

StartChar: y
Encoding: 121 121 92
Width: 391
GlyphClass: 2
Flags: W
LayerCount: 2
Fore
SplineSet
5 489 m 1,0,-1
 146 489 l 1,1,-1
 194 235 l 2,2,3
 198 214 198 214 207 153 c 1,4,-1
 209 153 l 1,5,6
 211 165 211 165 221 233 c 2,7,-1
 262 489 l 1,8,-1
 390 489 l 1,9,-1
 290 112 l 2,10,11
 244 -63 244 -63 181 -138 c 0,12,13
 131 -197 131 -197 70 -215 c 1,14,-1
 30 -102 l 1,15,16
 62 -91 62 -91 95 -61 c 1,17,18
 122 -35 122 -35 136 -3 c 0,19,20
 143 13 143 13 143 18 c 0,21,22
 143 24 143 24 139 36 c 2,23,-1
 5 489 l 1,0,-1
EndSplineSet
EndChar

StartChar: z
Encoding: 122 122 93
Width: 351
GlyphClass: 2
Flags: W
LayerCount: 2
Fore
SplineSet
18 0 m 1,0,-1
 18 82 l 1,1,-1
 138 300 l 2,2,3
 143 308 143 308 161 338 c 128,-1,4
 179 368 179 368 184 379 c 1,5,-1
 184 382 l 1,6,-1
 33 382 l 1,7,-1
 33 489 l 1,8,-1
 327 489 l 1,9,-1
 327 400 l 1,10,-1
 210 190 l 2,11,12
 204 180 204 180 193.5 162.5 c 128,-1,13
 183 145 183 145 175.5 132 c 128,-1,14
 168 119 168 119 163 110 c 1,15,-1
 163 107 l 1,16,-1
 331 107 l 1,17,-1
 331 0 l 1,18,-1
 18 0 l 1,0,-1
EndSplineSet
EndChar

StartChar: braceleft
Encoding: 123 123 94
Width: 258
GlyphClass: 2
Flags: W
LayerCount: 2
Fore
SplineSet
10 248 m 1,0,-1
 10 327 l 1,1,2
 76 327 76 327 76 384 c 0,3,4
 76 409 76 409 70 461 c 128,-1,5
 64 513 64 513 64 541 c 0,6,7
 64 612 64 612 104 649 c 128,-1,8
 144 686 144 686 216 686 c 2,9,-1
 235 686 l 1,10,-1
 235 605 l 1,11,-1
 220 605 l 1,12,13
 166 601 166 601 166 537 c 0,14,15
 166 513 166 513 170 471 c 128,-1,16
 174 429 174 429 174 412 c 0,17,18
 174 314 174 314 98 290 c 1,19,-1
 98 288 l 1,20,21
 174 264 174 264 174 164 c 0,22,23
 174 145 174 145 170 101 c 0,24,25
 166 61 166 61 166 39 c 0,26,27
 166 -26 166 -26 222 -31 c 1,28,-1
 235 -31 l 1,29,-1
 235 -112 l 1,30,-1
 214 -112 l 2,31,32
 147 -112 147 -112 105.5 -77.5 c 128,-1,33
 64 -43 64 -43 64 32 c 0,34,35
 64 59 64 59 70 113 c 0,36,37
 76 165 76 165 76 192 c 0,38,39
 76 215 76 215 61 231.5 c 128,-1,40
 46 248 46 248 10 248 c 1,0,-1
EndSplineSet
Substitution2: "'case' Case-Sensitive Forms lookup 6 subtable" uniF6B2
Substitution2: "'aalt' Access All Alternates lookup 0 subtable" uniF6B2
EndChar

StartChar: bar
Encoding: 124 124 95
Width: 218
GlyphClass: 2
Flags: W
LayerCount: 2
Fore
SplineSet
61 750 m 1,0,-1
 158 750 l 1,1,-1
 158 -250 l 1,2,-1
 61 -250 l 1,3,-1
 61 750 l 1,0,-1
EndSplineSet
EndChar

StartChar: braceright
Encoding: 125 125 96
Width: 258
GlyphClass: 2
Flags: W
LayerCount: 2
Fore
SplineSet
248 327 m 1,0,-1
 248 248 l 1,1,2
 212 248 212 248 197 231.5 c 128,-1,3
 182 215 182 215 182 192 c 0,4,5
 182 165 182 165 188 113 c 0,6,7
 194 59 194 59 194 32 c 0,8,9
 194 -43 194 -43 152.5 -77.5 c 128,-1,10
 111 -112 111 -112 44 -112 c 2,11,-1
 23 -112 l 1,12,-1
 23 -31 l 1,13,-1
 36 -31 l 1,14,15
 92 -26 92 -26 92 39 c 0,16,17
 92 61 92 61 88 101 c 0,18,19
 84 145 84 145 84 164 c 0,20,21
 84 264 84 264 160 288 c 1,22,-1
 160 290 l 1,23,24
 84 314 84 314 84 412 c 0,25,26
 84 429 84 429 88 471 c 128,-1,27
 92 513 92 513 92 537 c 0,28,29
 92 601 92 601 38 605 c 1,30,-1
 23 605 l 1,31,-1
 23 686 l 1,32,-1
 41 686 l 2,33,34
 113 686 113 686 153.5 649 c 128,-1,35
 194 612 194 612 194 541 c 0,36,37
 194 513 194 513 188 461 c 128,-1,38
 182 409 182 409 182 384 c 0,39,40
 182 327 182 327 248 327 c 1,0,-1
EndSplineSet
Substitution2: "'case' Case-Sensitive Forms lookup 6 subtable" uniF6B3
Substitution2: "'aalt' Access All Alternates lookup 0 subtable" uniF6B3
EndChar

StartChar: asciitilde
Encoding: 126 126 97
Width: 596
GlyphClass: 2
Flags: W
LayerCount: 2
Fore
SplineSet
141 201 m 1,0,-1
 57 201 l 1,1,2
 56 288 56 288 96 329 c 128,-1,3
 136 370 136 370 192 370 c 0,4,5
 244 370 244 370 325 320 c 0,6,7
 366 295 366 295 382 287 c 128,-1,8
 398 279 398 279 413 279 c 0,9,10
 456 279 456 279 456 361 c 1,11,-1
 539 361 l 1,12,13
 543 280 543 280 511 235.5 c 128,-1,14
 479 191 479 191 417 191 c 0,15,16
 384 191 384 191 357 200.5 c 128,-1,17
 330 210 330 210 286 237 c 0,18,19
 211 284 211 284 187 284 c 0,20,21
 141 284 141 284 141 201 c 1,0,-1
EndSplineSet
EndChar

StartChar: exclamdown
Encoding: 161 161 99
Width: 236
GlyphClass: 2
Flags: W
LayerCount: 2
Fore
SplineSet
190 -191 m 1,0,-1
 47 -191 l 1,1,-1
 62 264 l 1,2,-1
 174 264 l 1,3,-1
 190 -191 l 1,0,-1
118 493 m 2,4,-1
 119 493 l 2,5,6
 151 493 151 493 172 470.5 c 128,-1,7
 193 448 193 448 193 412 c 0,8,9
 193 377 193 377 172.5 354.5 c 128,-1,10
 152 332 152 332 119 332 c 0,11,12
 87 332 87 332 65 355 c 128,-1,13
 43 378 43 378 43 412 c 0,14,15
 43 448 43 448 65 470.5 c 128,-1,16
 87 493 87 493 118 493 c 2,4,-1
EndSplineSet
Substitution2: "'case' Case-Sensitive Forms lookup 6 subtable" uniF6B4
Substitution2: "'aalt' Access All Alternates lookup 0 subtable" uniF6B4
EndChar

StartChar: cent
Encoding: 162 162 100
Width: 426
GlyphClass: 2
Flags: W
LayerCount: 2
Fore
SplineSet
296 -7 m 1,0,-1
 212 -7 l 1,1,-1
 212 93 l 1,2,3
 143 109 143 109 102 161 c 1,4,5
 55 223 55 223 55 324 c 0,6,7
 55 412 55 412 98.5 474.5 c 128,-1,8
 142 537 142 537 214 555 c 1,9,-1
 214 656 l 1,10,-1
 298 656 l 1,11,-1
 298 562 l 1,12,13
 342 559 342 559 368 545 c 1,14,-1
 352 445 l 1,15,16
 320 461 320 461 277 461 c 0,17,18
 235 461 235 461 210 421.5 c 128,-1,19
 185 382 185 382 185 322 c 0,20,21
 185 261 185 261 212.5 224.5 c 128,-1,22
 240 188 240 188 283 188 c 0,23,24
 327 188 327 188 362 203 c 1,25,-1
 372 105 l 1,26,27
 345 91 345 91 296 90 c 1,28,-1
 296 -7 l 1,0,-1
EndSplineSet
Substitution2: "'frac' Diagonal Fractions lookup 19 subtable" uniF62E
Substitution2: "'dnom' Denominators lookup 13 subtable" uniF629
Substitution2: "'numr' Numerators lookup 12 subtable" uniF62E
Substitution2: "'sinf' Scientific Inferiors lookup 11 subtable" uniF6DF
Substitution2: "'sups' Superscript lookup 10 subtable" uniF6E0
Substitution2: "'onum' Oldstyle Figures lookup 5 subtable" uniF654
AlternateSubs2: "'aalt' Access All Alternates lookup 1 subtable" uniF654 uniF6E0 uniF6DF uniF62E uniF629
EndChar

StartChar: sterling
Encoding: 163 163 101
Width: 426
GlyphClass: 2
Flags: W
LayerCount: 2
Fore
SplineSet
384 0 m 1,0,-1
 36 0 l 1,1,-1
 36 82 l 1,2,3
 78 99 78 99 101.5 141 c 128,-1,4
 125 183 125 183 125 227 c 0,5,6
 125 265 125 265 122 281 c 1,7,-1
 43 281 l 1,8,-1
 43 368 l 1,9,-1
 108 368 l 1,10,11
 97 415 97 415 97 465 c 0,12,13
 97 547 97 547 147 602.5 c 128,-1,14
 197 658 197 658 282 658 c 0,15,16
 331 658 331 658 365 641 c 1,17,-1
 345 535 l 1,18,19
 319 548 319 548 289 548 c 0,20,21
 256 548 256 548 238.5 526 c 128,-1,22
 221 504 221 504 221 468 c 0,23,24
 221 428 221 428 232 368 c 1,25,-1
 336 368 l 1,26,-1
 336 281 l 1,27,-1
 244 281 l 1,28,29
 247 231 247 231 235 193 c 1,30,31
 217 142 217 142 185 112 c 1,32,-1
 185 110 l 1,33,-1
 384 110 l 1,34,-1
 384 0 l 1,0,-1
EndSplineSet
Substitution2: "'onum' Oldstyle Figures lookup 5 subtable" uniF651
Substitution2: "'aalt' Access All Alternates lookup 0 subtable" uniF651
EndChar

StartChar: currency
Encoding: 164 164 102
Width: 426
GlyphClass: 2
Flags: W
LayerCount: 2
Fore
SplineSet
214 536 m 2,0,-1
 215 536 l 2,1,2
 274 536 274 536 313 500 c 1,3,-1
 378 575 l 1,4,-1
 432 519 l 1,5,-1
 354 443 l 1,6,7
 376 393 376 393 376 328 c 0,8,9
 376 261 376 261 353 213 c 1,10,-1
 431 132 l 1,11,-1
 377 77 l 1,12,-1
 310 154 l 1,13,14
 267 116 267 116 210 116 c 128,-1,15
 153 116 153 116 112 152 c 1,16,-1
 50 77 l 1,17,-1
 -4 132 l 1,18,-1
 69 207 l 1,19,20
 45 255 45 255 45 322 c 0,21,22
 45 391 45 391 72 443 c 1,23,-1
 -6 518 l 1,24,-1
 50 576 l 1,25,-1
 114 497 l 1,26,27
 156 536 156 536 214 536 c 2,0,-1
211 445 m 2,28,-1
 210 445 l 2,29,30
 156 445 156 445 156 324 c 0,31,32
 156 274 156 274 170.5 240.5 c 128,-1,33
 185 207 185 207 211 207 c 0,34,35
 264 207 264 207 264 326 c 128,-1,36
 264 445 264 445 211 445 c 2,28,-1
EndSplineSet
EndChar

StartChar: yen
Encoding: 165 165 103
Width: 426
GlyphClass: 2
Flags: W
LayerCount: 2
Fore
SplineSet
272 0 m 1,0,-1
 152 0 l 1,1,-1
 152 165 l 1,2,-1
 22 165 l 1,3,-1
 22 232 l 1,4,-1
 152 232 l 1,5,-1
 152 291 l 1,6,-1
 22 291 l 1,7,-1
 22 358 l 1,8,-1
 124 358 l 1,9,-1
 6 650 l 1,10,-1
 135 650 l 1,11,-1
 188 469 l 1,12,13
 211 396 211 396 217 361 c 1,14,-1
 219 361 l 1,15,16
 231 415 231 415 247 471 c 2,17,-1
 300 650 l 1,18,-1
 421 650 l 1,19,-1
 300 358 l 1,20,-1
 403 358 l 1,21,-1
 403 291 l 1,22,-1
 272 291 l 1,23,-1
 272 232 l 1,24,-1
 403 232 l 1,25,-1
 403 165 l 1,26,-1
 272 165 l 1,27,-1
 272 0 l 1,0,-1
EndSplineSet
Substitution2: "'onum' Oldstyle Figures lookup 5 subtable" uniF652
Substitution2: "'aalt' Access All Alternates lookup 0 subtable" uniF652
EndChar

StartChar: brokenbar
Encoding: 166 166 104
Width: 218
GlyphClass: 2
Flags: W
LayerCount: 2
Fore
SplineSet
61 174 m 1,0,-1
 158 174 l 1,1,-1
 158 -176 l 1,2,-1
 61 -176 l 1,3,-1
 61 174 l 1,0,-1
61 674 m 1,4,-1
 158 674 l 1,5,-1
 158 324 l 1,6,-1
 61 324 l 1,7,-1
 61 674 l 1,4,-1
EndSplineSet
EndChar

StartChar: section
Encoding: 167 167 105
Width: 431
GlyphClass: 2
Flags: W
LayerCount: 2
Fore
SplineSet
127 350 m 2,0,-1
 127 349 l 2,1,2
 127 309 127 309 201 277 c 0,3,4
 248 257 248 257 281 234 c 1,5,6
 291 241 291 241 298.5 257 c 128,-1,7
 306 273 306 273 306 288 c 0,8,9
 306 333 306 333 247 359 c 0,10,11
 184 386 184 386 159 403 c 1,12,13
 127 383 127 383 127 350 c 2,0,-1
356 657 m 1,14,-1
 336 575 l 1,15,16
 295 597 295 597 242 597 c 0,17,18
 214 597 214 597 195.5 584.5 c 128,-1,19
 177 572 177 572 177 551 c 0,20,21
 177 525 177 525 192.5 511 c 128,-1,22
 208 497 208 497 252 481 c 1,23,24
 324 452 324 452 361 416.5 c 128,-1,25
 398 381 398 381 398 316 c 0,26,27
 398 246 398 246 341 189 c 1,28,29
 373 159 373 159 373 106 c 0,30,31
 373 35 373 35 323 -7.5 c 128,-1,32
 273 -50 273 -50 196 -50 c 0,33,34
 106 -50 106 -50 59 -18 c 1,35,-1
 82 67 l 1,36,37
 134 35 134 35 196 35 c 0,38,39
 228 35 228 35 247 48.5 c 128,-1,40
 266 62 266 62 266 88 c 0,41,42
 266 111 266 111 245.5 128.5 c 128,-1,43
 225 146 225 146 173 168 c 0,44,45
 105 198 105 198 69 235 c 128,-1,46
 33 272 33 272 33 329 c 0,47,48
 33 396 33 396 102 449 c 1,49,50
 70 484 70 484 69 532 c 1,51,52
 69 600 69 600 119.5 641 c 128,-1,53
 170 682 170 682 248 682 c 0,54,55
 312 682 312 682 356 657 c 1,14,-1
EndSplineSet
EndChar

StartChar: dieresis
Encoding: 168 168 106
Width: 300
GlyphClass: 2
Flags: W
LayerCount: 2
Fore
SplineSet
61 560 m 2,0,-1
 60 560 l 2,1,2
 36 560 36 560 18.5 578.5 c 128,-1,3
 1 597 1 597 1 624 c 128,-1,4
 1 651 1 651 18.5 669.5 c 128,-1,5
 36 688 36 688 61 688 c 0,6,7
 87 688 87 688 104 670 c 128,-1,8
 121 652 121 652 121 624 c 128,-1,9
 121 596 121 596 104 578 c 128,-1,10
 87 560 87 560 61 560 c 2,0,-1
239 560 m 2,11,-1
 238 560 l 2,12,13
 213 560 213 560 195.5 578.5 c 128,-1,14
 178 597 178 597 178 624 c 128,-1,15
 178 651 178 651 196 669.5 c 128,-1,16
 214 688 214 688 239 688 c 128,-1,17
 264 688 264 688 281 670 c 128,-1,18
 298 652 298 652 298 624 c 128,-1,19
 298 596 298 596 281.5 578 c 128,-1,20
 265 560 265 560 239 560 c 2,11,-1
EndSplineSet
Substitution2: "'case' Case-Sensitive Forms lookup 6 subtable" uniF6CB
Substitution2: "'aalt' Access All Alternates lookup 0 subtable" uniF6CB
EndChar

StartChar: copyright
Encoding: 169 169 107
Width: 677
GlyphClass: 2
Flags: W
LayerCount: 2
Fore
SplineSet
340 648 m 2,0,-1
 341 648 l 2,1,2
 468 648 468 648 557 558 c 128,-1,3
 646 468 646 468 646 340 c 0,4,5
 646 211 646 211 557 120.5 c 128,-1,6
 468 30 468 30 340 30 c 0,7,8
 211 30 211 30 121 120.5 c 128,-1,9
 31 211 31 211 31 340 c 0,10,11
 31 468 31 468 121 558 c 128,-1,12
 211 648 211 648 340 648 c 2,0,-1
339 592 m 2,13,-1
 338 592 l 2,14,15
 237 592 237 592 166.5 518 c 128,-1,16
 96 444 96 444 96 339 c 128,-1,17
 96 234 96 234 166.5 160 c 128,-1,18
 237 86 237 86 339 86 c 1,19,20
 440 85 440 85 510.5 159.5 c 128,-1,21
 581 234 581 234 581 339 c 128,-1,22
 581 444 581 444 510.5 518 c 128,-1,23
 440 592 440 592 339 592 c 2,13,-1
474 494 m 1,24,-1
 459 440 l 1,25,26
 420 461 420 461 366 461 c 0,27,28
 309 461 309 461 274.5 427 c 128,-1,29
 240 393 240 393 240 336 c 0,30,31
 240 280 240 280 273.5 246 c 128,-1,32
 307 212 307 212 362 212 c 0,33,34
 415 212 415 212 457 233 c 1,35,-1
 472 181 l 1,36,37
 420 153 420 153 351 153 c 0,38,39
 268 153 268 153 218.5 204.5 c 128,-1,40
 169 256 169 256 169 334 c 0,41,42
 169 419 169 419 225 469.5 c 128,-1,43
 281 520 281 520 369 520 c 0,44,45
 401 520 401 520 432 511.5 c 128,-1,46
 463 503 463 503 474 494 c 1,24,-1
EndSplineSet
EndChar

StartChar: ordfeminine
Encoding: 170 170 108
Width: 302
GlyphClass: 2
Flags: W
LayerCount: 2
Fore
SplineSet
268 263 m 1,0,-1
 197 263 l 1,1,-1
 192 296 l 1,2,-1
 190 296 l 1,3,4
 163 258 163 258 116 258 c 0,5,6
 79 258 79 258 55 284.5 c 128,-1,7
 31 311 31 311 31 354 c 0,8,9
 31 413 31 413 74.5 442 c 128,-1,10
 118 471 118 471 182 472 c 1,11,-1
 182 480 l 2,12,13
 182 496 182 496 169.5 507.5 c 128,-1,14
 157 519 157 519 131 519 c 0,15,16
 96 519 96 519 67 501 c 1,17,-1
 53 562 l 1,18,19
 95 588 95 588 146 588 c 0,20,21
 264 588 264 588 264 451 c 2,22,-1
 264 338 l 2,23,24
 264 294 264 294 268 263 c 1,0,-1
184 362 m 2,25,-1
 184 415 l 1,26,27
 109 415 109 415 109 363 c 0,28,29
 109 346 109 346 119 335.5 c 128,-1,30
 129 325 129 325 144 325 c 0,31,32
 167 325 167 325 178 345 c 0,33,34
 184 355 184 355 184 362 c 2,25,-1
EndSplineSet
EndChar

StartChar: guillemotleft
Encoding: 171 171 109
Width: 383
GlyphClass: 2
Flags: W
LayerCount: 2
Fore
SplineSet
216 437 m 1,0,-1
 108 252 l 1,1,-1
 216 67 l 1,2,-1
 121 67 l 1,3,-1
 16 252 l 1,4,-1
 121 437 l 1,5,-1
 216 437 l 1,0,-1
376 437 m 1,6,-1
 268 252 l 1,7,-1
 376 67 l 1,8,-1
 282 67 l 1,9,-1
 176 252 l 1,10,-1
 281 437 l 1,11,-1
 376 437 l 1,6,-1
EndSplineSet
Substitution2: "'case' Case-Sensitive Forms lookup 6 subtable" uniF6B6
Substitution2: "'aalt' Access All Alternates lookup 0 subtable" uniF6B6
EndChar

StartChar: logicalnot
Encoding: 172 172 110
Width: 596
GlyphClass: 2
Flags: W
LayerCount: 2
Fore
SplineSet
40 421 m 1,0,-1
 556 421 l 1,1,-1
 556 106 l 1,2,-1
 473 106 l 1,3,-1
 473 339 l 1,4,-1
 40 339 l 1,5,-1
 40 421 l 1,0,-1
EndSplineSet
EndChar

StartChar: uni00AD
Encoding: 173 173 111
Width: 291
GlyphClass: 2
Flags: W
LayerCount: 2
Fore
SplineSet
30 323 m 1,0,-1
 229 323 l 1,1,-1
 229 229 l 1,2,-1
 30 229 l 1,3,-1
 30 323 l 1,0,-1
EndSplineSet
Substitution2: "'frac' Diagonal Fractions lookup 19 subtable" uniF630
EndChar

StartChar: registered
Encoding: 174 174 112
Width: 374
GlyphClass: 2
Flags: W
LayerCount: 2
Fore
SplineSet
167 503 m 1,0,-1
 167 449 l 1,1,-1
 126 449 l 1,2,-1
 126 596 l 1,3,4
 153 602 153 602 186 602 c 0,5,6
 222 602 222 602 241 590 c 0,7,8
 256 580 256 580 256 557 c 0,9,10
 256 546 256 546 247 537 c 128,-1,11
 238 528 238 528 223 524 c 1,12,-1
 223 522 l 1,13,14
 246 515 246 515 253 484 c 0,15,16
 258 460 258 460 262 449 c 1,17,-1
 217 449 l 1,18,19
 212 455 212 455 206 480 c 1,20,21
 203 503 203 503 182 503 c 2,22,-1
 167 503 l 1,0,-1
169 568 m 1,23,-1
 169 533 l 1,24,-1
 182 533 l 2,25,26
 209 533 209 533 209 551 c 0,27,28
 209 570 209 570 184 570 c 0,29,30
 175 570 175 570 169 568 c 1,23,-1
187 685 m 2,31,-1
 188 685 l 2,32,33
 254 685 254 685 300.5 638 c 128,-1,34
 347 591 347 591 347 525 c 0,35,36
 347 458 347 458 300.5 411 c 128,-1,37
 254 364 254 364 187 364 c 128,-1,38
 120 364 120 364 73.5 411 c 128,-1,39
 27 458 27 458 27 525 c 0,40,41
 27 591 27 591 73.5 638 c 128,-1,42
 120 685 120 685 187 685 c 2,31,-1
187 646 m 2,43,-1
 186 646 l 2,44,45
 138 646 138 646 106 610.5 c 128,-1,46
 74 575 74 575 74 524 c 128,-1,47
 74 473 74 473 106.5 438.5 c 128,-1,48
 139 404 139 404 187 404 c 0,49,50
 235 403 235 403 267.5 438.5 c 128,-1,51
 300 474 300 474 300 525 c 128,-1,52
 300 576 300 576 267.5 611 c 128,-1,53
 235 646 235 646 187 646 c 2,43,-1
EndSplineSet
EndChar

StartChar: macron
Encoding: 175 175 113
Width: 300
GlyphClass: 2
Flags: W
LayerCount: 2
Fore
SplineSet
44 656 m 1,0,-1
 257 656 l 1,1,-1
 257 582 l 1,2,-1
 44 582 l 1,3,-1
 44 656 l 1,0,-1
EndSplineSet
Substitution2: "'case' Case-Sensitive Forms lookup 6 subtable" uniF6D0
Substitution2: "'aalt' Access All Alternates lookup 0 subtable" uniF6D0
EndChar

StartChar: degree
Encoding: 176 176 114
Width: 287
GlyphClass: 2
Flags: W
LayerCount: 2
Fore
SplineSet
147 683 m 2,0,-1
 148 683 l 2,1,2
 202 683 202 683 234.5 648.5 c 128,-1,3
 267 614 267 614 267 564 c 0,4,5
 267 508 267 508 229 474.5 c 128,-1,6
 191 441 191 441 145 441 c 0,7,8
 93 441 93 441 59.5 474.5 c 128,-1,9
 26 508 26 508 26 558 c 0,10,11
 26 610 26 610 63 646.5 c 128,-1,12
 100 683 100 683 147 683 c 2,0,-1
147 631 m 2,13,-1
 146 631 l 2,14,15
 122 631 122 631 103.5 609.5 c 128,-1,16
 85 588 85 588 85 559 c 0,17,18
 85 531 85 531 103.5 511.5 c 128,-1,19
 122 492 122 492 147 492 c 0,20,21
 173 492 173 492 191 511 c 128,-1,22
 209 530 209 530 209 560 c 0,23,24
 209 589 209 589 193 610 c 128,-1,25
 177 631 177 631 147 631 c 2,13,-1
EndSplineSet
EndChar

StartChar: plusminus
Encoding: 177 177 115
Width: 596
GlyphClass: 2
Flags: W
LayerCount: 2
Fore
SplineSet
256 567 m 1,0,-1
 340 567 l 1,1,-1
 340 395 l 1,2,-1
 556 395 l 1,3,-1
 556 312 l 1,4,-1
 340 312 l 1,5,-1
 340 137 l 1,6,-1
 256 137 l 1,7,-1
 256 312 l 1,8,-1
 40 312 l 1,9,-1
 40 395 l 1,10,-1
 256 395 l 1,11,-1
 256 567 l 1,0,-1
40 82 m 1,12,-1
 556 82 l 1,13,-1
 556 0 l 1,14,-1
 40 0 l 1,15,-1
 40 82 l 1,12,-1
EndSplineSet
EndChar

StartChar: uni00B2
Encoding: 178 178 116
Width: 274
GlyphClass: 2
Flags: W
LayerCount: 2
Fore
SplineSet
8 417 m 1,0,-1
 8 470 l 1,1,-1
 54 527 l 2,2,3
 120 608 120 608 134 635 c 0,4,5
 146 659 146 659 146 680 c 0,6,7
 146 733 146 733 96 733 c 0,8,9
 63 733 63 733 32 710 c 1,10,-1
 13 779 l 1,11,12
 50 812 50 812 121 812 c 0,13,14
 187 812 187 812 217 778.5 c 128,-1,15
 247 745 247 745 247 699 c 0,16,17
 247 665 247 665 228 628.5 c 128,-1,18
 209 592 209 592 194 575 c 128,-1,19
 179 558 179 558 142 519 c 1,20,-1
 125 500 l 1,21,-1
 125 497 l 1,22,-1
 251 497 l 1,23,-1
 251 417 l 1,24,-1
 8 417 l 1,0,-1
EndSplineSet
Substitution2: "'frac' Diagonal Fractions lookup 19 subtable" uniF663
Substitution2: "'dnom' Denominators lookup 13 subtable" uniF657
Substitution2: "'numr' Numerators lookup 12 subtable" uniF663
Substitution2: "'sinf' Scientific Inferiors lookup 11 subtable" uni2082
AlternateSubs2: "'aalt' Access All Alternates lookup 1 subtable" uni2082 uniF663 uniF657
EndChar

StartChar: uni00B3
Encoding: 179 179 117
Width: 260
GlyphClass: 2
Flags: W
LayerCount: 2
Fore
SplineSet
35 723 m 1,0,-1
 21 789 l 1,1,2
 63 812 63 812 115 812 c 0,3,4
 173 812 173 812 202.5 784 c 128,-1,5
 232 756 232 756 232 717 c 0,6,7
 232 654 232 654 167 626 c 1,8,-1
 167 624 l 1,9,10
 199 618 199 618 221 592.5 c 128,-1,11
 243 567 243 567 243 533 c 0,12,13
 243 480 243 480 201.5 446 c 128,-1,14
 160 412 160 412 91 412 c 0,15,16
 39 412 39 412 6 431 c 1,17,-1
 20 500 l 1,18,19
 52 483 52 483 87 483 c 0,20,21
 112 483 112 483 128.5 498 c 128,-1,22
 145 513 145 513 145 536 c 0,23,24
 145 563 145 563 124.5 578 c 128,-1,25
 104 593 104 593 71 593 c 2,26,-1
 59 593 l 1,27,-1
 59 655 l 1,28,-1
 67 655 l 2,29,30
 95 655 95 655 117.5 666 c 128,-1,31
 140 677 140 677 140 700 c 0,32,33
 140 719 140 719 127.5 730 c 128,-1,34
 115 741 115 741 94 741 c 0,35,36
 66 741 66 741 35 723 c 1,0,-1
EndSplineSet
Substitution2: "'frac' Diagonal Fractions lookup 19 subtable" uniF664
Substitution2: "'dnom' Denominators lookup 13 subtable" uniF658
Substitution2: "'numr' Numerators lookup 12 subtable" uniF664
Substitution2: "'sinf' Scientific Inferiors lookup 11 subtable" uni2083
AlternateSubs2: "'aalt' Access All Alternates lookup 1 subtable" uni2083 uniF664 uniF658
EndChar

StartChar: acute
Encoding: 180 180 118
Width: 300
GlyphClass: 2
Flags: W
LayerCount: 2
Fore
SplineSet
173 689 m 1,0,-1
 287 689 l 1,1,-1
 186 549 l 1,2,-1
 104 549 l 1,3,-1
 173 689 l 1,0,-1
EndSplineSet
Substitution2: "'case' Case-Sensitive Forms lookup 6 subtable" uniF6C9
Substitution2: "'aalt' Access All Alternates lookup 0 subtable" uniF6C9
EndChar

StartChar: uni00B5
Encoding: 181 181 119
Width: 455
GlyphClass: 2
Flags: W
LayerCount: 2
Fore
SplineSet
303 49 m 1,0,-1
 300 49 l 1,1,2
 290 28 290 28 269.5 13.5 c 128,-1,3
 249 -1 249 -1 225 -1 c 0,4,5
 190 -1 190 -1 171 22 c 1,6,-1
 171 -17 l 2,7,8
 171 -135 171 -135 182 -192 c 1,9,-1
 61 -192 l 1,10,11
 45 -148 45 -148 45 0 c 2,12,-1
 45 489 l 1,13,-1
 177 489 l 1,14,-1
 177 180 l 2,15,16
 177 97 177 97 223 97 c 0,17,18
 254 97 254 97 269 133 c 0,19,20
 276 149 276 149 276 177 c 2,21,-1
 276 489 l 1,22,-1
 407 489 l 1,23,-1
 407 142 l 2,24,25
 407 111 407 111 414 100 c 128,-1,26
 421 89 421 89 441 89 c 1,27,-1
 429 -2 l 1,28,29
 416 -8 416 -8 389 -8 c 0,30,31
 328 -8 328 -8 303 49 c 1,0,-1
EndSplineSet
EndChar

StartChar: paragraph
Encoding: 182 182 120
Width: 431
GlyphClass: 2
Flags: W
LayerCount: 2
Fore
SplineSet
242 -50 m 1,0,-1
 170 -50 l 1,1,-1
 170 264 l 1,2,-1
 163 264 l 2,3,4
 150 264 150 264 130 273 c 128,-1,5
 110 282 110 282 85.5 301 c 128,-1,6
 61 320 61 320 42.5 358 c 128,-1,7
 24 396 24 396 21 445 c 0,8,9
 16 540 16 540 77.5 607 c 128,-1,10
 139 674 139 674 264 674 c 0,11,12
 322 674 322 674 372 666 c 1,13,-1
 372 -50 l 1,14,-1
 300 -50 l 1,15,-1
 300 601 l 1,16,-1
 242 601 l 1,17,-1
 242 -50 l 1,0,-1
EndSplineSet
EndChar

StartChar: periodcentered
Encoding: 183 183 121
Width: 233
GlyphClass: 2
Flags: W
LayerCount: 2
Fore
SplineSet
117 183 m 2,0,-1
 116 183 l 2,1,2
 84 183 84 183 62.5 207 c 128,-1,3
 41 231 41 231 41 269 c 0,4,5
 41 306 41 306 63.5 331 c 128,-1,6
 86 356 86 356 117 356 c 0,7,8
 150 356 150 356 171.5 332.5 c 128,-1,9
 193 309 193 309 193 269 c 0,10,11
 193 230 193 230 172 206.5 c 128,-1,12
 151 183 151 183 117 183 c 2,0,-1
EndSplineSet
Substitution2: "'case' Case-Sensitive Forms lookup 6 subtable" uniF6BD
Substitution2: "'aalt' Access All Alternates lookup 0 subtable" uniF6BD
EndChar

StartChar: cedilla
Encoding: 184 184 122
Width: 300
GlyphClass: 2
Flags: W
LayerCount: 2
Fore
SplineSet
131 5 m 1,0,-1
 200 5 l 1,1,-1
 176 -44 l 1,2,3
 204 -49 204 -49 223.5 -68.5 c 128,-1,4
 243 -88 243 -88 243 -117 c 0,5,6
 243 -162 243 -162 211.5 -183 c 128,-1,7
 180 -204 180 -204 132 -204 c 0,8,9
 91 -204 91 -204 57 -186 c 1,10,-1
 76 -130 l 1,11,12
 104 -144 104 -144 129 -144 c 0,13,14
 160 -144 160 -144 160 -119 c 0,15,16
 160 -88 160 -88 92 -82 c 1,17,-1
 131 5 l 1,0,-1
EndSplineSet
Substitution2: "'case' Case-Sensitive Forms lookup 6 subtable" uniEFF2
Substitution2: "'aalt' Access All Alternates lookup 0 subtable" uniEFF2
EndChar

StartChar: uni00B9
Encoding: 185 185 123
Width: 239
GlyphClass: 2
Flags: W
LayerCount: 2
Fore
SplineSet
192 417 m 1,0,-1
 98 417 l 1,1,-1
 98 724 l 1,2,-1
 96 724 l 1,3,-1
 26 691 l 1,4,-1
 8 760 l 1,5,-1
 108 807 l 1,6,-1
 192 807 l 1,7,-1
 192 417 l 1,0,-1
EndSplineSet
Substitution2: "'frac' Diagonal Fractions lookup 19 subtable" uniF662
Substitution2: "'dnom' Denominators lookup 13 subtable" uniF656
Substitution2: "'numr' Numerators lookup 12 subtable" uniF662
Substitution2: "'sinf' Scientific Inferiors lookup 11 subtable" uni2081
AlternateSubs2: "'aalt' Access All Alternates lookup 1 subtable" uni2081 uniF662 uniF656
EndChar

StartChar: ordmasculine
Encoding: 186 186 124
Width: 311
GlyphClass: 2
Flags: W
LayerCount: 2
Fore
SplineSet
155 588 m 2,0,-1
 156 588 l 2,1,2
 214 588 214 588 245.5 544.5 c 128,-1,3
 277 501 277 501 277 425 c 0,4,5
 277 334 277 334 240 296 c 128,-1,6
 203 258 203 258 154 258 c 0,7,8
 96 258 96 258 63 301.5 c 128,-1,9
 30 345 30 345 30 422 c 0,10,11
 30 502 30 502 66 545 c 128,-1,12
 102 588 102 588 155 588 c 2,0,-1
154 519 m 2,13,-1
 153 519 l 2,14,15
 131 519 131 519 122 488.5 c 128,-1,16
 113 458 113 458 113 423 c 0,17,18
 113 327 113 327 154 327 c 0,19,20
 193 327 193 327 193 423 c 128,-1,21
 193 519 193 519 154 519 c 2,13,-1
EndSplineSet
EndChar

StartChar: guillemotright
Encoding: 187 187 125
Width: 383
GlyphClass: 2
Flags: W
LayerCount: 2
Fore
SplineSet
114 252 m 1,0,-1
 6 437 l 1,1,-1
 100 437 l 1,2,-1
 206 252 l 1,3,-1
 102 67 l 1,4,-1
 6 67 l 1,5,-1
 114 252 l 1,0,-1
275 252 m 1,6,-1
 167 437 l 1,7,-1
 261 437 l 1,8,-1
 367 252 l 1,9,-1
 262 67 l 1,10,-1
 167 67 l 1,11,-1
 275 252 l 1,6,-1
EndSplineSet
Substitution2: "'case' Case-Sensitive Forms lookup 6 subtable" uniF6B7
Substitution2: "'aalt' Access All Alternates lookup 0 subtable" uniF6B7
EndChar

StartChar: onequarter
Encoding: 188 188 126
Width: 667
GlyphClass: 3
Flags: W
LayerCount: 2
Fore
SplineSet
201 263 m 1,0,-1
 106 263 l 1,1,-1
 106 570 l 1,2,-1
 104 570 l 1,3,-1
 34 537 l 1,4,-1
 17 606 l 1,5,-1
 117 653 l 1,6,-1
 201 653 l 1,7,-1
 201 263 l 1,0,-1
185 -8 m 1,8,-1
 117 -8 l 1,9,-1
 466 658 l 1,10,-1
 534 658 l 1,11,-1
 185 -8 l 1,8,-1
591 0 m 1,12,-1
 507 0 l 1,13,-1
 507 89 l 1,14,-1
 359 89 l 1,15,-1
 359 149 l 1,16,-1
 499 391 l 1,17,-1
 591 391 l 1,18,-1
 591 158 l 1,19,-1
 633 158 l 1,20,-1
 633 89 l 1,21,-1
 591 89 l 1,22,-1
 591 0 l 1,12,-1
507 158 m 1,23,-1
 507 229 l 2,24,25
 507 270 507 270 510 295 c 1,26,-1
 508 295 l 1,27,28
 503 286 503 286 495.5 269.5 c 128,-1,29
 488 253 488 253 483 243 c 2,30,-1
 436 160 l 1,31,-1
 436 158 l 1,32,-1
 507 158 l 1,23,-1
EndSplineSet
Ligature2: "Ligature Substitution lookup 21 subtable" uniF662 fraction uniF665
EndChar

StartChar: onehalf
Encoding: 189 189 127
Width: 667
GlyphClass: 3
Flags: W
LayerCount: 2
Fore
SplineSet
190 263 m 1,0,-1
 96 263 l 1,1,-1
 96 570 l 1,2,-1
 94 570 l 1,3,-1
 23 537 l 1,4,-1
 6 606 l 1,5,-1
 106 653 l 1,6,-1
 190 653 l 1,7,-1
 190 263 l 1,0,-1
159 -8 m 1,8,-1
 90 -8 l 1,9,-1
 439 658 l 1,10,-1
 507 658 l 1,11,-1
 159 -8 l 1,8,-1
385 0 m 1,12,-1
 385 53 l 1,13,-1
 432 110 l 2,14,15
 437 116 437 116 448.5 130 c 128,-1,16
 460 144 460 144 464.5 150 c 128,-1,17
 469 156 469 156 478 167.5 c 128,-1,18
 487 179 487 179 491.5 185 c 128,-1,19
 496 191 496 191 502.5 201 c 128,-1,20
 509 211 509 211 512 217.5 c 128,-1,21
 515 224 515 224 518 232.5 c 128,-1,22
 521 241 521 241 522.5 248.5 c 128,-1,23
 524 256 524 256 524 263 c 0,24,25
 524 316 524 316 474 316 c 0,26,27
 441 316 441 316 410 293 c 1,28,-1
 390 362 l 1,29,30
 428 395 428 395 499 395 c 0,31,32
 565 395 565 395 595 361.5 c 128,-1,33
 625 328 625 328 625 282 c 0,34,35
 625 248 625 248 607 212.5 c 128,-1,36
 589 177 589 177 571.5 157 c 128,-1,37
 554 137 554 137 520 102 c 2,38,-1
 502 83 l 1,39,-1
 502 80 l 1,40,-1
 629 80 l 1,41,-1
 629 0 l 1,42,-1
 385 0 l 1,12,-1
EndSplineSet
Ligature2: "Ligature Substitution lookup 21 subtable" uniF662 fraction uniF663
EndChar

StartChar: threequarters
Encoding: 190 190 128
Width: 667
GlyphClass: 3
Flags: W
LayerCount: 2
Fore
SplineSet
56 569 m 1,0,-1
 41 635 l 1,1,2
 85 658 85 658 136 658 c 0,3,4
 194 658 194 658 223.5 630 c 128,-1,5
 253 602 253 602 253 563 c 0,6,7
 253 500 253 500 188 472 c 1,8,-1
 188 470 l 1,9,10
 220 464 220 464 242 438.5 c 128,-1,11
 264 413 264 413 264 379 c 0,12,13
 264 326 264 326 222.5 292 c 128,-1,14
 181 258 181 258 112 258 c 0,15,16
 58 258 58 258 27 277 c 1,17,-1
 41 346 l 1,18,19
 73 329 73 329 107 329 c 0,20,21
 132 329 132 329 149 344 c 128,-1,22
 166 359 166 359 166 382 c 0,23,24
 166 409 166 409 145.5 424 c 128,-1,25
 125 439 125 439 92 439 c 2,26,-1
 80 439 l 1,27,-1
 80 501 l 1,28,-1
 87 501 l 2,29,30
 116 501 116 501 138 512 c 128,-1,31
 160 523 160 523 160 546 c 0,32,33
 160 565 160 565 148 576 c 128,-1,34
 136 587 136 587 115 587 c 0,35,36
 85 587 85 587 56 569 c 1,0,-1
202 -8 m 1,37,-1
 133 -8 l 1,38,-1
 482 658 l 1,39,-1
 550 658 l 1,40,-1
 202 -8 l 1,37,-1
597 0 m 1,41,-1
 512 0 l 1,42,-1
 512 89 l 1,43,-1
 365 89 l 1,44,-1
 365 149 l 1,45,-1
 505 391 l 1,46,-1
 597 391 l 1,47,-1
 597 158 l 1,48,-1
 639 158 l 1,49,-1
 639 89 l 1,50,-1
 597 89 l 1,51,-1
 597 0 l 1,41,-1
512 158 m 1,52,-1
 512 229 l 2,53,54
 512 261 512 261 516 295 c 1,55,-1
 514 295 l 1,56,57
 509 286 509 286 501.5 269.5 c 128,-1,58
 494 253 494 253 489 243 c 2,59,-1
 442 160 l 1,60,-1
 442 158 l 1,61,-1
 512 158 l 1,52,-1
EndSplineSet
Ligature2: "Ligature Substitution lookup 21 subtable" uniF664 fraction uniF665
EndChar

StartChar: questiondown
Encoding: 191 191 129
Width: 334
GlyphClass: 2
Flags: W
LayerCount: 2
Fore
SplineSet
192 493 m 2,0,-1
 193 493 l 2,1,2
 225 493 225 493 245.5 470.5 c 128,-1,3
 266 448 266 448 266 411 c 0,4,5
 266 376 266 376 246 353.5 c 128,-1,6
 226 331 226 331 193 331 c 128,-1,7
 160 331 160 331 138.5 353.5 c 128,-1,8
 117 376 117 376 117 411 c 0,9,10
 117 448 117 448 138.5 470.5 c 128,-1,11
 160 493 160 493 192 493 c 2,0,-1
135 275 m 1,12,-1
 246 275 l 1,13,-1
 248 257 l 2,14,15
 257 184 257 184 195 87 c 0,16,17
 152 21 152 21 152 -25 c 0,18,19
 152 -53 152 -53 170 -70 c 128,-1,20
 188 -87 188 -87 219 -87 c 0,21,22
 257 -87 257 -87 283 -69 c 1,23,-1
 304 -170 l 1,24,25
 259 -200 259 -200 188 -200 c 0,26,27
 141 -200 141 -200 106.5 -185.5 c 128,-1,28
 72 -171 72 -171 54 -147.5 c 128,-1,29
 36 -124 36 -124 27.5 -98.5 c 128,-1,30
 19 -73 19 -73 19 -46 c 0,31,32
 19 -14 19 -14 31.5 20.5 c 128,-1,33
 44 55 44 55 56.5 76.5 c 128,-1,34
 69 98 69 98 92 131 c 0,35,36
 136 196 136 196 135 254 c 1,37,-1
 135 275 l 1,12,-1
EndSplineSet
Substitution2: "'case' Case-Sensitive Forms lookup 6 subtable" uniF6B5
Substitution2: "'aalt' Access All Alternates lookup 0 subtable" uniF6B5
EndChar

StartChar: Agrave
Encoding: 192 192 130
Width: 458
GlyphClass: 2
Flags: W
LayerCount: 2
Fore
SplineSet
286 154 m 1,0,-1
 165 154 l 1,1,-1
 135 0 l 1,2,-1
 8 0 l 1,3,-1
 154 674 l 1,4,-1
 311 674 l 1,5,-1
 442 0 l 1,6,-1
 315 0 l 1,7,-1
 286 154 l 1,0,-1
178 256 m 1,8,-1
 274 256 l 1,9,-1
 252 397 l 2,10,11
 245 440 245 440 230 550 c 1,12,-1
 227 550 l 1,13,14
 203 398 203 398 203 396 c 2,15,-1
 178 256 l 1,8,-1
83 823 m 1,16,-1
 216 823 l 1,17,-1
 298 710 l 1,18,-1
 205 710 l 1,19,-1
 83 823 l 1,16,-1
EndSplineSet
Position2: "'cpsp' Capital Spacing lookup 0 subtable" dx=10 dy=0 dh=20 dv=0
EndChar

StartChar: Aacute
Encoding: 193 193 131
Width: 458
GlyphClass: 2
Flags: W
LayerCount: 2
Fore
SplineSet
286 154 m 1,0,-1
 165 154 l 1,1,-1
 135 0 l 1,2,-1
 8 0 l 1,3,-1
 154 674 l 1,4,-1
 311 674 l 1,5,-1
 442 0 l 1,6,-1
 315 0 l 1,7,-1
 286 154 l 1,0,-1
178 256 m 1,8,-1
 274 256 l 1,9,-1
 252 397 l 2,10,11
 245 440 245 440 230 550 c 1,12,-1
 227 550 l 1,13,14
 203 398 203 398 203 396 c 2,15,-1
 178 256 l 1,8,-1
255 823 m 1,16,-1
 388 823 l 1,17,-1
 266 710 l 1,18,-1
 173 710 l 1,19,-1
 255 823 l 1,16,-1
EndSplineSet
Position2: "'cpsp' Capital Spacing lookup 0 subtable" dx=10 dy=0 dh=20 dv=0
EndChar

StartChar: Acircumflex
Encoding: 194 194 132
Width: 458
GlyphClass: 2
Flags: W
LayerCount: 2
Fore
SplineSet
286 154 m 1,0,-1
 165 154 l 1,1,-1
 135 0 l 1,2,-1
 8 0 l 1,3,-1
 154 674 l 1,4,-1
 311 674 l 1,5,-1
 442 0 l 1,6,-1
 315 0 l 1,7,-1
 286 154 l 1,0,-1
178 256 m 1,8,-1
 274 256 l 1,9,-1
 252 397 l 2,10,11
 245 440 245 440 230 550 c 1,12,-1
 227 550 l 1,13,14
 203 398 203 398 203 396 c 2,15,-1
 178 256 l 1,8,-1
180 820 m 1,16,-1
 283 820 l 1,17,-1
 367 710 l 1,18,-1
 271 710 l 1,19,-1
 232 761 l 1,20,-1
 230 761 l 1,21,-1
 192 710 l 1,22,-1
 99 710 l 1,23,-1
 180 820 l 1,16,-1
EndSplineSet
Position2: "'cpsp' Capital Spacing lookup 0 subtable" dx=10 dy=0 dh=20 dv=0
EndChar

StartChar: Atilde
Encoding: 195 195 133
Width: 458
GlyphClass: 2
Flags: W
LayerCount: 2
Fore
SplineSet
286 154 m 1,0,-1
 165 154 l 1,1,-1
 135 0 l 1,2,-1
 8 0 l 1,3,-1
 154 674 l 1,4,-1
 311 674 l 1,5,-1
 442 0 l 1,6,-1
 315 0 l 1,7,-1
 286 154 l 1,0,-1
178 256 m 1,8,-1
 274 256 l 1,9,-1
 252 397 l 2,10,11
 245 440 245 440 230 550 c 1,12,-1
 227 550 l 1,13,14
 203 398 203 398 203 396 c 2,15,-1
 178 256 l 1,8,-1
177 718 m 1,16,-1
 118 718 l 1,17,18
 117 773 117 773 135 803.5 c 128,-1,19
 153 834 153 834 184 834 c 0,20,21
 207 834 207 834 237 817 c 1,22,23
 265 799 265 799 274 799 c 0,24,25
 285 799 285 799 290.5 807 c 128,-1,26
 296 815 296 815 298 837 c 1,27,-1
 356 837 l 1,28,29
 360 722 360 722 287 722 c 0,30,31
 261 722 261 722 233 738 c 1,32,33
 211 753 211 753 199 753 c 0,34,35
 181 753 181 753 177 718 c 1,16,-1
EndSplineSet
Position2: "'cpsp' Capital Spacing lookup 0 subtable" dx=10 dy=0 dh=20 dv=0
EndChar

StartChar: Adieresis
Encoding: 196 196 134
Width: 458
GlyphClass: 2
Flags: W
LayerCount: 2
Fore
SplineSet
286 154 m 1,0,-1
 165 154 l 1,1,-1
 135 0 l 1,2,-1
 8 0 l 1,3,-1
 154 674 l 1,4,-1
 311 674 l 1,5,-1
 442 0 l 1,6,-1
 315 0 l 1,7,-1
 286 154 l 1,0,-1
178 256 m 1,8,-1
 274 256 l 1,9,-1
 252 397 l 2,10,11
 245 440 245 440 230 550 c 1,12,-1
 227 550 l 1,13,14
 203 398 203 398 203 396 c 2,15,-1
 178 256 l 1,8,-1
144 712 m 2,16,-1
 143 712 l 2,17,18
 119 712 119 712 102 730.5 c 128,-1,19
 85 749 85 749 85 776 c 128,-1,20
 85 803 85 803 102.5 821.5 c 128,-1,21
 120 840 120 840 144 840 c 128,-1,22
 168 840 168 840 185.5 821.5 c 128,-1,23
 203 803 203 803 203 776 c 128,-1,24
 203 749 203 749 185.5 730.5 c 128,-1,25
 168 712 168 712 144 712 c 2,16,-1
328 712 m 2,26,-1
 327 712 l 2,27,28
 303 712 303 712 286 730.5 c 128,-1,29
 269 749 269 749 269 776 c 128,-1,30
 269 803 269 803 286.5 821.5 c 128,-1,31
 304 840 304 840 328 840 c 0,32,33
 353 840 353 840 370 821.5 c 128,-1,34
 387 803 387 803 387 776 c 128,-1,35
 387 749 387 749 370 730.5 c 128,-1,36
 353 712 353 712 328 712 c 2,26,-1
EndSplineSet
Position2: "'cpsp' Capital Spacing lookup 0 subtable" dx=10 dy=0 dh=20 dv=0
EndChar

StartChar: Aring
Encoding: 197 197 135
Width: 458
GlyphClass: 2
Flags: W
LayerCount: 2
Fore
SplineSet
286 154 m 1,0,-1
 165 154 l 1,1,-1
 135 0 l 1,2,-1
 8 0 l 1,3,-1
 154 674 l 1,4,-1
 311 674 l 1,5,-1
 442 0 l 1,6,-1
 315 0 l 1,7,-1
 286 154 l 1,0,-1
178 256 m 1,8,-1
 274 256 l 1,9,-1
 252 397 l 2,10,11
 245 440 245 440 230 550 c 1,12,-1
 227 550 l 1,13,14
 203 398 203 398 203 396 c 2,15,-1
 178 256 l 1,8,-1
231 885 m 2,16,-1
 232 885 l 2,17,18
 284 885 284 885 310 858.5 c 128,-1,19
 336 832 336 832 336 793 c 128,-1,20
 336 754 336 754 309 727 c 128,-1,21
 282 700 282 700 231 700 c 0,22,23
 178 700 178 700 151.5 726.5 c 128,-1,24
 125 753 125 753 125 790 c 0,25,26
 125 829 125 829 152.5 857 c 128,-1,27
 180 885 180 885 231 885 c 2,16,-1
230 837 m 2,28,-1
 229 837 l 2,29,30
 210 837 210 837 201 823 c 128,-1,31
 192 809 192 809 192 791 c 0,32,33
 192 774 192 774 201.5 761 c 128,-1,34
 211 748 211 748 230 748 c 0,35,36
 268 748 268 748 268 793 c 0,37,38
 268 811 268 811 258.5 824 c 128,-1,39
 249 837 249 837 230 837 c 2,28,-1
EndSplineSet
Position2: "'cpsp' Capital Spacing lookup 0 subtable" dx=10 dy=0 dh=20 dv=0
EndChar

StartChar: AE
Encoding: 198 198 136
Width: 595
GlyphClass: 2
Flags: W
LayerCount: 2
Fore
SplineSet
122 0 m 1,0,-1
 -7 0 l 1,1,-1
 196 674 l 1,2,-1
 565 674 l 1,3,-1
 564 560 l 1,4,-1
 387 560 l 1,5,-1
 396 394 l 1,6,-1
 559 394 l 1,7,-1
 559 285 l 1,8,-1
 407 285 l 1,9,-1
 417 114 l 1,10,-1
 580 114 l 1,11,-1
 580 0 l 1,12,-1
 302 0 l 1,13,-1
 290 184 l 1,14,-1
 167 184 l 1,15,-1
 122 0 l 1,0,-1
191 286 m 1,16,-1
 280 286 l 1,17,-1
 272 453 l 2,18,19
 270 496 270 496 264 583 c 1,20,-1
 261 583 l 1,21,22
 254 551 254 551 240.5 493.5 c 128,-1,23
 227 436 227 436 224 424 c 2,24,-1
 191 286 l 1,16,-1
EndSplineSet
Position2: "'cpsp' Capital Spacing lookup 0 subtable" dx=10 dy=0 dh=20 dv=0
EndChar

StartChar: Ccedilla
Encoding: 199 199 137
Width: 402
GlyphClass: 2
Flags: W
LayerCount: 2
Fore
SplineSet
368 120 m 1,0,-1
 381 10 l 1,1,2
 347 -6 347 -6 291 -6 c 1,3,-1
 271 -44 l 1,4,5
 300 -49 300 -49 319.5 -68.5 c 128,-1,6
 339 -88 339 -88 339 -117 c 0,7,8
 339 -162 339 -162 307.5 -182.5 c 128,-1,9
 276 -203 276 -203 228 -203 c 0,10,11
 184 -203 184 -203 153 -186 c 1,12,-1
 172 -129 l 1,13,14
 199 -144 199 -144 224 -144 c 0,15,16
 256 -144 256 -144 256 -118 c 0,17,18
 256 -87 256 -87 188 -81 c 1,19,-1
 225 -1 l 1,20,21
 125 20 125 20 75 105.5 c 128,-1,22
 25 191 25 191 25 327 c 0,23,24
 25 418 25 418 48.5 488.5 c 128,-1,25
 72 559 72 559 112 599.5 c 128,-1,26
 152 640 152 640 199 660 c 128,-1,27
 246 680 246 680 297 680 c 0,28,29
 362 680 362 680 388 662 c 1,30,-1
 366 552 l 1,31,32
 338 565 338 565 305 565 c 0,33,34
 244 565 244 565 204 508 c 128,-1,35
 164 451 164 451 164 334 c 0,36,37
 164 219 164 219 202.5 164.5 c 128,-1,38
 241 110 241 110 305 110 c 0,39,40
 336 110 336 110 368 120 c 1,0,-1
EndSplineSet
Position2: "'cpsp' Capital Spacing lookup 0 subtable" dx=10 dy=0 dh=20 dv=0
EndChar

StartChar: Egrave
Encoding: 200 200 138
Width: 394
GlyphClass: 2
Flags: W
LayerCount: 2
Fore
SplineSet
343 405 m 1,0,-1
 343 296 l 1,1,-1
 189 296 l 1,2,-1
 189 114 l 1,3,-1
 363 114 l 1,4,-1
 363 0 l 1,5,-1
 58 0 l 1,6,-1
 58 674 l 1,7,-1
 351 674 l 1,8,-1
 351 560 l 1,9,-1
 189 560 l 1,10,-1
 189 405 l 1,11,-1
 343 405 l 1,0,-1
62 823 m 1,12,-1
 195 823 l 1,13,-1
 277 710 l 1,14,-1
 184 710 l 1,15,-1
 62 823 l 1,12,-1
EndSplineSet
Position2: "'cpsp' Capital Spacing lookup 0 subtable" dx=10 dy=0 dh=20 dv=0
EndChar

StartChar: Eacute
Encoding: 201 201 139
Width: 394
GlyphClass: 2
Flags: W
LayerCount: 2
Fore
SplineSet
343 405 m 1,0,-1
 343 296 l 1,1,-1
 189 296 l 1,2,-1
 189 114 l 1,3,-1
 363 114 l 1,4,-1
 363 0 l 1,5,-1
 58 0 l 1,6,-1
 58 674 l 1,7,-1
 351 674 l 1,8,-1
 351 560 l 1,9,-1
 189 560 l 1,10,-1
 189 405 l 1,11,-1
 343 405 l 1,0,-1
230 823 m 1,12,-1
 363 823 l 1,13,-1
 241 710 l 1,14,-1
 148 710 l 1,15,-1
 230 823 l 1,12,-1
EndSplineSet
Position2: "'cpsp' Capital Spacing lookup 0 subtable" dx=10 dy=0 dh=20 dv=0
EndChar

StartChar: Ecircumflex
Encoding: 202 202 140
Width: 394
GlyphClass: 2
Flags: W
LayerCount: 2
Fore
SplineSet
343 405 m 1,0,-1
 343 296 l 1,1,-1
 189 296 l 1,2,-1
 189 114 l 1,3,-1
 363 114 l 1,4,-1
 363 0 l 1,5,-1
 58 0 l 1,6,-1
 58 674 l 1,7,-1
 351 674 l 1,8,-1
 351 560 l 1,9,-1
 189 560 l 1,10,-1
 189 405 l 1,11,-1
 343 405 l 1,0,-1
156 820 m 1,12,-1
 259 820 l 1,13,-1
 343 710 l 1,14,-1
 247 710 l 1,15,-1
 208 761 l 1,16,-1
 206 761 l 1,17,-1
 168 710 l 1,18,-1
 75 710 l 1,19,-1
 156 820 l 1,12,-1
EndSplineSet
Position2: "'cpsp' Capital Spacing lookup 0 subtable" dx=10 dy=0 dh=20 dv=0
EndChar

StartChar: Edieresis
Encoding: 203 203 141
Width: 394
GlyphClass: 2
Flags: W
LayerCount: 2
Fore
SplineSet
343 405 m 1,0,-1
 343 296 l 1,1,-1
 189 296 l 1,2,-1
 189 114 l 1,3,-1
 363 114 l 1,4,-1
 363 0 l 1,5,-1
 58 0 l 1,6,-1
 58 674 l 1,7,-1
 351 674 l 1,8,-1
 351 560 l 1,9,-1
 189 560 l 1,10,-1
 189 405 l 1,11,-1
 343 405 l 1,0,-1
115 714 m 2,12,-1
 114 714 l 2,13,14
 90 714 90 714 73 732.5 c 128,-1,15
 56 751 56 751 56 778 c 128,-1,16
 56 805 56 805 73.5 823.5 c 128,-1,17
 91 842 91 842 115 842 c 128,-1,18
 139 842 139 842 156.5 823.5 c 128,-1,19
 174 805 174 805 174 778 c 128,-1,20
 174 751 174 751 156.5 732.5 c 128,-1,21
 139 714 139 714 115 714 c 2,12,-1
299 714 m 2,22,-1
 298 714 l 2,23,24
 274 714 274 714 257 732.5 c 128,-1,25
 240 751 240 751 240 778 c 128,-1,26
 240 805 240 805 257.5 823.5 c 128,-1,27
 275 842 275 842 299 842 c 0,28,29
 324 842 324 842 341 823.5 c 128,-1,30
 358 805 358 805 358 778 c 128,-1,31
 358 751 358 751 341 732.5 c 128,-1,32
 324 714 324 714 299 714 c 2,22,-1
EndSplineSet
Position2: "'cpsp' Capital Spacing lookup 0 subtable" dx=10 dy=0 dh=20 dv=0
EndChar

StartChar: Igrave
Encoding: 204 204 142
Width: 248
GlyphClass: 2
Flags: W
LayerCount: 2
Fore
SplineSet
58 674 m 1,0,-1
 189 674 l 1,1,-1
 189 0 l 1,2,-1
 58 0 l 1,3,-1
 58 674 l 1,0,-1
-30 823 m 1,4,-1
 103 823 l 1,5,-1
 185 710 l 1,6,-1
 92 710 l 1,7,-1
 -30 823 l 1,4,-1
EndSplineSet
Position2: "'cpsp' Capital Spacing lookup 0 subtable" dx=10 dy=0 dh=20 dv=0
EndChar

StartChar: Iacute
Encoding: 205 205 143
Width: 248
GlyphClass: 2
Flags: W
LayerCount: 2
Fore
SplineSet
58 674 m 1,0,-1
 189 674 l 1,1,-1
 189 0 l 1,2,-1
 58 0 l 1,3,-1
 58 674 l 1,0,-1
142 823 m 1,4,-1
 275 823 l 1,5,-1
 153 710 l 1,6,-1
 60 710 l 1,7,-1
 142 823 l 1,4,-1
EndSplineSet
Position2: "'cpsp' Capital Spacing lookup 0 subtable" dx=10 dy=0 dh=20 dv=0
EndChar

StartChar: Icircumflex
Encoding: 206 206 144
Width: 248
GlyphClass: 2
Flags: W
LayerCount: 2
Fore
SplineSet
58 674 m 1,0,-1
 189 674 l 1,1,-1
 189 0 l 1,2,-1
 58 0 l 1,3,-1
 58 674 l 1,0,-1
71 820 m 1,4,-1
 174 820 l 1,5,-1
 258 710 l 1,6,-1
 162 710 l 1,7,-1
 123 761 l 1,8,-1
 121 761 l 1,9,-1
 83 710 l 1,10,-1
 -10 710 l 1,11,-1
 71 820 l 1,4,-1
EndSplineSet
Position2: "'cpsp' Capital Spacing lookup 0 subtable" dx=10 dy=0 dh=20 dv=0
EndChar

StartChar: Idieresis
Encoding: 207 207 145
Width: 248
GlyphClass: 2
Flags: W
LayerCount: 2
Fore
SplineSet
58 674 m 1,0,-1
 189 674 l 1,1,-1
 189 0 l 1,2,-1
 58 0 l 1,3,-1
 58 674 l 1,0,-1
31 714 m 2,4,-1
 30 714 l 2,5,6
 6 714 6 714 -11 732.5 c 128,-1,7
 -28 751 -28 751 -28 778 c 128,-1,8
 -28 805 -28 805 -10.5 823.5 c 128,-1,9
 7 842 7 842 31 842 c 128,-1,10
 55 842 55 842 72.5 823.5 c 128,-1,11
 90 805 90 805 90 778 c 128,-1,12
 90 751 90 751 72.5 732.5 c 128,-1,13
 55 714 55 714 31 714 c 2,4,-1
215 714 m 2,14,-1
 214 714 l 2,15,16
 190 714 190 714 173 732.5 c 128,-1,17
 156 751 156 751 156 778 c 128,-1,18
 156 805 156 805 173.5 823.5 c 128,-1,19
 191 842 191 842 215 842 c 0,20,21
 240 842 240 842 257 823.5 c 128,-1,22
 274 805 274 805 274 778 c 128,-1,23
 274 751 274 751 257 732.5 c 128,-1,24
 240 714 240 714 215 714 c 2,14,-1
EndSplineSet
Position2: "'cpsp' Capital Spacing lookup 0 subtable" dx=10 dy=0 dh=20 dv=0
EndChar

StartChar: Eth
Encoding: 208 208 146
Width: 493
GlyphClass: 2
Flags: W
LayerCount: 2
Fore
SplineSet
0 303 m 1,0,-1
 0 394 l 1,1,-1
 61 394 l 1,2,-1
 61 664 l 1,3,4
 113 677 113 677 194 677 c 0,5,6
 316 677 316 677 381 617 c 1,7,8
 468 539 468 539 468 345 c 0,9,10
 468 144 468 144 375 59 c 0,11,12
 305 -6 305 -6 169 -6 c 0,13,14
 111 -6 111 -6 61 2 c 1,15,-1
 61 303 l 1,16,-1
 0 303 l 1,0,-1
265 394 m 1,17,-1
 265 303 l 1,18,-1
 191 303 l 1,19,-1
 191 103 l 1,20,21
 198 101 198 101 215 101 c 0,22,23
 267 101 267 101 300 160 c 128,-1,24
 333 219 333 219 333 350 c 0,25,26
 333 572 333 572 217 572 c 0,27,28
 203 572 203 572 191 569 c 1,29,-1
 191 394 l 1,30,-1
 265 394 l 1,17,-1
EndSplineSet
Position2: "'cpsp' Capital Spacing lookup 0 subtable" dx=10 dy=0 dh=20 dv=0
EndChar

StartChar: Ntilde
Encoding: 209 209 147
Width: 516
GlyphClass: 2
Flags: W
LayerCount: 2
Fore
SplineSet
173 0 m 1,0,-1
 58 0 l 1,1,-1
 58 674 l 1,2,-1
 178 674 l 1,3,-1
 282 410 l 2,4,5
 335 273 335 273 354 213 c 1,6,-1
 356 213 l 1,7,8
 343 444 343 444 343 525 c 2,9,-1
 343 674 l 1,10,-1
 458 674 l 1,11,-1
 458 0 l 1,12,-1
 338 0 l 1,13,-1
 235 256 l 1,14,15
 185 385 185 385 167 459 c 1,16,-1
 165 459 l 1,17,18
 173 278 173 278 173 151 c 2,19,-1
 173 0 l 1,0,-1
201 718 m 1,20,-1
 142 718 l 1,21,22
 141 773 141 773 159 803.5 c 128,-1,23
 177 834 177 834 208 834 c 0,24,25
 231 834 231 834 261 817 c 1,26,27
 289 799 289 799 298 799 c 0,28,29
 309 799 309 799 314.5 807 c 128,-1,30
 320 815 320 815 322 837 c 1,31,-1
 380 837 l 1,32,33
 384 722 384 722 311 722 c 0,34,35
 285 722 285 722 257 738 c 1,36,37
 235 753 235 753 223 753 c 0,38,39
 205 753 205 753 201 718 c 1,20,-1
EndSplineSet
Position2: "'cpsp' Capital Spacing lookup 0 subtable" dx=10 dy=0 dh=20 dv=0
EndChar

StartChar: Ograve
Encoding: 210 210 148
Width: 481
GlyphClass: 2
Flags: W
LayerCount: 2
Fore
SplineSet
247 682 m 0,0,1
 294 682 294 682 331 662 c 128,-1,2
 368 642 368 642 391 609.5 c 128,-1,3
 414 577 414 577 429 532.5 c 128,-1,4
 444 488 444 488 450 443 c 128,-1,5
 456 398 456 398 456 349 c 0,6,7
 456 166 456 166 397.5 79 c 128,-1,8
 339 -8 339 -8 238 -8 c 0,9,10
 165 -8 165 -8 115.5 41.5 c 128,-1,11
 66 91 66 91 45.5 166.5 c 128,-1,12
 25 242 25 242 25 339 c 0,13,14
 25 434 25 434 49 510 c 128,-1,15
 73 586 73 586 124 634 c 128,-1,16
 175 682 175 682 247 682 c 0,0,1
242 568 m 0,17,18
 203 568 203 568 182 507 c 128,-1,19
 161 446 161 446 161 337 c 0,20,21
 161 106 161 106 243 106 c 0,22,23
 319 106 319 106 319 343 c 0,24,25
 319 568 319 568 242 568 c 0,17,18
90 823 m 1,26,-1
 223 823 l 1,27,-1
 305 710 l 1,28,-1
 212 710 l 1,29,-1
 90 823 l 1,26,-1
EndSplineSet
Position2: "'cpsp' Capital Spacing lookup 0 subtable" dx=10 dy=0 dh=20 dv=0
EndChar

StartChar: Oacute
Encoding: 211 211 149
Width: 481
GlyphClass: 2
Flags: W
LayerCount: 2
Fore
SplineSet
247 682 m 0,0,1
 294 682 294 682 331 662 c 128,-1,2
 368 642 368 642 391 609.5 c 128,-1,3
 414 577 414 577 429 532.5 c 128,-1,4
 444 488 444 488 450 443 c 128,-1,5
 456 398 456 398 456 349 c 0,6,7
 456 166 456 166 397.5 79 c 128,-1,8
 339 -8 339 -8 238 -8 c 0,9,10
 165 -8 165 -8 115.5 41.5 c 128,-1,11
 66 91 66 91 45.5 166.5 c 128,-1,12
 25 242 25 242 25 339 c 0,13,14
 25 434 25 434 49 510 c 128,-1,15
 73 586 73 586 124 634 c 128,-1,16
 175 682 175 682 247 682 c 0,0,1
242 568 m 0,17,18
 203 568 203 568 182 507 c 128,-1,19
 161 446 161 446 161 337 c 0,20,21
 161 106 161 106 243 106 c 0,22,23
 319 106 319 106 319 343 c 0,24,25
 319 568 319 568 242 568 c 0,17,18
267 823 m 1,26,-1
 400 823 l 1,27,-1
 278 710 l 1,28,-1
 185 710 l 1,29,-1
 267 823 l 1,26,-1
EndSplineSet
Position2: "'cpsp' Capital Spacing lookup 0 subtable" dx=10 dy=0 dh=20 dv=0
EndChar

StartChar: Ocircumflex
Encoding: 212 212 150
Width: 481
GlyphClass: 2
Flags: W
LayerCount: 2
Fore
SplineSet
247 682 m 0,0,1
 294 682 294 682 331 662 c 128,-1,2
 368 642 368 642 391 609.5 c 128,-1,3
 414 577 414 577 429 532.5 c 128,-1,4
 444 488 444 488 450 443 c 128,-1,5
 456 398 456 398 456 349 c 0,6,7
 456 166 456 166 397.5 79 c 128,-1,8
 339 -8 339 -8 238 -8 c 0,9,10
 165 -8 165 -8 115.5 41.5 c 128,-1,11
 66 91 66 91 45.5 166.5 c 128,-1,12
 25 242 25 242 25 339 c 0,13,14
 25 434 25 434 49 510 c 128,-1,15
 73 586 73 586 124 634 c 128,-1,16
 175 682 175 682 247 682 c 0,0,1
242 568 m 0,17,18
 203 568 203 568 182 507 c 128,-1,19
 161 446 161 446 161 337 c 0,20,21
 161 106 161 106 243 106 c 0,22,23
 319 106 319 106 319 343 c 0,24,25
 319 568 319 568 242 568 c 0,17,18
188 820 m 1,26,-1
 291 820 l 1,27,-1
 375 710 l 1,28,-1
 279 710 l 1,29,-1
 240 761 l 1,30,-1
 238 761 l 1,31,-1
 200 710 l 1,32,-1
 107 710 l 1,33,-1
 188 820 l 1,26,-1
EndSplineSet
Position2: "'cpsp' Capital Spacing lookup 0 subtable" dx=10 dy=0 dh=20 dv=0
EndChar

StartChar: Otilde
Encoding: 213 213 151
Width: 481
GlyphClass: 2
Flags: W
LayerCount: 2
Fore
SplineSet
247 682 m 0,0,1
 294 682 294 682 331 662 c 128,-1,2
 368 642 368 642 391 609.5 c 128,-1,3
 414 577 414 577 429 532.5 c 128,-1,4
 444 488 444 488 450 443 c 128,-1,5
 456 398 456 398 456 349 c 0,6,7
 456 166 456 166 397.5 79 c 128,-1,8
 339 -8 339 -8 238 -8 c 0,9,10
 165 -8 165 -8 115.5 41.5 c 128,-1,11
 66 91 66 91 45.5 166.5 c 128,-1,12
 25 242 25 242 25 339 c 0,13,14
 25 434 25 434 49 510 c 128,-1,15
 73 586 73 586 124 634 c 128,-1,16
 175 682 175 682 247 682 c 0,0,1
242 568 m 0,17,18
 203 568 203 568 182 507 c 128,-1,19
 161 446 161 446 161 337 c 0,20,21
 161 106 161 106 243 106 c 0,22,23
 319 106 319 106 319 343 c 0,24,25
 319 568 319 568 242 568 c 0,17,18
180 713 m 1,26,-1
 121 713 l 1,27,28
 120 768 120 768 138 798.5 c 128,-1,29
 156 829 156 829 187 829 c 0,30,31
 210 829 210 829 240 812 c 1,32,33
 268 794 268 794 277 794 c 0,34,35
 288 794 288 794 293.5 802 c 128,-1,36
 299 810 299 810 301 832 c 1,37,-1
 359 832 l 1,38,39
 363 717 363 717 290 717 c 0,40,41
 264 717 264 717 236 733 c 1,42,43
 214 748 214 748 202 748 c 0,44,45
 184 748 184 748 180 713 c 1,26,-1
EndSplineSet
Position2: "'cpsp' Capital Spacing lookup 0 subtable" dx=10 dy=0 dh=20 dv=0
EndChar

StartChar: Odieresis
Encoding: 214 214 152
Width: 481
GlyphClass: 2
Flags: W
LayerCount: 2
Fore
SplineSet
247 682 m 0,0,1
 294 682 294 682 331 662 c 128,-1,2
 368 642 368 642 391 609.5 c 128,-1,3
 414 577 414 577 429 532.5 c 128,-1,4
 444 488 444 488 450 443 c 128,-1,5
 456 398 456 398 456 349 c 0,6,7
 456 166 456 166 397.5 79 c 128,-1,8
 339 -8 339 -8 238 -8 c 0,9,10
 165 -8 165 -8 115.5 41.5 c 128,-1,11
 66 91 66 91 45.5 166.5 c 128,-1,12
 25 242 25 242 25 339 c 0,13,14
 25 434 25 434 49 510 c 128,-1,15
 73 586 73 586 124 634 c 128,-1,16
 175 682 175 682 247 682 c 0,0,1
242 568 m 0,17,18
 203 568 203 568 182 507 c 128,-1,19
 161 446 161 446 161 337 c 0,20,21
 161 106 161 106 243 106 c 0,22,23
 319 106 319 106 319 343 c 0,24,25
 319 568 319 568 242 568 c 0,17,18
147 714 m 2,26,-1
 146 714 l 2,27,28
 122 714 122 714 105 732.5 c 128,-1,29
 88 751 88 751 88 778 c 128,-1,30
 88 805 88 805 105.5 823.5 c 128,-1,31
 123 842 123 842 147 842 c 128,-1,32
 171 842 171 842 188.5 823.5 c 128,-1,33
 206 805 206 805 206 778 c 128,-1,34
 206 751 206 751 188.5 732.5 c 128,-1,35
 171 714 171 714 147 714 c 2,26,-1
331 714 m 2,36,-1
 330 714 l 2,37,38
 306 714 306 714 289 732.5 c 128,-1,39
 272 751 272 751 272 778 c 128,-1,40
 272 805 272 805 289.5 823.5 c 128,-1,41
 307 842 307 842 331 842 c 0,42,43
 356 842 356 842 373 823.5 c 128,-1,44
 390 805 390 805 390 778 c 128,-1,45
 390 751 390 751 373 732.5 c 128,-1,46
 356 714 356 714 331 714 c 2,36,-1
EndSplineSet
Position2: "'cpsp' Capital Spacing lookup 0 subtable" dx=10 dy=0 dh=20 dv=0
EndChar

StartChar: multiply
Encoding: 215 215 153
Width: 596
GlyphClass: 2
Flags: W
LayerCount: 2
Fore
SplineSet
40 466 m 1,0,-1
 96 526 l 1,1,-1
 298 321 l 1,2,-1
 500 526 l 1,3,-1
 556 466 l 1,4,-1
 356 263 l 1,5,-1
 556 61 l 1,6,-1
 497 0 l 1,7,-1
 298 204 l 1,8,-1
 98 0 l 1,9,-1
 40 61 l 1,10,-1
 239 263 l 1,11,-1
 40 466 l 1,0,-1
EndSplineSet
EndChar

StartChar: Oslash
Encoding: 216 216 154
Width: 481
GlyphClass: 2
Flags: W
LayerCount: 2
Fore
SplineSet
107 -51 m 1,0,-1
 41 -15 l 1,1,-1
 84 81 l 1,2,3
 25 170 25 170 25 339 c 0,4,5
 25 483 25 483 82 582.5 c 128,-1,6
 139 682 139 682 243 682 c 0,7,8
 297 682 297 682 339 655 c 1,9,-1
 370 725 l 1,10,-1
 439 696 l 1,11,-1
 397 601 l 1,12,13
 456 514 456 514 456 349 c 0,14,15
 456 166 456 166 398.5 79 c 128,-1,16
 341 -8 341 -8 241 -8 c 0,17,18
 183 -8 183 -8 140 23 c 1,19,-1
 107 -51 l 1,0,-1
160 235 m 1,20,-1
 289 540 l 1,21,22
 273 568 273 568 242 568 c 0,23,24
 201 568 201 568 177 509 c 128,-1,25
 153 450 153 450 153 340 c 0,26,27
 153 271 153 271 158 235 c 1,28,-1
 160 235 l 1,20,-1
321 443 m 1,29,-1
 188 139 l 1,30,31
 204 106 204 106 242 106 c 0,32,33
 283 106 283 106 305.5 166.5 c 128,-1,34
 328 227 328 227 328 343 c 0,35,36
 328 401 328 401 323 443 c 1,37,-1
 321 443 l 1,29,-1
EndSplineSet
Position2: "'cpsp' Capital Spacing lookup 0 subtable" dx=10 dy=0 dh=20 dv=0
EndChar

StartChar: Ugrave
Encoding: 217 217 155
Width: 500
GlyphClass: 2
Flags: W
LayerCount: 2
Fore
SplineSet
54 674 m 1,0,-1
 185 674 l 1,1,-1
 185 236 l 2,2,3
 185 107 185 107 249 107 c 0,4,5
 280 107 280 107 297 135.5 c 128,-1,6
 314 164 314 164 314 236 c 2,7,-1
 314 674 l 1,8,-1
 445 674 l 1,9,-1
 445 259 l 2,10,11
 445 128 445 128 396 60 c 128,-1,12
 347 -8 347 -8 250 -8 c 0,13,14
 147 -8 147 -8 100.5 59.5 c 128,-1,15
 54 127 54 127 54 258 c 2,16,-1
 54 674 l 1,0,-1
102 823 m 1,17,-1
 235 823 l 1,18,-1
 317 710 l 1,19,-1
 224 710 l 1,20,-1
 102 823 l 1,17,-1
EndSplineSet
Position2: "'cpsp' Capital Spacing lookup 0 subtable" dx=10 dy=0 dh=20 dv=0
EndChar

StartChar: Uacute
Encoding: 218 218 156
Width: 500
GlyphClass: 2
Flags: W
LayerCount: 2
Fore
SplineSet
54 674 m 1,0,-1
 185 674 l 1,1,-1
 185 236 l 2,2,3
 185 107 185 107 249 107 c 0,4,5
 280 107 280 107 297 135.5 c 128,-1,6
 314 164 314 164 314 236 c 2,7,-1
 314 674 l 1,8,-1
 445 674 l 1,9,-1
 445 259 l 2,10,11
 445 128 445 128 396 60 c 128,-1,12
 347 -8 347 -8 250 -8 c 0,13,14
 147 -8 147 -8 100.5 59.5 c 128,-1,15
 54 127 54 127 54 258 c 2,16,-1
 54 674 l 1,0,-1
263 823 m 1,17,-1
 396 823 l 1,18,-1
 274 710 l 1,19,-1
 181 710 l 1,20,-1
 263 823 l 1,17,-1
EndSplineSet
Position2: "'cpsp' Capital Spacing lookup 0 subtable" dx=10 dy=0 dh=20 dv=0
EndChar

StartChar: Ucircumflex
Encoding: 219 219 157
Width: 500
GlyphClass: 2
Flags: W
LayerCount: 2
Fore
SplineSet
54 674 m 1,0,-1
 185 674 l 1,1,-1
 185 236 l 2,2,3
 185 107 185 107 249 107 c 0,4,5
 280 107 280 107 297 135.5 c 128,-1,6
 314 164 314 164 314 236 c 2,7,-1
 314 674 l 1,8,-1
 445 674 l 1,9,-1
 445 259 l 2,10,11
 445 128 445 128 396 60 c 128,-1,12
 347 -8 347 -8 250 -8 c 0,13,14
 147 -8 147 -8 100.5 59.5 c 128,-1,15
 54 127 54 127 54 258 c 2,16,-1
 54 674 l 1,0,-1
201 820 m 1,17,-1
 304 820 l 1,18,-1
 388 710 l 1,19,-1
 292 710 l 1,20,-1
 253 761 l 1,21,-1
 251 761 l 1,22,-1
 213 710 l 1,23,-1
 120 710 l 1,24,-1
 201 820 l 1,17,-1
EndSplineSet
Position2: "'cpsp' Capital Spacing lookup 0 subtable" dx=10 dy=0 dh=20 dv=0
EndChar

StartChar: Udieresis
Encoding: 220 220 158
Width: 500
GlyphClass: 2
Flags: W
LayerCount: 2
Fore
SplineSet
54 674 m 1,0,-1
 185 674 l 1,1,-1
 185 236 l 2,2,3
 185 107 185 107 249 107 c 0,4,5
 280 107 280 107 297 135.5 c 128,-1,6
 314 164 314 164 314 236 c 2,7,-1
 314 674 l 1,8,-1
 445 674 l 1,9,-1
 445 259 l 2,10,11
 445 128 445 128 396 60 c 128,-1,12
 347 -8 347 -8 250 -8 c 0,13,14
 147 -8 147 -8 100.5 59.5 c 128,-1,15
 54 127 54 127 54 258 c 2,16,-1
 54 674 l 1,0,-1
157 714 m 2,17,-1
 156 714 l 2,18,19
 132 714 132 714 115 732.5 c 128,-1,20
 98 751 98 751 98 778 c 128,-1,21
 98 805 98 805 115.5 823.5 c 128,-1,22
 133 842 133 842 157 842 c 128,-1,23
 181 842 181 842 198.5 823.5 c 128,-1,24
 216 805 216 805 216 778 c 128,-1,25
 216 751 216 751 198.5 732.5 c 128,-1,26
 181 714 181 714 157 714 c 2,17,-1
341 714 m 2,27,-1
 340 714 l 2,28,29
 316 714 316 714 299 732.5 c 128,-1,30
 282 751 282 751 282 778 c 128,-1,31
 282 805 282 805 299.5 823.5 c 128,-1,32
 317 842 317 842 341 842 c 0,33,34
 366 842 366 842 383 823.5 c 128,-1,35
 400 805 400 805 400 778 c 128,-1,36
 400 751 400 751 383 732.5 c 128,-1,37
 366 714 366 714 341 714 c 2,27,-1
EndSplineSet
Position2: "'cpsp' Capital Spacing lookup 0 subtable" dx=10 dy=0 dh=20 dv=0
EndChar

StartChar: Yacute
Encoding: 221 221 159
Width: 402
GlyphClass: 2
Flags: W
LayerCount: 2
Fore
SplineSet
264 0 m 1,0,-1
 133 0 l 1,1,-1
 133 258 l 1,2,-1
 -15 674 l 1,3,-1
 125 674 l 1,4,-1
 171 513 l 2,5,6
 194 432 194 432 206 370 c 1,7,-1
 208 370 l 1,8,9
 218 433 218 433 239 516 c 2,10,-1
 279 674 l 1,11,-1
 415 674 l 1,12,-1
 264 263 l 1,13,-1
 264 0 l 1,0,-1
229 823 m 1,14,-1
 362 823 l 1,15,-1
 240 710 l 1,16,-1
 147 710 l 1,17,-1
 229 823 l 1,14,-1
EndSplineSet
Position2: "'cpsp' Capital Spacing lookup 0 subtable" dx=10 dy=0 dh=20 dv=0
EndChar

StartChar: Thorn
Encoding: 222 222 160
Width: 453
GlyphClass: 2
Flags: W
LayerCount: 2
Fore
SplineSet
58 0 m 1,0,-1
 58 674 l 1,1,-1
 186 674 l 1,2,-1
 186 558 l 1,3,4
 198 560 198 560 228 560 c 0,5,6
 322 560 322 560 374 514 c 0,7,8
 433 462 433 462 433 363 c 0,9,10
 433 303 433 303 413.5 257.5 c 128,-1,11
 394 212 394 212 362 187.5 c 128,-1,12
 330 163 330 163 295 151 c 128,-1,13
 260 139 260 139 223 139 c 0,14,15
 200 139 200 139 186 142 c 1,16,-1
 186 0 l 1,17,-1
 58 0 l 1,0,-1
186 451 m 1,18,-1
 186 251 l 1,19,20
 198 247 198 247 215 247 c 0,21,22
 257 247 257 247 281 276.5 c 128,-1,23
 305 306 305 306 305 353 c 0,24,25
 305 454 305 454 220 454 c 0,26,27
 201 454 201 454 186 451 c 1,18,-1
EndSplineSet
Position2: "'cpsp' Capital Spacing lookup 0 subtable" dx=10 dy=0 dh=20 dv=0
EndChar

StartChar: germandbls
Encoding: 223 223 161
Width: 493
GlyphClass: 2
Flags: W
LayerCount: 2
Fore
SplineSet
177 0 m 1,0,-1
 46 0 l 1,1,-1
 46 432 l 2,2,3
 46 578 46 578 112 642 c 0,4,5
 172 700 172 700 263 700 c 0,6,7
 349 700 349 700 396 651.5 c 128,-1,8
 443 603 443 603 443 530 c 0,9,10
 443 481 443 481 420 453 c 1,11,12
 370 426 370 426 370 385 c 0,13,14
 370 355 370 355 407 312 c 0,15,16
 442 272 442 272 456.5 237 c 128,-1,17
 471 202 471 202 471 157 c 0,18,19
 471 83 471 83 422 37.5 c 128,-1,20
 373 -8 373 -8 299 -8 c 0,21,22
 250 -8 250 -8 213 5 c 1,23,-1
 228 105 l 1,24,25
 253 93 253 93 290 93 c 0,26,27
 317 93 317 93 332 109 c 128,-1,28
 347 125 347 125 347 146 c 0,29,30
 347 182 347 182 304 232 c 0,31,32
 273 269 273 269 259 297.5 c 128,-1,33
 245 326 245 326 245 363 c 0,34,35
 245 399 245 399 264 430.5 c 128,-1,36
 283 462 283 462 312 478 c 1,37,38
 319 493 319 493 319 525 c 0,39,40
 319 556 319 556 301 575.5 c 128,-1,41
 283 595 283 595 256 595 c 0,42,43
 177 595 177 595 177 443 c 2,44,-1
 177 0 l 1,0,-1
EndSplineSet
EndChar

StartChar: agrave
Encoding: 224 224 162
Width: 422
GlyphClass: 2
Flags: W
LayerCount: 2
Fore
SplineSet
78 689 m 1,0,-1
 192 689 l 1,1,-1
 261 549 l 1,2,-1
 178 549 l 1,3,-1
 78 689 l 1,0,-1
375 294 m 2,4,-1
 375 112 l 2,5,6
 375 44 375 44 383 0 c 1,7,-1
 265 0 l 1,8,-1
 258 48 l 1,9,-1
 256 48 l 1,10,11
 216 -8 216 -8 148 -8 c 0,12,13
 92 -8 92 -8 55.5 34 c 128,-1,14
 19 76 19 76 19 141 c 0,15,16
 19 202 19 202 52.5 244.5 c 128,-1,17
 86 287 86 287 135 304.5 c 128,-1,18
 184 322 184 322 243 323 c 1,19,-1
 243 334 l 2,20,21
 243 364 243 364 225 382 c 128,-1,22
 207 400 207 400 174 400 c 0,23,24
 119 400 119 400 74 372 c 1,25,-1
 50 460 l 1,26,27
 112 497 112 497 202 497 c 0,28,29
 245 497 245 497 277 485 c 128,-1,30
 309 473 309 473 327.5 454.5 c 128,-1,31
 346 436 346 436 357 408 c 128,-1,32
 368 380 368 380 371.5 353.5 c 128,-1,33
 375 327 375 327 375 294 c 2,4,-1
247 153 m 2,34,-1
 247 238 l 1,35,36
 143 236 143 236 143 155 c 0,37,38
 143 122 143 122 157.5 105 c 128,-1,39
 172 88 172 88 190 88 c 0,40,41
 207 88 207 88 222.5 99 c 128,-1,42
 238 110 238 110 244 130 c 0,43,44
 247 140 247 140 247 153 c 2,34,-1
EndSplineSet
EndChar

StartChar: aacute
Encoding: 225 225 163
Width: 422
GlyphClass: 2
Flags: W
LayerCount: 2
Fore
SplineSet
230 689 m 1,0,-1
 344 689 l 1,1,-1
 243 549 l 1,2,-1
 161 549 l 1,3,-1
 230 689 l 1,0,-1
375 294 m 2,4,-1
 375 112 l 2,5,6
 375 44 375 44 383 0 c 1,7,-1
 265 0 l 1,8,-1
 258 48 l 1,9,-1
 256 48 l 1,10,11
 216 -8 216 -8 148 -8 c 0,12,13
 92 -8 92 -8 55.5 34 c 128,-1,14
 19 76 19 76 19 141 c 0,15,16
 19 202 19 202 52.5 244.5 c 128,-1,17
 86 287 86 287 135 304.5 c 128,-1,18
 184 322 184 322 243 323 c 1,19,-1
 243 334 l 2,20,21
 243 364 243 364 225 382 c 128,-1,22
 207 400 207 400 174 400 c 0,23,24
 119 400 119 400 74 372 c 1,25,-1
 50 460 l 1,26,27
 112 497 112 497 202 497 c 0,28,29
 245 497 245 497 277 485 c 128,-1,30
 309 473 309 473 327.5 454.5 c 128,-1,31
 346 436 346 436 357 408 c 128,-1,32
 368 380 368 380 371.5 353.5 c 128,-1,33
 375 327 375 327 375 294 c 2,4,-1
247 153 m 2,34,-1
 247 238 l 1,35,36
 143 236 143 236 143 155 c 0,37,38
 143 122 143 122 157.5 105 c 128,-1,39
 172 88 172 88 190 88 c 0,40,41
 207 88 207 88 222.5 99 c 128,-1,42
 238 110 238 110 244 130 c 0,43,44
 247 140 247 140 247 153 c 2,34,-1
EndSplineSet
EndChar

StartChar: acircumflex
Encoding: 226 226 164
Width: 422
GlyphClass: 2
Flags: W
LayerCount: 2
Fore
SplineSet
165 689 m 1,0,-1
 256 689 l 1,1,-1
 342 549 l 1,2,-1
 252 549 l 1,3,-1
 212 629 l 1,4,-1
 210 629 l 1,5,-1
 170 549 l 1,6,-1
 79 549 l 1,7,-1
 165 689 l 1,0,-1
375 294 m 2,8,-1
 375 112 l 2,9,10
 375 44 375 44 383 0 c 1,11,-1
 265 0 l 1,12,-1
 258 48 l 1,13,-1
 256 48 l 1,14,15
 216 -8 216 -8 148 -8 c 0,16,17
 92 -8 92 -8 55.5 34 c 128,-1,18
 19 76 19 76 19 141 c 0,19,20
 19 202 19 202 52.5 244.5 c 128,-1,21
 86 287 86 287 135 304.5 c 128,-1,22
 184 322 184 322 243 323 c 1,23,-1
 243 334 l 2,24,25
 243 364 243 364 225 382 c 128,-1,26
 207 400 207 400 174 400 c 0,27,28
 119 400 119 400 74 372 c 1,29,-1
 50 460 l 1,30,31
 112 497 112 497 202 497 c 0,32,33
 245 497 245 497 277 485 c 128,-1,34
 309 473 309 473 327.5 454.5 c 128,-1,35
 346 436 346 436 357 408 c 128,-1,36
 368 380 368 380 371.5 353.5 c 128,-1,37
 375 327 375 327 375 294 c 2,8,-1
247 153 m 2,38,-1
 247 238 l 1,39,40
 143 236 143 236 143 155 c 0,41,42
 143 122 143 122 157.5 105 c 128,-1,43
 172 88 172 88 190 88 c 0,44,45
 207 88 207 88 222.5 99 c 128,-1,46
 238 110 238 110 244 130 c 0,47,48
 247 140 247 140 247 153 c 2,38,-1
EndSplineSet
EndChar

StartChar: atilde
Encoding: 227 227 165
Width: 422
GlyphClass: 2
Flags: W
LayerCount: 2
Fore
SplineSet
149 557 m 1,0,-1
 89 557 l 1,1,2
 89 609 89 609 107 642 c 128,-1,3
 125 675 125 675 160 675 c 0,4,5
 181 675 181 675 217 657 c 1,6,7
 243 641 243 641 254 641 c 128,-1,8
 265 641 265 641 270 648.5 c 128,-1,9
 275 656 275 656 276 678 c 1,10,-1
 334 678 l 1,11,12
 334 564 334 564 264 564 c 0,13,14
 243 564 243 564 211 580 c 0,15,16
 205 583 205 583 197 587.5 c 128,-1,17
 189 592 189 592 183.5 594.5 c 128,-1,18
 178 597 178 597 172 597 c 0,19,20
 149 597 149 597 149 557 c 1,0,-1
375 294 m 2,21,-1
 375 112 l 2,22,23
 375 44 375 44 383 0 c 1,24,-1
 265 0 l 1,25,-1
 258 48 l 1,26,-1
 256 48 l 1,27,28
 216 -8 216 -8 148 -8 c 0,29,30
 92 -8 92 -8 55.5 34 c 128,-1,31
 19 76 19 76 19 141 c 0,32,33
 19 202 19 202 52.5 244.5 c 128,-1,34
 86 287 86 287 135 304.5 c 128,-1,35
 184 322 184 322 243 323 c 1,36,-1
 243 334 l 2,37,38
 243 364 243 364 225 382 c 128,-1,39
 207 400 207 400 174 400 c 0,40,41
 119 400 119 400 74 372 c 1,42,-1
 50 460 l 1,43,44
 112 497 112 497 202 497 c 0,45,46
 245 497 245 497 277 485 c 128,-1,47
 309 473 309 473 327.5 454.5 c 128,-1,48
 346 436 346 436 357 408 c 128,-1,49
 368 380 368 380 371.5 353.5 c 128,-1,50
 375 327 375 327 375 294 c 2,21,-1
247 153 m 2,51,-1
 247 238 l 1,52,53
 143 236 143 236 143 155 c 0,54,55
 143 122 143 122 157.5 105 c 128,-1,56
 172 88 172 88 190 88 c 0,57,58
 207 88 207 88 222.5 99 c 128,-1,59
 238 110 238 110 244 130 c 0,60,61
 247 140 247 140 247 153 c 2,51,-1
EndSplineSet
EndChar

StartChar: adieresis
Encoding: 228 228 166
Width: 422
GlyphClass: 2
Flags: W
LayerCount: 2
Fore
SplineSet
122 560 m 2,0,-1
 121 560 l 2,1,2
 97 560 97 560 79.5 578.5 c 128,-1,3
 62 597 62 597 62 624 c 128,-1,4
 62 651 62 651 79.5 669.5 c 128,-1,5
 97 688 97 688 122 688 c 0,6,7
 148 688 148 688 165 670 c 128,-1,8
 182 652 182 652 182 624 c 128,-1,9
 182 596 182 596 165 578 c 128,-1,10
 148 560 148 560 122 560 c 2,0,-1
300 560 m 2,11,-1
 299 560 l 2,12,13
 274 560 274 560 256.5 578.5 c 128,-1,14
 239 597 239 597 239 624 c 128,-1,15
 239 651 239 651 257 669.5 c 128,-1,16
 275 688 275 688 300 688 c 128,-1,17
 325 688 325 688 342 670 c 128,-1,18
 359 652 359 652 359 624 c 128,-1,19
 359 596 359 596 342.5 578 c 128,-1,20
 326 560 326 560 300 560 c 2,11,-1
375 294 m 2,21,-1
 375 112 l 2,22,23
 375 44 375 44 383 0 c 1,24,-1
 265 0 l 1,25,-1
 258 48 l 1,26,-1
 256 48 l 1,27,28
 216 -8 216 -8 148 -8 c 0,29,30
 92 -8 92 -8 55.5 34 c 128,-1,31
 19 76 19 76 19 141 c 0,32,33
 19 202 19 202 52.5 244.5 c 128,-1,34
 86 287 86 287 135 304.5 c 128,-1,35
 184 322 184 322 243 323 c 1,36,-1
 243 334 l 2,37,38
 243 364 243 364 225 382 c 128,-1,39
 207 400 207 400 174 400 c 0,40,41
 119 400 119 400 74 372 c 1,42,-1
 50 460 l 1,43,44
 112 497 112 497 202 497 c 0,45,46
 245 497 245 497 277 485 c 128,-1,47
 309 473 309 473 327.5 454.5 c 128,-1,48
 346 436 346 436 357 408 c 128,-1,49
 368 380 368 380 371.5 353.5 c 128,-1,50
 375 327 375 327 375 294 c 2,21,-1
247 153 m 2,51,-1
 247 238 l 1,52,53
 143 236 143 236 143 155 c 0,54,55
 143 122 143 122 157.5 105 c 128,-1,56
 172 88 172 88 190 88 c 0,57,58
 207 88 207 88 222.5 99 c 128,-1,59
 238 110 238 110 244 130 c 0,60,61
 247 140 247 140 247 153 c 2,51,-1
EndSplineSet
EndChar

StartChar: aring
Encoding: 229 229 167
Width: 422
GlyphClass: 2
Flags: W
LayerCount: 2
Fore
SplineSet
213 538 m 0,0,1
 163 538 163 538 136 563 c 128,-1,2
 109 588 109 588 109 627 c 0,3,4
 109 668 109 668 136 694.5 c 128,-1,5
 163 721 163 721 214 721 c 0,6,7
 263 721 263 721 289 696 c 128,-1,8
 315 671 315 671 315 630 c 0,9,10
 315 590 315 590 287.5 564 c 128,-1,11
 260 538 260 538 213 538 c 0,0,1
211 582 m 0,12,13
 253 582 253 582 253 630 c 0,14,15
 253 677 253 677 210 677 c 0,16,17
 190 677 190 677 181 662 c 128,-1,18
 172 647 172 647 172 628 c 0,19,20
 172 612 172 612 181.5 597 c 128,-1,21
 191 582 191 582 211 582 c 0,12,13
375 294 m 2,22,-1
 375 112 l 2,23,24
 375 44 375 44 383 0 c 1,25,-1
 265 0 l 1,26,-1
 258 48 l 1,27,-1
 256 48 l 1,28,29
 216 -8 216 -8 148 -8 c 0,30,31
 92 -8 92 -8 55.5 34 c 128,-1,32
 19 76 19 76 19 141 c 0,33,34
 19 202 19 202 52.5 244.5 c 128,-1,35
 86 287 86 287 135 304.5 c 128,-1,36
 184 322 184 322 243 323 c 1,37,-1
 243 334 l 2,38,39
 243 364 243 364 225 382 c 128,-1,40
 207 400 207 400 174 400 c 0,41,42
 119 400 119 400 74 372 c 1,43,-1
 50 460 l 1,44,45
 112 497 112 497 202 497 c 0,46,47
 245 497 245 497 277 485 c 128,-1,48
 309 473 309 473 327.5 454.5 c 128,-1,49
 346 436 346 436 357 408 c 128,-1,50
 368 380 368 380 371.5 353.5 c 128,-1,51
 375 327 375 327 375 294 c 2,22,-1
247 153 m 2,52,-1
 247 238 l 1,53,54
 143 236 143 236 143 155 c 0,55,56
 143 122 143 122 157.5 105 c 128,-1,57
 172 88 172 88 190 88 c 0,58,59
 207 88 207 88 222.5 99 c 128,-1,60
 238 110 238 110 244 130 c 0,61,62
 247 140 247 140 247 153 c 2,52,-1
EndSplineSet
EndChar

StartChar: ae
Encoding: 230 230 168
Width: 633
GlyphClass: 2
Flags: W
LayerCount: 2
Fore
SplineSet
601 214 m 1,0,-1
 369 214 l 1,1,2
 369 149 369 149 398.5 119.5 c 128,-1,3
 428 90 428 90 476 90 c 0,4,5
 526 90 526 90 566 110 c 1,6,-1
 584 19 l 1,7,8
 530 -8 530 -8 453 -8 c 0,9,10
 402 -8 402 -8 360.5 14 c 128,-1,11
 319 36 319 36 299 77 c 1,12,-1
 296 77 l 1,13,14
 246 -8 246 -8 154 -8 c 0,15,16
 95 -8 95 -8 57 35.5 c 128,-1,17
 19 79 19 79 19 146 c 0,18,19
 19 230 19 230 84 272.5 c 128,-1,20
 149 315 149 315 240 316 c 1,21,-1
 240 331 l 2,22,23
 240 361 240 361 220 380.5 c 128,-1,24
 200 400 200 400 164 400 c 0,25,26
 114 400 114 400 74 373 c 1,27,-1
 50 460 l 1,28,29
 110 497 110 497 189 497 c 0,30,31
 284 497 284 497 315 420 c 1,32,-1
 317 420 l 1,33,34
 361 497 361 497 450 497 c 0,35,36
 521 497 521 497 563 435.5 c 128,-1,37
 605 374 605 374 605 266 c 0,38,39
 605 248 605 248 601 214 c 1,0,-1
242 160 m 2,40,-1
 242 234 l 1,41,42
 200 234 200 234 168 215.5 c 128,-1,43
 136 197 136 197 136 151 c 0,44,45
 136 121 136 121 151 105.5 c 128,-1,46
 166 90 166 90 186 90 c 0,47,48
 203 90 203 90 217.5 101.5 c 128,-1,49
 232 113 232 113 238 133 c 0,50,51
 242 144 242 144 242 160 c 2,40,-1
369 299 m 1,52,-1
 485 299 l 1,53,54
 486 344 486 344 472.5 375 c 128,-1,55
 459 406 459 406 432 406 c 0,56,57
 403 406 403 406 386.5 372 c 128,-1,58
 370 338 370 338 369 299 c 1,52,-1
EndSplineSet
EndChar

StartChar: ccedilla
Encoding: 231 231 169
Width: 323
GlyphClass: 2
Flags: W
LayerCount: 2
Fore
SplineSet
307 111 m 1,0,-1
 318 9 l 1,1,2
 291 -5 291 -5 239 -6 c 1,3,-1
 219 -44 l 1,4,5
 248 -49 248 -49 267.5 -68.5 c 128,-1,6
 287 -88 287 -88 287 -117 c 0,7,8
 287 -162 287 -162 255 -183 c 128,-1,9
 223 -204 223 -204 176 -204 c 0,10,11
 133 -204 133 -204 101 -186 c 1,12,-1
 120 -130 l 1,13,14
 148 -144 148 -144 172 -144 c 0,15,16
 204 -144 204 -144 204 -119 c 0,17,18
 204 -88 204 -88 136 -82 c 1,19,-1
 173 2 l 1,20,21
 105 20 105 20 67 81 c 128,-1,22
 29 142 29 142 29 240 c 0,23,24
 29 354 29 354 90.5 425 c 128,-1,25
 152 496 152 496 253 496 c 0,26,27
 297 496 297 496 325 483 c 1,28,-1
 308 380 l 1,29,30
 283 389 283 389 259 389 c 0,31,32
 213 389 213 389 186 349 c 128,-1,33
 159 309 159 309 159 244 c 0,34,35
 159 177 159 177 185 139 c 128,-1,36
 211 101 211 101 257 101 c 0,37,38
 287 101 287 101 307 111 c 1,0,-1
EndSplineSet
EndChar

StartChar: egrave
Encoding: 232 232 170
Width: 419
GlyphClass: 2
Flags: W
LayerCount: 2
Fore
SplineSet
93 689 m 1,0,-1
 207 689 l 1,1,-1
 276 549 l 1,2,-1
 193 549 l 1,3,-1
 93 689 l 1,0,-1
387 198 m 1,4,-1
 155 198 l 1,5,6
 158 94 158 94 259 94 c 0,7,8
 306 94 306 94 352 110 c 1,9,-1
 370 16 l 1,10,11
 312 -6 312 -6 235 -6 c 0,12,13
 136 -6 136 -6 82.5 57 c 128,-1,14
 29 120 29 120 29 235 c 0,15,16
 29 355 29 355 84.5 426 c 128,-1,17
 140 497 140 497 225 497 c 0,18,19
 304 497 304 497 347.5 437 c 128,-1,20
 391 377 391 377 391 266 c 0,21,22
 391 217 391 217 387 198 c 1,4,-1
156 290 m 1,23,-1
 272 290 l 1,24,25
 272 402 272 402 217 402 c 0,26,27
 188 402 188 402 172.5 367.5 c 128,-1,28
 157 333 157 333 156 290 c 1,23,-1
EndSplineSet
EndChar

StartChar: eacute
Encoding: 233 233 171
Width: 419
GlyphClass: 2
Flags: W
LayerCount: 2
Fore
SplineSet
248 689 m 1,0,-1
 362 689 l 1,1,-1
 261 549 l 1,2,-1
 179 549 l 1,3,-1
 248 689 l 1,0,-1
387 198 m 1,4,-1
 155 198 l 1,5,6
 158 94 158 94 259 94 c 0,7,8
 306 94 306 94 352 110 c 1,9,-1
 370 16 l 1,10,11
 312 -6 312 -6 235 -6 c 0,12,13
 136 -6 136 -6 82.5 57 c 128,-1,14
 29 120 29 120 29 235 c 0,15,16
 29 355 29 355 84.5 426 c 128,-1,17
 140 497 140 497 225 497 c 0,18,19
 304 497 304 497 347.5 437 c 128,-1,20
 391 377 391 377 391 266 c 0,21,22
 391 217 391 217 387 198 c 1,4,-1
156 290 m 1,23,-1
 272 290 l 1,24,25
 272 402 272 402 217 402 c 0,26,27
 188 402 188 402 172.5 367.5 c 128,-1,28
 157 333 157 333 156 290 c 1,23,-1
EndSplineSet
EndChar

StartChar: ecircumflex
Encoding: 234 234 172
Width: 419
GlyphClass: 2
Flags: W
LayerCount: 2
Fore
SplineSet
178 689 m 1,0,-1
 269 689 l 1,1,-1
 355 549 l 1,2,-1
 265 549 l 1,3,-1
 225 629 l 1,4,-1
 223 629 l 1,5,-1
 183 549 l 1,6,-1
 92 549 l 1,7,-1
 178 689 l 1,0,-1
387 198 m 1,8,-1
 155 198 l 1,9,10
 158 94 158 94 259 94 c 0,11,12
 306 94 306 94 352 110 c 1,13,-1
 370 16 l 1,14,15
 312 -6 312 -6 235 -6 c 0,16,17
 136 -6 136 -6 82.5 57 c 128,-1,18
 29 120 29 120 29 235 c 0,19,20
 29 355 29 355 84.5 426 c 128,-1,21
 140 497 140 497 225 497 c 0,22,23
 304 497 304 497 347.5 437 c 128,-1,24
 391 377 391 377 391 266 c 0,25,26
 391 217 391 217 387 198 c 1,8,-1
156 290 m 1,27,-1
 272 290 l 1,28,29
 272 402 272 402 217 402 c 0,30,31
 188 402 188 402 172.5 367.5 c 128,-1,32
 157 333 157 333 156 290 c 1,27,-1
EndSplineSet
EndChar

StartChar: edieresis
Encoding: 235 235 173
Width: 419
GlyphClass: 2
Flags: W
LayerCount: 2
Fore
SplineSet
139 560 m 2,0,-1
 138 560 l 2,1,2
 114 560 114 560 96.5 578.5 c 128,-1,3
 79 597 79 597 79 624 c 128,-1,4
 79 651 79 651 96.5 669.5 c 128,-1,5
 114 688 114 688 139 688 c 0,6,7
 165 688 165 688 182 670 c 128,-1,8
 199 652 199 652 199 624 c 128,-1,9
 199 596 199 596 182 578 c 128,-1,10
 165 560 165 560 139 560 c 2,0,-1
317 560 m 2,11,-1
 316 560 l 2,12,13
 291 560 291 560 273.5 578.5 c 128,-1,14
 256 597 256 597 256 624 c 128,-1,15
 256 651 256 651 274 669.5 c 128,-1,16
 292 688 292 688 317 688 c 128,-1,17
 342 688 342 688 359 670 c 128,-1,18
 376 652 376 652 376 624 c 128,-1,19
 376 596 376 596 359.5 578 c 128,-1,20
 343 560 343 560 317 560 c 2,11,-1
387 198 m 1,21,-1
 155 198 l 1,22,23
 158 94 158 94 259 94 c 0,24,25
 306 94 306 94 352 110 c 1,26,-1
 370 16 l 1,27,28
 312 -6 312 -6 235 -6 c 0,29,30
 136 -6 136 -6 82.5 57 c 128,-1,31
 29 120 29 120 29 235 c 0,32,33
 29 355 29 355 84.5 426 c 128,-1,34
 140 497 140 497 225 497 c 0,35,36
 304 497 304 497 347.5 437 c 128,-1,37
 391 377 391 377 391 266 c 0,38,39
 391 217 391 217 387 198 c 1,21,-1
156 290 m 1,40,-1
 272 290 l 1,41,42
 272 402 272 402 217 402 c 0,43,44
 188 402 188 402 172.5 367.5 c 128,-1,45
 157 333 157 333 156 290 c 1,40,-1
EndSplineSet
EndChar

StartChar: igrave
Encoding: 236 236 174
Width: 223
GlyphClass: 2
Flags: W
LayerCount: 2
Fore
SplineSet
-24 689 m 1,0,-1
 90 689 l 1,1,-1
 159 549 l 1,2,-1
 76 549 l 1,3,-1
 -24 689 l 1,0,-1
177 0 m 1,4,-1
 46 0 l 1,5,-1
 46 489 l 1,6,-1
 177 489 l 1,7,-1
 177 0 l 1,4,-1
EndSplineSet
EndChar

StartChar: iacute
Encoding: 237 237 175
Width: 223
GlyphClass: 2
Flags: W
LayerCount: 2
Fore
SplineSet
135 689 m 1,0,-1
 249 689 l 1,1,-1
 148 549 l 1,2,-1
 66 549 l 1,3,-1
 135 689 l 1,0,-1
177 0 m 1,4,-1
 46 0 l 1,5,-1
 46 489 l 1,6,-1
 177 489 l 1,7,-1
 177 0 l 1,4,-1
EndSplineSet
EndChar

StartChar: icircumflex
Encoding: 238 238 176
Width: 223
GlyphClass: 2
Flags: W
LayerCount: 2
Fore
SplineSet
67 689 m 1,0,-1
 158 689 l 1,1,-1
 244 549 l 1,2,-1
 154 549 l 1,3,-1
 114 629 l 1,4,-1
 112 629 l 1,5,-1
 72 549 l 1,6,-1
 -19 549 l 1,7,-1
 67 689 l 1,0,-1
177 0 m 1,8,-1
 46 0 l 1,9,-1
 46 489 l 1,10,-1
 177 489 l 1,11,-1
 177 0 l 1,8,-1
EndSplineSet
EndChar

StartChar: idieresis
Encoding: 239 239 177
Width: 223
GlyphClass: 2
Flags: W
LayerCount: 2
Fore
SplineSet
23 560 m 2,0,-1
 22 560 l 2,1,2
 -2 560 -2 560 -19.5 578.5 c 128,-1,3
 -37 597 -37 597 -37 624 c 128,-1,4
 -37 651 -37 651 -19.5 669.5 c 128,-1,5
 -2 688 -2 688 23 688 c 0,6,7
 49 688 49 688 66 670 c 128,-1,8
 83 652 83 652 83 624 c 128,-1,9
 83 596 83 596 66 578 c 128,-1,10
 49 560 49 560 23 560 c 2,0,-1
201 560 m 2,11,-1
 200 560 l 2,12,13
 175 560 175 560 157.5 578.5 c 128,-1,14
 140 597 140 597 140 624 c 128,-1,15
 140 651 140 651 158 669.5 c 128,-1,16
 176 688 176 688 201 688 c 128,-1,17
 226 688 226 688 243 670 c 128,-1,18
 260 652 260 652 260 624 c 128,-1,19
 260 596 260 596 243.5 578 c 128,-1,20
 227 560 227 560 201 560 c 2,11,-1
177 0 m 1,21,-1
 46 0 l 1,22,-1
 46 489 l 1,23,-1
 177 489 l 1,24,-1
 177 0 l 1,21,-1
EndSplineSet
EndChar

StartChar: eth
Encoding: 240 240 178
Width: 431
GlyphClass: 2
Flags: W
LayerCount: 2
Fore
SplineSet
217 92 m 2,0,-1
 218 92 l 2,1,2
 272 92 272 92 272 241 c 0,3,4
 272 326 272 326 263 356 c 0,5,6
 251 400 251 400 218 400 c 128,-1,7
 185 400 185 400 172 352.5 c 128,-1,8
 159 305 159 305 159 246 c 0,9,10
 159 92 159 92 217 92 c 2,0,-1
84 504 m 1,11,-1
 56 547 l 1,12,-1
 138 590 l 1,13,14
 118 610 118 610 76 641 c 1,15,-1
 151 708 l 1,16,17
 193 680 193 680 237 641 c 1,18,-1
 329 690 l 1,19,-1
 357 644 l 1,20,-1
 276 603 l 1,21,22
 319 559 319 559 361 478 c 1,23,24
 403 394 403 394 403 260 c 0,25,26
 403 183 403 183 385 127.5 c 128,-1,27
 367 72 367 72 337 44 c 128,-1,28
 307 16 307 16 276.5 4 c 128,-1,29
 246 -8 246 -8 213 -8 c 0,30,31
 126 -8 126 -8 77.5 58 c 128,-1,32
 29 124 29 124 29 243 c 0,33,34
 29 351 29 351 73.5 412 c 128,-1,35
 118 473 118 473 180 482 c 1,36,37
 212 488 212 488 236 475 c 1,38,-1
 238 480 l 1,39,40
 214 526 214 526 182 555 c 1,41,-1
 84 504 l 1,11,-1
EndSplineSet
EndChar

StartChar: ntilde
Encoding: 241 241 179
Width: 458
GlyphClass: 2
Flags: W
LayerCount: 2
Fore
SplineSet
171 557 m 1,0,-1
 111 557 l 1,1,2
 111 609 111 609 129 642 c 128,-1,3
 147 675 147 675 182 675 c 0,4,5
 203 675 203 675 239 657 c 1,6,7
 265 641 265 641 276 641 c 128,-1,8
 287 641 287 641 292 648.5 c 128,-1,9
 297 656 297 656 298 678 c 1,10,-1
 356 678 l 1,11,12
 356 564 356 564 286 564 c 0,13,14
 265 564 265 564 233 580 c 0,15,16
 227 583 227 583 219 587.5 c 128,-1,17
 211 592 211 592 205.5 594.5 c 128,-1,18
 200 597 200 597 194 597 c 0,19,20
 171 597 171 597 171 557 c 1,0,-1
46 0 m 1,21,-1
 46 342 l 2,22,23
 46 373 46 373 44 425 c 128,-1,24
 42 477 42 477 42 489 c 1,25,-1
 155 489 l 1,26,-1
 161 433 l 1,27,-1
 163 433 l 1,28,29
 206 497 206 497 282 497 c 0,30,31
 412 497 412 497 412 314 c 2,32,-1
 412 0 l 1,33,-1
 281 0 l 1,34,-1
 281 306 l 2,35,36
 281 387 281 387 233 387 c 0,37,38
 198 387 198 387 184 343 c 1,39,40
 177 326 177 326 177 298 c 2,41,-1
 177 0 l 1,42,-1
 46 0 l 1,21,-1
EndSplineSet
EndChar

StartChar: ograve
Encoding: 242 242 180
Width: 431
GlyphClass: 2
Flags: W
LayerCount: 2
Fore
SplineSet
84 689 m 1,0,-1
 198 689 l 1,1,-1
 267 549 l 1,2,-1
 184 549 l 1,3,-1
 84 689 l 1,0,-1
218 497 m 0,4,5
 304 497 304 497 353.5 429.5 c 128,-1,6
 403 362 403 362 403 246 c 0,7,8
 403 174 403 174 384.5 121 c 128,-1,9
 366 68 366 68 336.5 41.5 c 128,-1,10
 307 15 307 15 277 3.5 c 128,-1,11
 247 -8 247 -8 216 -8 c 0,12,13
 128 -8 128 -8 78.5 58 c 128,-1,14
 29 124 29 124 29 243 c 0,15,16
 29 367 29 367 84 432 c 128,-1,17
 139 497 139 497 218 497 c 0,4,5
217 398 m 0,18,19
 159 398 159 398 159 246 c 0,20,21
 159 92 159 92 219 92 c 0,22,23
 272 92 272 92 272 246 c 0,24,25
 272 398 272 398 217 398 c 0,18,19
EndSplineSet
EndChar

StartChar: oacute
Encoding: 243 243 181
Width: 431
GlyphClass: 2
Flags: W
LayerCount: 2
Fore
SplineSet
243 689 m 1,0,-1
 357 689 l 1,1,-1
 256 549 l 1,2,-1
 174 549 l 1,3,-1
 243 689 l 1,0,-1
218 497 m 0,4,5
 304 497 304 497 353.5 429.5 c 128,-1,6
 403 362 403 362 403 246 c 0,7,8
 403 174 403 174 384.5 121 c 128,-1,9
 366 68 366 68 336.5 41.5 c 128,-1,10
 307 15 307 15 277 3.5 c 128,-1,11
 247 -8 247 -8 216 -8 c 0,12,13
 128 -8 128 -8 78.5 58 c 128,-1,14
 29 124 29 124 29 243 c 0,15,16
 29 367 29 367 84 432 c 128,-1,17
 139 497 139 497 218 497 c 0,4,5
217 398 m 0,18,19
 159 398 159 398 159 246 c 0,20,21
 159 92 159 92 219 92 c 0,22,23
 272 92 272 92 272 246 c 0,24,25
 272 398 272 398 217 398 c 0,18,19
EndSplineSet
EndChar

StartChar: ocircumflex
Encoding: 244 244 182
Width: 431
GlyphClass: 2
Flags: W
LayerCount: 2
Fore
SplineSet
171 689 m 1,0,-1
 262 689 l 1,1,-1
 348 549 l 1,2,-1
 258 549 l 1,3,-1
 218 629 l 1,4,-1
 216 629 l 1,5,-1
 176 549 l 1,6,-1
 85 549 l 1,7,-1
 171 689 l 1,0,-1
218 497 m 0,8,9
 304 497 304 497 353.5 429.5 c 128,-1,10
 403 362 403 362 403 246 c 0,11,12
 403 174 403 174 384.5 121 c 128,-1,13
 366 68 366 68 336.5 41.5 c 128,-1,14
 307 15 307 15 277 3.5 c 128,-1,15
 247 -8 247 -8 216 -8 c 0,16,17
 128 -8 128 -8 78.5 58 c 128,-1,18
 29 124 29 124 29 243 c 0,19,20
 29 367 29 367 84 432 c 128,-1,21
 139 497 139 497 218 497 c 0,8,9
217 398 m 0,22,23
 159 398 159 398 159 246 c 0,24,25
 159 92 159 92 219 92 c 0,26,27
 272 92 272 92 272 246 c 0,28,29
 272 398 272 398 217 398 c 0,22,23
EndSplineSet
EndChar

StartChar: otilde
Encoding: 245 245 183
Width: 431
GlyphClass: 2
Flags: W
LayerCount: 2
Fore
SplineSet
154 557 m 1,0,-1
 94 557 l 1,1,2
 94 609 94 609 112 642 c 128,-1,3
 130 675 130 675 165 675 c 0,4,5
 186 675 186 675 222 657 c 1,6,7
 248 641 248 641 259 641 c 128,-1,8
 270 641 270 641 275 648.5 c 128,-1,9
 280 656 280 656 281 678 c 1,10,-1
 339 678 l 1,11,12
 339 564 339 564 269 564 c 0,13,14
 248 564 248 564 216 580 c 0,15,16
 210 583 210 583 202 587.5 c 128,-1,17
 194 592 194 592 188.5 594.5 c 128,-1,18
 183 597 183 597 177 597 c 0,19,20
 154 597 154 597 154 557 c 1,0,-1
218 497 m 0,21,22
 304 497 304 497 353.5 429.5 c 128,-1,23
 403 362 403 362 403 246 c 0,24,25
 403 174 403 174 384.5 121 c 128,-1,26
 366 68 366 68 336.5 41.5 c 128,-1,27
 307 15 307 15 277 3.5 c 128,-1,28
 247 -8 247 -8 216 -8 c 0,29,30
 128 -8 128 -8 78.5 58 c 128,-1,31
 29 124 29 124 29 243 c 0,32,33
 29 367 29 367 84 432 c 128,-1,34
 139 497 139 497 218 497 c 0,21,22
217 398 m 0,35,36
 159 398 159 398 159 246 c 0,37,38
 159 92 159 92 219 92 c 0,39,40
 272 92 272 92 272 246 c 0,41,42
 272 398 272 398 217 398 c 0,35,36
EndSplineSet
EndChar

StartChar: odieresis
Encoding: 246 246 184
Width: 431
GlyphClass: 2
Flags: W
LayerCount: 2
Fore
SplineSet
127 560 m 2,0,-1
 126 560 l 2,1,2
 102 560 102 560 84.5 578.5 c 128,-1,3
 67 597 67 597 67 624 c 128,-1,4
 67 651 67 651 84.5 669.5 c 128,-1,5
 102 688 102 688 127 688 c 0,6,7
 153 688 153 688 170 670 c 128,-1,8
 187 652 187 652 187 624 c 128,-1,9
 187 596 187 596 170 578 c 128,-1,10
 153 560 153 560 127 560 c 2,0,-1
305 560 m 2,11,-1
 304 560 l 2,12,13
 279 560 279 560 261.5 578.5 c 128,-1,14
 244 597 244 597 244 624 c 128,-1,15
 244 651 244 651 262 669.5 c 128,-1,16
 280 688 280 688 305 688 c 128,-1,17
 330 688 330 688 347 670 c 128,-1,18
 364 652 364 652 364 624 c 128,-1,19
 364 596 364 596 347.5 578 c 128,-1,20
 331 560 331 560 305 560 c 2,11,-1
218 497 m 0,21,22
 304 497 304 497 353.5 429.5 c 128,-1,23
 403 362 403 362 403 246 c 0,24,25
 403 174 403 174 384.5 121 c 128,-1,26
 366 68 366 68 336.5 41.5 c 128,-1,27
 307 15 307 15 277 3.5 c 128,-1,28
 247 -8 247 -8 216 -8 c 0,29,30
 128 -8 128 -8 78.5 58 c 128,-1,31
 29 124 29 124 29 243 c 0,32,33
 29 367 29 367 84 432 c 128,-1,34
 139 497 139 497 218 497 c 0,21,22
217 398 m 0,35,36
 159 398 159 398 159 246 c 0,37,38
 159 92 159 92 219 92 c 0,39,40
 272 92 272 92 272 246 c 0,41,42
 272 398 272 398 217 398 c 0,35,36
EndSplineSet
EndChar

StartChar: divide
Encoding: 247 247 185
Width: 596
GlyphClass: 2
Flags: W
LayerCount: 2
Fore
SplineSet
298 377 m 2,0,-1
 297 377 l 2,1,2
 272 377 272 377 256 394.5 c 128,-1,3
 240 412 240 412 240 438 c 0,4,5
 240 465 240 465 256.5 482.5 c 128,-1,6
 273 500 273 500 299 500 c 128,-1,7
 325 500 325 500 341 482.5 c 128,-1,8
 357 465 357 465 357 438 c 128,-1,9
 357 411 357 411 341.5 394 c 128,-1,10
 326 377 326 377 298 377 c 2,0,-1
556 226 m 1,11,-1
 40 226 l 1,12,-1
 40 308 l 1,13,-1
 556 308 l 1,14,-1
 556 226 l 1,11,-1
298 34 m 2,15,-1
 297 34 l 2,16,17
 272 34 272 34 256 51.5 c 128,-1,18
 240 69 240 69 240 95 c 0,19,20
 240 122 240 122 256.5 139.5 c 128,-1,21
 273 157 273 157 299 157 c 128,-1,22
 325 157 325 157 341 139.5 c 128,-1,23
 357 122 357 122 357 95 c 128,-1,24
 357 68 357 68 341.5 51 c 128,-1,25
 326 34 326 34 298 34 c 2,15,-1
EndSplineSet
EndChar

StartChar: oslash
Encoding: 248 248 186
Width: 431
GlyphClass: 2
Flags: W
LayerCount: 2
Fore
SplineSet
217 497 m 2,0,-1
 218 497 l 2,1,2
 266 497 266 497 305 473 c 1,3,-1
 338 530 l 1,4,-1
 396 499 l 1,5,-1
 355 426 l 1,6,7
 403 359 403 359 403 246 c 0,8,9
 403 188 403 188 390.5 142 c 128,-1,10
 378 96 378 96 358.5 68.5 c 128,-1,11
 339 41 339 41 313.5 23 c 128,-1,12
 288 5 288 5 264.5 -1.5 c 128,-1,13
 241 -8 241 -8 217 -8 c 0,14,15
 165 -8 165 -8 126 16 c 1,16,-1
 94 -41 l 1,17,-1
 39 -4 l 1,18,-1
 76 62 l 1,19,20
 29 127 29 127 29 243 c 0,21,22
 29 367 29 367 83.5 432 c 128,-1,23
 138 497 138 497 217 497 c 2,0,-1
158 182 m 1,24,-1
 255 373 l 1,25,26
 244 398 244 398 216 398 c 0,27,28
 150 398 150 398 150 246 c 0,29,30
 150 213 150 213 154 184 c 1,31,-1
 158 182 l 1,24,-1
273 300 m 1,32,-1
 179 117 l 1,33,34
 190 92 190 92 217 92 c 0,35,36
 251 92 251 92 266 132.5 c 128,-1,37
 281 173 281 173 281 233 c 0,38,39
 281 276 281 276 278 299 c 1,40,-1
 273 300 l 1,32,-1
EndSplineSet
EndChar

StartChar: ugrave
Encoding: 249 249 187
Width: 452
GlyphClass: 2
Flags: W
LayerCount: 2
Fore
SplineSet
97 689 m 1,0,-1
 211 689 l 1,1,-1
 280 549 l 1,2,-1
 197 549 l 1,3,-1
 97 689 l 1,0,-1
404 489 m 1,4,-1
 404 149 l 2,5,6
 404 92 404 92 408 0 c 1,7,-1
 295 0 l 1,8,-1
 288 52 l 1,9,-1
 286 52 l 1,10,11
 244 -8 244 -8 173 -8 c 0,12,13
 105 -8 105 -8 73.5 42 c 128,-1,14
 42 92 42 92 42 193 c 2,15,-1
 42 489 l 1,16,-1
 174 489 l 1,17,-1
 174 207 l 2,18,19
 174 102 174 102 223 102 c 0,20,21
 253 102 253 102 265 135 c 1,22,23
 273 151 273 151 273 177 c 2,24,-1
 273 489 l 1,25,-1
 404 489 l 1,4,-1
EndSplineSet
EndChar

StartChar: uacute
Encoding: 250 250 188
Width: 452
GlyphClass: 2
Flags: W
LayerCount: 2
Fore
SplineSet
252 689 m 1,0,-1
 366 689 l 1,1,-1
 265 549 l 1,2,-1
 183 549 l 1,3,-1
 252 689 l 1,0,-1
404 489 m 1,4,-1
 404 149 l 2,5,6
 404 92 404 92 408 0 c 1,7,-1
 295 0 l 1,8,-1
 288 52 l 1,9,-1
 286 52 l 1,10,11
 244 -8 244 -8 173 -8 c 0,12,13
 105 -8 105 -8 73.5 42 c 128,-1,14
 42 92 42 92 42 193 c 2,15,-1
 42 489 l 1,16,-1
 174 489 l 1,17,-1
 174 207 l 2,18,19
 174 102 174 102 223 102 c 0,20,21
 253 102 253 102 265 135 c 1,22,23
 273 151 273 151 273 177 c 2,24,-1
 273 489 l 1,25,-1
 404 489 l 1,4,-1
EndSplineSet
EndChar

StartChar: ucircumflex
Encoding: 251 251 189
Width: 452
GlyphClass: 2
Flags: W
LayerCount: 2
Fore
SplineSet
181 689 m 1,0,-1
 272 689 l 1,1,-1
 358 549 l 1,2,-1
 268 549 l 1,3,-1
 228 629 l 1,4,-1
 226 629 l 1,5,-1
 186 549 l 1,6,-1
 95 549 l 1,7,-1
 181 689 l 1,0,-1
404 489 m 1,8,-1
 404 149 l 2,9,10
 404 92 404 92 408 0 c 1,11,-1
 295 0 l 1,12,-1
 288 52 l 1,13,-1
 286 52 l 1,14,15
 244 -8 244 -8 173 -8 c 0,16,17
 105 -8 105 -8 73.5 42 c 128,-1,18
 42 92 42 92 42 193 c 2,19,-1
 42 489 l 1,20,-1
 174 489 l 1,21,-1
 174 207 l 2,22,23
 174 102 174 102 223 102 c 0,24,25
 253 102 253 102 265 135 c 1,26,27
 273 151 273 151 273 177 c 2,28,-1
 273 489 l 1,29,-1
 404 489 l 1,8,-1
EndSplineSet
EndChar

StartChar: udieresis
Encoding: 252 252 190
Width: 452
GlyphClass: 2
Flags: W
LayerCount: 2
Fore
SplineSet
140 560 m 2,0,-1
 139 560 l 2,1,2
 115 560 115 560 97.5 578.5 c 128,-1,3
 80 597 80 597 80 624 c 128,-1,4
 80 651 80 651 97.5 669.5 c 128,-1,5
 115 688 115 688 140 688 c 0,6,7
 166 688 166 688 183 670 c 128,-1,8
 200 652 200 652 200 624 c 128,-1,9
 200 596 200 596 183 578 c 128,-1,10
 166 560 166 560 140 560 c 2,0,-1
318 560 m 2,11,-1
 317 560 l 2,12,13
 292 560 292 560 274.5 578.5 c 128,-1,14
 257 597 257 597 257 624 c 128,-1,15
 257 651 257 651 275 669.5 c 128,-1,16
 293 688 293 688 318 688 c 128,-1,17
 343 688 343 688 360 670 c 128,-1,18
 377 652 377 652 377 624 c 128,-1,19
 377 596 377 596 360.5 578 c 128,-1,20
 344 560 344 560 318 560 c 2,11,-1
404 489 m 1,21,-1
 404 149 l 2,22,23
 404 92 404 92 408 0 c 1,24,-1
 295 0 l 1,25,-1
 288 52 l 1,26,-1
 286 52 l 1,27,28
 244 -8 244 -8 173 -8 c 0,29,30
 105 -8 105 -8 73.5 42 c 128,-1,31
 42 92 42 92 42 193 c 2,32,-1
 42 489 l 1,33,-1
 174 489 l 1,34,-1
 174 207 l 2,35,36
 174 102 174 102 223 102 c 0,37,38
 253 102 253 102 265 135 c 1,39,40
 273 151 273 151 273 177 c 2,41,-1
 273 489 l 1,42,-1
 404 489 l 1,21,-1
EndSplineSet
EndChar

StartChar: yacute
Encoding: 253 253 191
Width: 391
GlyphClass: 2
Flags: W
LayerCount: 2
Fore
SplineSet
220 689 m 1,0,-1
 334 689 l 1,1,-1
 233 549 l 1,2,-1
 151 549 l 1,3,-1
 220 689 l 1,0,-1
5 489 m 1,4,-1
 146 489 l 1,5,-1
 194 235 l 2,6,7
 198 214 198 214 207 153 c 1,8,-1
 209 153 l 1,9,10
 211 165 211 165 221 233 c 2,11,-1
 262 489 l 1,12,-1
 390 489 l 1,13,-1
 290 112 l 2,14,15
 244 -63 244 -63 181 -138 c 0,16,17
 131 -197 131 -197 70 -215 c 1,18,-1
 30 -102 l 1,19,20
 62 -91 62 -91 95 -61 c 1,21,22
 122 -35 122 -35 136 -3 c 0,23,24
 143 13 143 13 143 18 c 0,25,26
 143 24 143 24 139 36 c 2,27,-1
 5 489 l 1,4,-1
EndSplineSet
EndChar

StartChar: thorn
Encoding: 254 254 192
Width: 447
GlyphClass: 2
Flags: W
LayerCount: 2
Fore
SplineSet
45 671 m 1,0,-1
 175 671 l 1,1,-1
 175 430 l 1,2,-1
 177 430 l 1,3,4
 208 497 208 497 274 497 c 0,5,6
 345 497 345 497 381.5 425.5 c 128,-1,7
 418 354 418 354 418 245 c 0,8,9
 418 123 418 123 373 57.5 c 128,-1,10
 328 -8 328 -8 268 -8 c 0,11,12
 204 -8 204 -8 178 45 c 1,13,-1
 176 45 l 1,14,-1
 176 -192 l 1,15,-1
 45 -192 l 1,16,-1
 45 671 l 1,0,-1
176 311 m 2,17,-1
 176 180 l 2,18,19
 176 149 176 149 184 135 c 1,20,21
 197 99 197 99 224 99 c 0,22,23
 287 99 287 99 287 244 c 0,24,25
 287 312 287 312 271 349.5 c 128,-1,26
 255 387 255 387 227 387 c 0,27,28
 213 387 213 387 201 376 c 128,-1,29
 189 365 189 365 183 348 c 1,30,31
 176 333 176 333 176 311 c 2,17,-1
EndSplineSet
EndChar

StartChar: ydieresis
Encoding: 255 255 193
Width: 391
GlyphClass: 2
Flags: W
LayerCount: 2
Fore
SplineSet
110 560 m 2,0,-1
 109 560 l 2,1,2
 85 560 85 560 67.5 578.5 c 128,-1,3
 50 597 50 597 50 624 c 128,-1,4
 50 651 50 651 67.5 669.5 c 128,-1,5
 85 688 85 688 110 688 c 0,6,7
 136 688 136 688 153 670 c 128,-1,8
 170 652 170 652 170 624 c 128,-1,9
 170 596 170 596 153 578 c 128,-1,10
 136 560 136 560 110 560 c 2,0,-1
288 560 m 2,11,-1
 287 560 l 2,12,13
 262 560 262 560 244.5 578.5 c 128,-1,14
 227 597 227 597 227 624 c 128,-1,15
 227 651 227 651 245 669.5 c 128,-1,16
 263 688 263 688 288 688 c 128,-1,17
 313 688 313 688 330 670 c 128,-1,18
 347 652 347 652 347 624 c 128,-1,19
 347 596 347 596 330.5 578 c 128,-1,20
 314 560 314 560 288 560 c 2,11,-1
5 489 m 1,21,-1
 146 489 l 1,22,-1
 194 235 l 2,23,24
 198 214 198 214 207 153 c 1,25,-1
 209 153 l 1,26,27
 211 165 211 165 221 233 c 2,28,-1
 262 489 l 1,29,-1
 390 489 l 1,30,-1
 290 112 l 2,31,32
 244 -63 244 -63 181 -138 c 0,33,34
 131 -197 131 -197 70 -215 c 1,35,-1
 30 -102 l 1,36,37
 62 -91 62 -91 95 -61 c 1,38,39
 122 -35 122 -35 136 -3 c 0,40,41
 143 13 143 13 143 18 c 0,42,43
 143 24 143 24 139 36 c 2,44,-1
 5 489 l 1,21,-1
EndSplineSet
EndChar

StartChar: Amacron
Encoding: 256 256 194
Width: 458
GlyphClass: 2
Flags: W
LayerCount: 2
Fore
SplineSet
286 154 m 1,0,-1
 165 154 l 1,1,-1
 135 0 l 1,2,-1
 8 0 l 1,3,-1
 154 674 l 1,4,-1
 311 674 l 1,5,-1
 442 0 l 1,6,-1
 315 0 l 1,7,-1
 286 154 l 1,0,-1
178 256 m 1,8,-1
 274 256 l 1,9,-1
 252 397 l 2,10,11
 245 440 245 440 230 550 c 1,12,-1
 227 550 l 1,13,14
 203 398 203 398 203 396 c 2,15,-1
 178 256 l 1,8,-1
112 815 m 1,16,-1
 347 815 l 1,17,-1
 347 736 l 1,18,-1
 112 736 l 1,19,-1
 112 815 l 1,16,-1
EndSplineSet
Position2: "'cpsp' Capital Spacing lookup 0 subtable" dx=10 dy=0 dh=20 dv=0
EndChar

StartChar: amacron
Encoding: 257 257 195
Width: 422
GlyphClass: 2
Flags: W
LayerCount: 2
Fore
SplineSet
105 656 m 1,0,-1
 318 656 l 1,1,-1
 318 582 l 1,2,-1
 105 582 l 1,3,-1
 105 656 l 1,0,-1
375 294 m 2,4,-1
 375 112 l 2,5,6
 375 44 375 44 383 0 c 1,7,-1
 265 0 l 1,8,-1
 258 48 l 1,9,-1
 256 48 l 1,10,11
 216 -8 216 -8 148 -8 c 0,12,13
 92 -8 92 -8 55.5 34 c 128,-1,14
 19 76 19 76 19 141 c 0,15,16
 19 202 19 202 52.5 244.5 c 128,-1,17
 86 287 86 287 135 304.5 c 128,-1,18
 184 322 184 322 243 323 c 1,19,-1
 243 334 l 2,20,21
 243 364 243 364 225 382 c 128,-1,22
 207 400 207 400 174 400 c 0,23,24
 119 400 119 400 74 372 c 1,25,-1
 50 460 l 1,26,27
 112 497 112 497 202 497 c 0,28,29
 245 497 245 497 277 485 c 128,-1,30
 309 473 309 473 327.5 454.5 c 128,-1,31
 346 436 346 436 357 408 c 128,-1,32
 368 380 368 380 371.5 353.5 c 128,-1,33
 375 327 375 327 375 294 c 2,4,-1
247 153 m 2,34,-1
 247 238 l 1,35,36
 143 236 143 236 143 155 c 0,37,38
 143 122 143 122 157.5 105 c 128,-1,39
 172 88 172 88 190 88 c 0,40,41
 207 88 207 88 222.5 99 c 128,-1,42
 238 110 238 110 244 130 c 0,43,44
 247 140 247 140 247 153 c 2,34,-1
EndSplineSet
EndChar

StartChar: Abreve
Encoding: 258 258 196
Width: 458
GlyphClass: 2
Flags: W
LayerCount: 2
Fore
SplineSet
286 154 m 1,0,-1
 165 154 l 1,1,-1
 135 0 l 1,2,-1
 8 0 l 1,3,-1
 154 674 l 1,4,-1
 311 674 l 1,5,-1
 442 0 l 1,6,-1
 315 0 l 1,7,-1
 286 154 l 1,0,-1
178 256 m 1,8,-1
 274 256 l 1,9,-1
 252 397 l 2,10,11
 245 440 245 440 230 550 c 1,12,-1
 227 550 l 1,13,14
 203 398 203 398 203 396 c 2,15,-1
 178 256 l 1,8,-1
109 825 m 1,16,-1
 180 825 l 1,17,18
 181 805 181 805 194 793 c 128,-1,19
 207 781 207 781 230 781 c 0,20,21
 278 781 278 781 281 825 c 1,22,-1
 351 825 l 1,23,24
 351 771 351 771 320.5 740 c 128,-1,25
 290 709 290 709 231 709 c 0,26,27
 171 709 171 709 140 740 c 128,-1,28
 109 771 109 771 109 825 c 1,16,-1
EndSplineSet
Position2: "'cpsp' Capital Spacing lookup 0 subtable" dx=10 dy=0 dh=20 dv=0
EndChar

StartChar: abreve
Encoding: 259 259 197
Width: 422
GlyphClass: 2
Flags: W
LayerCount: 2
Fore
SplineSet
92 679 m 1,0,-1
 157 679 l 1,1,2
 160 654 160 654 174 640 c 128,-1,3
 188 626 188 626 210 626 c 0,4,5
 236 626 236 626 250.5 641 c 128,-1,6
 265 656 265 656 266 679 c 1,7,-1
 330 679 l 1,8,9
 332 625 332 625 297.5 588.5 c 128,-1,10
 263 552 263 552 209 552 c 0,11,12
 156 552 156 552 123 588.5 c 128,-1,13
 90 625 90 625 92 679 c 1,0,-1
375 294 m 2,14,-1
 375 112 l 2,15,16
 375 44 375 44 383 0 c 1,17,-1
 265 0 l 1,18,-1
 258 48 l 1,19,-1
 256 48 l 1,20,21
 216 -8 216 -8 148 -8 c 0,22,23
 92 -8 92 -8 55.5 34 c 128,-1,24
 19 76 19 76 19 141 c 0,25,26
 19 202 19 202 52.5 244.5 c 128,-1,27
 86 287 86 287 135 304.5 c 128,-1,28
 184 322 184 322 243 323 c 1,29,-1
 243 334 l 2,30,31
 243 364 243 364 225 382 c 128,-1,32
 207 400 207 400 174 400 c 0,33,34
 119 400 119 400 74 372 c 1,35,-1
 50 460 l 1,36,37
 112 497 112 497 202 497 c 0,38,39
 245 497 245 497 277 485 c 128,-1,40
 309 473 309 473 327.5 454.5 c 128,-1,41
 346 436 346 436 357 408 c 128,-1,42
 368 380 368 380 371.5 353.5 c 128,-1,43
 375 327 375 327 375 294 c 2,14,-1
247 153 m 2,44,-1
 247 238 l 1,45,46
 143 236 143 236 143 155 c 0,47,48
 143 122 143 122 157.5 105 c 128,-1,49
 172 88 172 88 190 88 c 0,50,51
 207 88 207 88 222.5 99 c 128,-1,52
 238 110 238 110 244 130 c 0,53,54
 247 140 247 140 247 153 c 2,44,-1
EndSplineSet
EndChar

StartChar: Aogonek
Encoding: 260 260 198
Width: 458
GlyphClass: 2
Flags: W
LayerCount: 2
Fore
SplineSet
311 674 m 1,0,-1
 442 0 l 1,1,-1
 395 0 l 1,2,3
 368 -43 368 -43 368 -78 c 0,4,5
 368 -97 368 -97 380 -109 c 128,-1,6
 392 -121 392 -121 409 -121 c 0,7,8
 430 -121 430 -121 447 -114 c 1,9,-1
 463 -181 l 1,10,11
 429 -205 429 -205 376 -205 c 0,12,13
 328 -205 328 -205 303 -179.5 c 128,-1,14
 278 -154 278 -154 278 -109 c 0,15,16
 278 -98 278 -98 280 -85.5 c 128,-1,17
 282 -73 282 -73 285 -63.5 c 128,-1,18
 288 -54 288 -54 292.5 -42.5 c 128,-1,19
 297 -31 297 -31 300 -25.5 c 128,-1,20
 303 -20 303 -20 308 -9.5 c 128,-1,21
 313 1 313 1 314 2 c 1,22,-1
 286 154 l 1,23,-1
 165 154 l 1,24,-1
 135 0 l 1,25,-1
 8 0 l 1,26,-1
 154 674 l 1,27,-1
 311 674 l 1,0,-1
178 256 m 1,28,-1
 274 256 l 1,29,-1
 252 397 l 2,30,31
 245 440 245 440 230 550 c 1,32,-1
 227 550 l 1,33,34
 203 398 203 398 203 396 c 2,35,-1
 178 256 l 1,28,-1
EndSplineSet
Position2: "'cpsp' Capital Spacing lookup 0 subtable" dx=10 dy=0 dh=20 dv=0
EndChar

StartChar: aogonek
Encoding: 261 261 199
Width: 422
GlyphClass: 2
Flags: W
LayerCount: 2
Fore
SplineSet
375 294 m 2,0,-1
 375 112 l 2,1,2
 375 43 375 43 383 0 c 1,3,-1
 346 0 l 1,4,5
 320 -42 320 -42 320 -80 c 0,6,7
 320 -98 320 -98 332 -110 c 128,-1,8
 344 -122 344 -122 361 -122 c 0,9,10
 386 -122 386 -122 399 -116 c 1,11,-1
 415 -182 l 1,12,13
 380 -207 380 -207 328 -207 c 0,14,15
 280 -207 280 -207 255 -181 c 128,-1,16
 230 -155 230 -155 230 -111 c 0,17,18
 230 -97 230 -97 232.5 -83 c 128,-1,19
 235 -69 235 -69 240 -55.5 c 128,-1,20
 245 -42 245 -42 248.5 -34 c 128,-1,21
 252 -26 252 -26 258 -13.5 c 128,-1,22
 264 -1 264 -1 265 0 c 1,23,-1
 258 48 l 1,24,-1
 256 48 l 1,25,26
 216 -8 216 -8 148 -8 c 0,27,28
 92 -8 92 -8 55.5 34 c 128,-1,29
 19 76 19 76 19 141 c 0,30,31
 19 202 19 202 52.5 244.5 c 128,-1,32
 86 287 86 287 135 304.5 c 128,-1,33
 184 322 184 322 243 323 c 1,34,-1
 243 334 l 2,35,36
 243 364 243 364 225 382 c 128,-1,37
 207 400 207 400 174 400 c 0,38,39
 119 400 119 400 74 372 c 1,40,-1
 50 460 l 1,41,42
 112 497 112 497 202 497 c 0,43,44
 245 497 245 497 277 485 c 128,-1,45
 309 473 309 473 327.5 454.5 c 128,-1,46
 346 436 346 436 357 408 c 128,-1,47
 368 380 368 380 371.5 353.5 c 128,-1,48
 375 327 375 327 375 294 c 2,0,-1
247 153 m 2,49,-1
 247 238 l 1,50,51
 143 236 143 236 143 155 c 0,52,53
 143 122 143 122 157.5 105 c 128,-1,54
 172 88 172 88 190 88 c 0,55,56
 207 88 207 88 222.5 99 c 128,-1,57
 238 110 238 110 244 130 c 0,58,59
 247 140 247 140 247 153 c 2,49,-1
EndSplineSet
EndChar

StartChar: Cacute
Encoding: 262 262 200
Width: 395
GlyphClass: 2
Flags: W
LayerCount: 2
Fore
SplineSet
368 120 m 1,0,-1
 381 10 l 1,1,2
 347 -6 347 -6 279 -6 c 0,3,4
 155 -6 155 -6 90 85.5 c 128,-1,5
 25 177 25 177 25 327 c 0,6,7
 25 418 25 418 48.5 488.5 c 128,-1,8
 72 559 72 559 112 599.5 c 128,-1,9
 152 640 152 640 199 660 c 128,-1,10
 246 680 246 680 297 680 c 0,11,12
 362 680 362 680 388 662 c 1,13,-1
 366 552 l 1,14,15
 338 565 338 565 305 565 c 0,16,17
 244 565 244 565 204 508 c 128,-1,18
 164 451 164 451 164 334 c 0,19,20
 164 219 164 219 202.5 164.5 c 128,-1,21
 241 110 241 110 305 110 c 0,22,23
 336 110 336 110 368 120 c 1,0,-1
275 823 m 1,24,-1
 408 823 l 1,25,-1
 286 710 l 1,26,-1
 193 710 l 1,27,-1
 275 823 l 1,24,-1
EndSplineSet
Position2: "'cpsp' Capital Spacing lookup 0 subtable" dx=10 dy=0 dh=20 dv=0
EndChar

StartChar: cacute
Encoding: 263 263 201
Width: 323
GlyphClass: 2
Flags: W
LayerCount: 2
Fore
SplineSet
230 689 m 1,0,-1
 344 689 l 1,1,-1
 243 549 l 1,2,-1
 161 549 l 1,3,-1
 230 689 l 1,0,-1
306 111 m 1,4,-1
 317 8 l 1,5,6
 287 -6 287 -6 234 -6 c 0,7,8
 139 -6 139 -6 84 58 c 128,-1,9
 29 122 29 122 29 240 c 0,10,11
 29 354 29 354 90.5 425 c 128,-1,12
 152 496 152 496 253 496 c 0,13,14
 297 496 297 496 325 483 c 1,15,-1
 308 380 l 1,16,17
 283 389 283 389 259 389 c 0,18,19
 213 389 213 389 186 349 c 128,-1,20
 159 309 159 309 159 244 c 0,21,22
 159 177 159 177 185 139 c 128,-1,23
 211 101 211 101 257 101 c 0,24,25
 286 101 286 101 306 111 c 1,4,-1
EndSplineSet
EndChar

StartChar: Ccircumflex
Encoding: 264 264 202
Width: 395
GlyphClass: 2
Flags: W
LayerCount: 2
Fore
SplineSet
368 120 m 1,0,-1
 381 10 l 1,1,2
 347 -6 347 -6 279 -6 c 0,3,4
 155 -6 155 -6 90 85.5 c 128,-1,5
 25 177 25 177 25 327 c 0,6,7
 25 418 25 418 48.5 488.5 c 128,-1,8
 72 559 72 559 112 599.5 c 128,-1,9
 152 640 152 640 199 660 c 128,-1,10
 246 680 246 680 297 680 c 0,11,12
 362 680 362 680 388 662 c 1,13,-1
 366 552 l 1,14,15
 338 565 338 565 305 565 c 0,16,17
 244 565 244 565 204 508 c 128,-1,18
 164 451 164 451 164 334 c 0,19,20
 164 219 164 219 202.5 164.5 c 128,-1,21
 241 110 241 110 305 110 c 0,22,23
 336 110 336 110 368 120 c 1,0,-1
198 820 m 1,24,-1
 301 820 l 1,25,-1
 385 710 l 1,26,-1
 289 710 l 1,27,-1
 250 761 l 1,28,-1
 248 761 l 1,29,-1
 210 710 l 1,30,-1
 117 710 l 1,31,-1
 198 820 l 1,24,-1
EndSplineSet
Position2: "'cpsp' Capital Spacing lookup 0 subtable" dx=10 dy=0 dh=20 dv=0
EndChar

StartChar: ccircumflex
Encoding: 265 265 203
Width: 323
GlyphClass: 2
Flags: W
LayerCount: 2
Fore
SplineSet
158 689 m 1,0,-1
 249 689 l 1,1,-1
 335 549 l 1,2,-1
 245 549 l 1,3,-1
 205 629 l 1,4,-1
 203 629 l 1,5,-1
 163 549 l 1,6,-1
 72 549 l 1,7,-1
 158 689 l 1,0,-1
306 111 m 1,8,-1
 317 8 l 1,9,10
 287 -6 287 -6 234 -6 c 0,11,12
 139 -6 139 -6 84 58 c 128,-1,13
 29 122 29 122 29 240 c 0,14,15
 29 354 29 354 90.5 425 c 128,-1,16
 152 496 152 496 253 496 c 0,17,18
 297 496 297 496 325 483 c 1,19,-1
 308 380 l 1,20,21
 283 389 283 389 259 389 c 0,22,23
 213 389 213 389 186 349 c 128,-1,24
 159 309 159 309 159 244 c 0,25,26
 159 177 159 177 185 139 c 128,-1,27
 211 101 211 101 257 101 c 0,28,29
 286 101 286 101 306 111 c 1,8,-1
EndSplineSet
EndChar

StartChar: Cdotaccent
Encoding: 266 266 204
Width: 395
GlyphClass: 2
Flags: W
LayerCount: 2
Fore
SplineSet
368 120 m 1,0,-1
 381 10 l 1,1,2
 347 -6 347 -6 279 -6 c 0,3,4
 155 -6 155 -6 90 85.5 c 128,-1,5
 25 177 25 177 25 327 c 0,6,7
 25 418 25 418 48.5 488.5 c 128,-1,8
 72 559 72 559 112 599.5 c 128,-1,9
 152 640 152 640 199 660 c 128,-1,10
 246 680 246 680 297 680 c 0,11,12
 362 680 362 680 388 662 c 1,13,-1
 366 552 l 1,14,15
 338 565 338 565 305 565 c 0,16,17
 244 565 244 565 204 508 c 128,-1,18
 164 451 164 451 164 334 c 0,19,20
 164 219 164 219 202.5 164.5 c 128,-1,21
 241 110 241 110 305 110 c 0,22,23
 336 110 336 110 368 120 c 1,0,-1
253 713 m 2,24,-1
 252 713 l 2,25,26
 227 713 227 713 209 732 c 128,-1,27
 191 751 191 751 191 777 c 128,-1,28
 191 803 191 803 209.5 822 c 128,-1,29
 228 841 228 841 253 841 c 0,30,31
 279 841 279 841 297.5 822 c 128,-1,32
 316 803 316 803 316 777 c 128,-1,33
 316 751 316 751 297.5 732 c 128,-1,34
 279 713 279 713 253 713 c 2,24,-1
EndSplineSet
Position2: "'cpsp' Capital Spacing lookup 0 subtable" dx=10 dy=0 dh=20 dv=0
EndChar

StartChar: cdotaccent
Encoding: 267 267 205
Width: 323
GlyphClass: 2
Flags: W
LayerCount: 2
Fore
SplineSet
203 560 m 2,0,-1
 202 560 l 2,1,2
 178 560 178 560 160.5 578.5 c 128,-1,3
 143 597 143 597 143 624 c 128,-1,4
 143 651 143 651 161 669.5 c 128,-1,5
 179 688 179 688 203 688 c 0,6,7
 229 688 229 688 246 670 c 128,-1,8
 263 652 263 652 263 624 c 128,-1,9
 263 596 263 596 246 578 c 128,-1,10
 229 560 229 560 203 560 c 2,0,-1
306 111 m 1,11,-1
 317 8 l 1,12,13
 287 -6 287 -6 234 -6 c 0,14,15
 139 -6 139 -6 84 58 c 128,-1,16
 29 122 29 122 29 240 c 0,17,18
 29 354 29 354 90.5 425 c 128,-1,19
 152 496 152 496 253 496 c 0,20,21
 297 496 297 496 325 483 c 1,22,-1
 308 380 l 1,23,24
 283 389 283 389 259 389 c 0,25,26
 213 389 213 389 186 349 c 128,-1,27
 159 309 159 309 159 244 c 0,28,29
 159 177 159 177 185 139 c 128,-1,30
 211 101 211 101 257 101 c 0,31,32
 286 101 286 101 306 111 c 1,11,-1
EndSplineSet
EndChar

StartChar: Ccaron
Encoding: 268 268 206
Width: 395
GlyphClass: 2
Flags: W
LayerCount: 2
Fore
SplineSet
368 120 m 1,0,-1
 381 10 l 1,1,2
 347 -6 347 -6 279 -6 c 0,3,4
 155 -6 155 -6 90 85.5 c 128,-1,5
 25 177 25 177 25 327 c 0,6,7
 25 418 25 418 48.5 488.5 c 128,-1,8
 72 559 72 559 112 599.5 c 128,-1,9
 152 640 152 640 199 660 c 128,-1,10
 246 680 246 680 297 680 c 0,11,12
 362 680 362 680 388 662 c 1,13,-1
 366 552 l 1,14,15
 338 565 338 565 305 565 c 0,16,17
 244 565 244 565 204 508 c 128,-1,18
 164 451 164 451 164 334 c 0,19,20
 164 219 164 219 202.5 164.5 c 128,-1,21
 241 110 241 110 305 110 c 0,22,23
 336 110 336 110 368 120 c 1,0,-1
313 710 m 1,24,-1
 211 710 l 1,25,-1
 127 820 l 1,26,-1
 222 820 l 1,27,-1
 261 767 l 1,28,-1
 263 767 l 1,29,-1
 302 820 l 1,30,-1
 394 820 l 1,31,-1
 313 710 l 1,24,-1
EndSplineSet
Position2: "'cpsp' Capital Spacing lookup 0 subtable" dx=10 dy=0 dh=20 dv=0
EndChar

StartChar: ccaron
Encoding: 269 269 207
Width: 323
GlyphClass: 2
Flags: W
LayerCount: 2
Fore
SplineSet
249 549 m 1,0,-1
 157 549 l 1,1,-1
 72 689 l 1,2,-1
 161 689 l 1,3,-1
 202 609 l 1,4,-1
 204 609 l 1,5,-1
 244 689 l 1,6,-1
 335 689 l 1,7,-1
 249 549 l 1,0,-1
306 111 m 1,8,-1
 317 8 l 1,9,10
 287 -6 287 -6 234 -6 c 0,11,12
 139 -6 139 -6 84 58 c 128,-1,13
 29 122 29 122 29 240 c 0,14,15
 29 354 29 354 90.5 425 c 128,-1,16
 152 496 152 496 253 496 c 0,17,18
 297 496 297 496 325 483 c 1,19,-1
 308 380 l 1,20,21
 283 389 283 389 259 389 c 0,22,23
 213 389 213 389 186 349 c 128,-1,24
 159 309 159 309 159 244 c 0,25,26
 159 177 159 177 185 139 c 128,-1,27
 211 101 211 101 257 101 c 0,28,29
 286 101 286 101 306 111 c 1,8,-1
EndSplineSet
EndChar

StartChar: Dcaron
Encoding: 270 270 208
Width: 491
GlyphClass: 2
Flags: W
LayerCount: 2
Fore
SplineSet
58 2 m 1,0,-1
 58 664 l 1,1,2
 112 677 112 677 191 677 c 0,3,4
 314 677 314 677 378 617 c 1,5,6
 466 538 466 538 466 345 c 0,7,8
 466 143 466 143 372 60 c 1,9,10
 306 -5 306 -5 166 -5 c 0,11,12
 119 -5 119 -5 58 2 c 1,0,-1
189 569 m 1,13,-1
 189 104 l 1,14,15
 195 102 195 102 212 102 c 0,16,17
 264 102 264 102 297 161 c 128,-1,18
 330 220 330 220 330 350 c 0,19,20
 330 572 330 572 215 572 c 0,21,22
 197 572 197 572 189 569 c 1,13,-1
269 710 m 1,23,-1
 167 710 l 1,24,-1
 83 820 l 1,25,-1
 178 820 l 1,26,-1
 217 767 l 1,27,-1
 219 767 l 1,28,-1
 258 820 l 1,29,-1
 350 820 l 1,30,-1
 269 710 l 1,23,-1
EndSplineSet
Position2: "'cpsp' Capital Spacing lookup 0 subtable" dx=10 dy=0 dh=20 dv=0
EndChar

StartChar: dcaron
Encoding: 271 271 209
Width: 457
GlyphClass: 2
Flags: W
LayerCount: 2
Fore
SplineSet
270 692 m 1,0,-1
 401 692 l 1,1,-1
 401 145 l 2,2,3
 401 90 401 90 405 0 c 1,4,-1
 292 0 l 1,5,-1
 285 55 l 1,6,-1
 283 55 l 1,7,8
 269 28 269 28 241 10 c 128,-1,9
 213 -8 213 -8 181 -8 c 0,10,11
 107 -8 107 -8 68 63.5 c 128,-1,12
 29 135 29 135 29 244 c 0,13,14
 29 365 29 365 74.5 431 c 128,-1,15
 120 497 120 497 186 497 c 0,16,17
 247 497 247 497 268 448 c 1,18,-1
 270 448 l 1,19,-1
 270 692 l 1,0,-1
270 172 m 2,20,-1
 270 301 l 2,21,22
 270 320 270 320 269 330 c 0,23,24
 265 354 265 354 252.5 370.5 c 128,-1,25
 240 387 240 387 222 387 c 0,26,27
 159 387 159 387 159 241 c 0,28,29
 159 173 159 173 176 136 c 128,-1,30
 193 99 193 99 221 99 c 0,31,32
 253 99 253 99 266 142 c 1,33,34
 270 151 270 151 270 172 c 2,20,-1
492 492 m 1,35,-1
 443 528 l 1,36,37
 473 570 473 570 473 616 c 0,38,39
 473 655 473 655 446 682 c 1,40,-1
 527 695 l 1,41,42
 561 673 561 673 561 621 c 0,43,44
 561 554 561 554 492 492 c 1,35,-1
EndSplineSet
EndChar

StartChar: Dcroat
Encoding: 272 272 210
Width: 493
GlyphClass: 2
Flags: W
LayerCount: 2
Fore
SplineSet
0 303 m 1,0,-1
 0 394 l 1,1,-1
 61 394 l 1,2,-1
 61 664 l 1,3,4
 113 677 113 677 194 677 c 0,5,6
 316 677 316 677 381 617 c 1,7,8
 468 539 468 539 468 345 c 0,9,10
 468 144 468 144 375 59 c 0,11,12
 305 -6 305 -6 169 -6 c 0,13,14
 111 -6 111 -6 61 2 c 1,15,-1
 61 303 l 1,16,-1
 0 303 l 1,0,-1
265 394 m 1,17,-1
 265 303 l 1,18,-1
 191 303 l 1,19,-1
 191 103 l 1,20,21
 198 101 198 101 215 101 c 0,22,23
 267 101 267 101 300 160 c 128,-1,24
 333 219 333 219 333 350 c 0,25,26
 333 572 333 572 217 572 c 0,27,28
 203 572 203 572 191 569 c 1,29,-1
 191 394 l 1,30,-1
 265 394 l 1,17,-1
EndSplineSet
Position2: "'cpsp' Capital Spacing lookup 0 subtable" dx=10 dy=0 dh=20 dv=0
EndChar

StartChar: dcroat
Encoding: 273 273 211
Width: 447
GlyphClass: 2
Flags: W
LayerCount: 2
Fore
SplineSet
461 533 m 1,0,-1
 401 533 l 1,1,-1
 401 145 l 2,2,3
 401 90 401 90 405 0 c 1,4,-1
 292 0 l 1,5,-1
 285 55 l 1,6,-1
 283 55 l 1,7,8
 269 28 269 28 241 10 c 128,-1,9
 213 -8 213 -8 181 -8 c 0,10,11
 107 -8 107 -8 68 63.5 c 128,-1,12
 29 135 29 135 29 244 c 0,13,14
 29 365 29 365 74.5 431 c 128,-1,15
 120 497 120 497 186 497 c 0,16,17
 247 497 247 497 268 448 c 1,18,-1
 270 448 l 1,19,-1
 270 533 l 1,20,-1
 142 533 l 1,21,-1
 142 614 l 1,22,-1
 270 614 l 1,23,-1
 270 692 l 1,24,-1
 401 692 l 1,25,-1
 401 614 l 1,26,-1
 461 614 l 1,27,-1
 461 533 l 1,0,-1
270 172 m 2,28,-1
 270 301 l 2,29,30
 270 320 270 320 269 330 c 0,31,32
 265 354 265 354 252.5 370.5 c 128,-1,33
 240 387 240 387 222 387 c 0,34,35
 159 387 159 387 159 241 c 0,36,37
 159 173 159 173 176 136 c 128,-1,38
 193 99 193 99 221 99 c 0,39,40
 253 99 253 99 266 142 c 1,41,42
 270 151 270 151 270 172 c 2,28,-1
EndSplineSet
EndChar

StartChar: Emacron
Encoding: 274 274 212
Width: 394
GlyphClass: 2
Flags: W
LayerCount: 2
Fore
SplineSet
343 405 m 1,0,-1
 343 296 l 1,1,-1
 189 296 l 1,2,-1
 189 114 l 1,3,-1
 363 114 l 1,4,-1
 363 0 l 1,5,-1
 58 0 l 1,6,-1
 58 674 l 1,7,-1
 351 674 l 1,8,-1
 351 560 l 1,9,-1
 189 560 l 1,10,-1
 189 405 l 1,11,-1
 343 405 l 1,0,-1
85 815 m 1,12,-1
 320 815 l 1,13,-1
 320 736 l 1,14,-1
 85 736 l 1,15,-1
 85 815 l 1,12,-1
EndSplineSet
Position2: "'cpsp' Capital Spacing lookup 0 subtable" dx=10 dy=0 dh=20 dv=0
EndChar

StartChar: emacron
Encoding: 275 275 213
Width: 419
GlyphClass: 2
Flags: W
LayerCount: 2
Fore
SplineSet
105 656 m 1,0,-1
 318 656 l 1,1,-1
 318 582 l 1,2,-1
 105 582 l 1,3,-1
 105 656 l 1,0,-1
387 198 m 1,4,-1
 155 198 l 1,5,6
 158 94 158 94 259 94 c 0,7,8
 306 94 306 94 352 110 c 1,9,-1
 370 16 l 1,10,11
 312 -6 312 -6 235 -6 c 0,12,13
 136 -6 136 -6 82.5 57 c 128,-1,14
 29 120 29 120 29 235 c 0,15,16
 29 355 29 355 84.5 426 c 128,-1,17
 140 497 140 497 225 497 c 0,18,19
 304 497 304 497 347.5 437 c 128,-1,20
 391 377 391 377 391 266 c 0,21,22
 391 217 391 217 387 198 c 1,4,-1
156 290 m 1,23,-1
 272 290 l 1,24,25
 272 402 272 402 217 402 c 0,26,27
 188 402 188 402 172.5 367.5 c 128,-1,28
 157 333 157 333 156 290 c 1,23,-1
EndSplineSet
EndChar

StartChar: Ebreve
Encoding: 276 276 214
Width: 394
GlyphClass: 2
Flags: W
LayerCount: 2
Fore
SplineSet
343 405 m 1,0,-1
 343 296 l 1,1,-1
 189 296 l 1,2,-1
 189 114 l 1,3,-1
 363 114 l 1,4,-1
 363 0 l 1,5,-1
 58 0 l 1,6,-1
 58 674 l 1,7,-1
 351 674 l 1,8,-1
 351 560 l 1,9,-1
 189 560 l 1,10,-1
 189 405 l 1,11,-1
 343 405 l 1,0,-1
86 829 m 1,12,-1
 157 829 l 1,13,14
 158 809 158 809 171 797 c 128,-1,15
 184 785 184 785 207 785 c 0,16,17
 255 785 255 785 258 829 c 1,18,-1
 328 829 l 1,19,20
 328 775 328 775 297.5 744 c 128,-1,21
 267 713 267 713 208 713 c 0,22,23
 148 713 148 713 117 744 c 128,-1,24
 86 775 86 775 86 829 c 1,12,-1
EndSplineSet
Position2: "'cpsp' Capital Spacing lookup 0 subtable" dx=10 dy=0 dh=20 dv=0
EndChar

StartChar: ebreve
Encoding: 277 277 215
Width: 419
GlyphClass: 2
Flags: W
LayerCount: 2
Fore
SplineSet
97 679 m 1,0,-1
 162 679 l 1,1,2
 165 654 165 654 179 640 c 128,-1,3
 193 626 193 626 215 626 c 0,4,5
 241 626 241 626 255.5 641 c 128,-1,6
 270 656 270 656 271 679 c 1,7,-1
 335 679 l 1,8,9
 337 625 337 625 302.5 588.5 c 128,-1,10
 268 552 268 552 214 552 c 0,11,12
 161 552 161 552 128 588.5 c 128,-1,13
 95 625 95 625 97 679 c 1,0,-1
387 198 m 1,14,-1
 155 198 l 1,15,16
 158 94 158 94 259 94 c 0,17,18
 306 94 306 94 352 110 c 1,19,-1
 370 16 l 1,20,21
 312 -6 312 -6 235 -6 c 0,22,23
 136 -6 136 -6 82.5 57 c 128,-1,24
 29 120 29 120 29 235 c 0,25,26
 29 355 29 355 84.5 426 c 128,-1,27
 140 497 140 497 225 497 c 0,28,29
 304 497 304 497 347.5 437 c 128,-1,30
 391 377 391 377 391 266 c 0,31,32
 391 217 391 217 387 198 c 1,14,-1
156 290 m 1,33,-1
 272 290 l 1,34,35
 272 402 272 402 217 402 c 0,36,37
 188 402 188 402 172.5 367.5 c 128,-1,38
 157 333 157 333 156 290 c 1,33,-1
EndSplineSet
EndChar

StartChar: Edotaccent
Encoding: 278 278 216
Width: 394
GlyphClass: 2
Flags: W
LayerCount: 2
Fore
SplineSet
343 405 m 1,0,-1
 343 296 l 1,1,-1
 189 296 l 1,2,-1
 189 114 l 1,3,-1
 363 114 l 1,4,-1
 363 0 l 1,5,-1
 58 0 l 1,6,-1
 58 674 l 1,7,-1
 351 674 l 1,8,-1
 351 560 l 1,9,-1
 189 560 l 1,10,-1
 189 405 l 1,11,-1
 343 405 l 1,0,-1
202 715 m 2,12,-1
 201 715 l 2,13,14
 176 715 176 715 158 734 c 128,-1,15
 140 753 140 753 140 779 c 128,-1,16
 140 805 140 805 158.5 824 c 128,-1,17
 177 843 177 843 202 843 c 0,18,19
 228 843 228 843 246.5 824 c 128,-1,20
 265 805 265 805 265 779 c 128,-1,21
 265 753 265 753 246.5 734 c 128,-1,22
 228 715 228 715 202 715 c 2,12,-1
EndSplineSet
Position2: "'cpsp' Capital Spacing lookup 0 subtable" dx=10 dy=0 dh=20 dv=0
EndChar

StartChar: edotaccent
Encoding: 279 279 217
Width: 419
GlyphClass: 2
Flags: W
LayerCount: 2
Fore
SplineSet
218 560 m 2,0,-1
 217 560 l 2,1,2
 193 560 193 560 175.5 578.5 c 128,-1,3
 158 597 158 597 158 624 c 128,-1,4
 158 651 158 651 176 669.5 c 128,-1,5
 194 688 194 688 218 688 c 0,6,7
 244 688 244 688 261 670 c 128,-1,8
 278 652 278 652 278 624 c 128,-1,9
 278 596 278 596 261 578 c 128,-1,10
 244 560 244 560 218 560 c 2,0,-1
387 198 m 1,11,-1
 155 198 l 1,12,13
 158 94 158 94 259 94 c 0,14,15
 306 94 306 94 352 110 c 1,16,-1
 370 16 l 1,17,18
 312 -6 312 -6 235 -6 c 0,19,20
 136 -6 136 -6 82.5 57 c 128,-1,21
 29 120 29 120 29 235 c 0,22,23
 29 355 29 355 84.5 426 c 128,-1,24
 140 497 140 497 225 497 c 0,25,26
 304 497 304 497 347.5 437 c 128,-1,27
 391 377 391 377 391 266 c 0,28,29
 391 217 391 217 387 198 c 1,11,-1
156 290 m 1,30,-1
 272 290 l 1,31,32
 272 402 272 402 217 402 c 0,33,34
 188 402 188 402 172.5 367.5 c 128,-1,35
 157 333 157 333 156 290 c 1,30,-1
EndSplineSet
EndChar

StartChar: Eogonek
Encoding: 280 280 218
Width: 394
GlyphClass: 2
Flags: W
LayerCount: 2
Fore
SplineSet
360 -115 m 1,0,-1
 376 -181 l 1,1,2
 339 -206 339 -206 281 -206 c 0,3,4
 238 -206 238 -206 214.5 -182.5 c 128,-1,5
 191 -159 191 -159 191 -120 c 0,6,7
 191 -59 191 -59 257 0 c 1,8,-1
 58 0 l 1,9,-1
 58 674 l 1,10,-1
 351 674 l 1,11,-1
 351 560 l 1,12,-1
 189 560 l 1,13,-1
 189 405 l 1,14,-1
 343 405 l 1,15,-1
 343 296 l 1,16,-1
 189 296 l 1,17,-1
 189 114 l 1,18,-1
 363 114 l 1,19,-1
 363 0 l 1,20,21
 360 0 360 0 354.5 -0.5 c 128,-1,22
 349 -1 349 -1 346 -1 c 1,23,24
 283 -51 283 -51 283 -90 c 0,25,26
 283 -121 283 -121 320 -121 c 0,27,28
 345 -121 345 -121 360 -115 c 1,0,-1
EndSplineSet
Position2: "'cpsp' Capital Spacing lookup 0 subtable" dx=10 dy=0 dh=20 dv=0
EndChar

StartChar: eogonek
Encoding: 281 281 219
Width: 419
GlyphClass: 2
Flags: W
LayerCount: 2
Fore
SplineSet
329 -109 m 1,0,-1
 351 -173 l 1,1,2
 310 -205 310 -205 257 -205 c 0,3,4
 211 -205 211 -205 187 -182 c 128,-1,5
 163 -159 163 -159 163 -123 c 0,6,7
 163 -61 163 -61 231 -7 c 1,8,-1
 231 -6 l 1,9,-1
 227 -6 l 1,10,11
 131 -3 131 -3 80 59.5 c 128,-1,12
 29 122 29 122 29 235 c 0,13,14
 29 355 29 355 84.5 426 c 128,-1,15
 140 497 140 497 225 497 c 0,16,17
 304 497 304 497 347.5 437 c 128,-1,18
 391 377 391 377 391 266 c 0,19,20
 391 217 391 217 387 198 c 1,21,-1
 155 198 l 1,22,23
 158 94 158 94 259 94 c 0,24,25
 306 94 306 94 352 110 c 1,26,-1
 370 16 l 1,27,28
 363 13 363 13 349 8.5 c 128,-1,29
 335 4 335 4 331 3 c 1,30,31
 294 -20 294 -20 273.5 -45.5 c 128,-1,32
 253 -71 253 -71 253 -91 c 0,33,34
 253 -121 253 -121 282 -121 c 0,35,36
 305 -121 305 -121 329 -109 c 1,0,-1
156 290 m 1,37,-1
 272 290 l 1,38,39
 272 402 272 402 217 402 c 0,40,41
 188 402 188 402 172.5 367.5 c 128,-1,42
 157 333 157 333 156 290 c 1,37,-1
EndSplineSet
EndChar

StartChar: Ecaron
Encoding: 282 282 220
Width: 394
GlyphClass: 2
Flags: W
LayerCount: 2
Fore
SplineSet
343 405 m 1,0,-1
 343 296 l 1,1,-1
 189 296 l 1,2,-1
 189 114 l 1,3,-1
 363 114 l 1,4,-1
 363 0 l 1,5,-1
 58 0 l 1,6,-1
 58 674 l 1,7,-1
 351 674 l 1,8,-1
 351 560 l 1,9,-1
 189 560 l 1,10,-1
 189 405 l 1,11,-1
 343 405 l 1,0,-1
257 710 m 1,12,-1
 155 710 l 1,13,-1
 71 820 l 1,14,-1
 166 820 l 1,15,-1
 205 767 l 1,16,-1
 207 767 l 1,17,-1
 246 820 l 1,18,-1
 338 820 l 1,19,-1
 257 710 l 1,12,-1
EndSplineSet
Position2: "'cpsp' Capital Spacing lookup 0 subtable" dx=10 dy=0 dh=20 dv=0
EndChar

StartChar: ecaron
Encoding: 283 283 221
Width: 419
GlyphClass: 2
Flags: W
LayerCount: 2
Fore
SplineSet
260 549 m 1,0,-1
 168 549 l 1,1,-1
 83 689 l 1,2,-1
 172 689 l 1,3,-1
 213 609 l 1,4,-1
 215 609 l 1,5,-1
 255 689 l 1,6,-1
 346 689 l 1,7,-1
 260 549 l 1,0,-1
387 198 m 1,8,-1
 155 198 l 1,9,10
 158 94 158 94 259 94 c 0,11,12
 306 94 306 94 352 110 c 1,13,-1
 370 16 l 1,14,15
 312 -6 312 -6 235 -6 c 0,16,17
 136 -6 136 -6 82.5 57 c 128,-1,18
 29 120 29 120 29 235 c 0,19,20
 29 355 29 355 84.5 426 c 128,-1,21
 140 497 140 497 225 497 c 0,22,23
 304 497 304 497 347.5 437 c 128,-1,24
 391 377 391 377 391 266 c 0,25,26
 391 217 391 217 387 198 c 1,8,-1
156 290 m 1,27,-1
 272 290 l 1,28,29
 272 402 272 402 217 402 c 0,30,31
 188 402 188 402 172.5 367.5 c 128,-1,32
 157 333 157 333 156 290 c 1,27,-1
EndSplineSet
EndChar

StartChar: Gcircumflex
Encoding: 284 284 222
Width: 472
GlyphClass: 2
Flags: W
LayerCount: 2
Fore
SplineSet
432 378 m 1,0,-1
 432 18 l 1,1,2
 374 -6 374 -6 292 -6 c 0,3,4
 179 -6 179 -6 112 61 c 1,5,6
 22 148 22 148 25 333 c 0,7,8
 26 422 26 422 50.5 490.5 c 128,-1,9
 75 559 75 559 116 599 c 128,-1,10
 157 639 157 639 206.5 659.5 c 128,-1,11
 256 680 256 680 311 680 c 0,12,13
 379 680 379 680 421 660 c 1,14,-1
 398 547 l 1,15,16
 366 562 366 562 321 562 c 0,17,18
 248 562 248 562 204.5 505.5 c 128,-1,19
 161 449 161 449 161 325 c 0,20,21
 161 212 161 212 197 158.5 c 128,-1,22
 233 105 233 105 285 105 c 0,23,24
 304 105 304 105 311 108 c 1,25,-1
 311 271 l 1,26,-1
 251 271 l 1,27,-1
 251 378 l 1,28,-1
 432 378 l 1,0,-1
217 820 m 1,29,-1
 320 820 l 1,30,-1
 404 710 l 1,31,-1
 308 710 l 1,32,-1
 269 761 l 1,33,-1
 267 761 l 1,34,-1
 229 710 l 1,35,-1
 136 710 l 1,36,-1
 217 820 l 1,29,-1
EndSplineSet
Position2: "'cpsp' Capital Spacing lookup 0 subtable" dx=10 dy=0 dh=20 dv=0
EndChar

StartChar: gcircumflex
Encoding: 285 285 223
Width: 447
GlyphClass: 2
Flags: W
LayerCount: 2
Fore
SplineSet
183 689 m 1,0,-1
 274 689 l 1,1,-1
 360 549 l 1,2,-1
 270 549 l 1,3,-1
 230 629 l 1,4,-1
 228 629 l 1,5,-1
 188 549 l 1,6,-1
 97 549 l 1,7,-1
 183 689 l 1,0,-1
402 334 m 2,8,-1
 402 55 l 2,9,10
 402 -90 402 -90 343 -146 c 0,11,12
 286 -200 286 -200 184 -200 c 0,13,14
 116 -200 116 -200 62 -177 c 1,15,-1
 86 -76 l 1,16,17
 134 -97 134 -97 180 -97 c 0,18,19
 272 -97 272 -97 272 22 c 2,20,-1
 272 52 l 1,21,-1
 270 52 l 1,22,23
 243 3 243 3 182 3 c 0,24,25
 130 3 130 3 94 39 c 128,-1,26
 58 75 58 75 43.5 126.5 c 128,-1,27
 29 178 29 178 29 240 c 0,28,29
 29 359 29 359 76 428 c 128,-1,30
 123 497 123 497 194 497 c 0,31,32
 255 497 255 497 284 440 c 1,33,-1
 286 440 l 1,34,-1
 293 489 l 1,35,-1
 407 489 l 1,36,37
 402 379 402 379 402 334 c 2,8,-1
272 180 m 2,38,-1
 272 311 l 2,39,40
 272 330 272 330 267 347 c 0,41,42
 256 387 256 387 225 387 c 0,43,44
 192 387 192 387 175.5 347 c 128,-1,45
 159 307 159 307 159 243 c 0,46,47
 159 177 159 177 176 141.5 c 128,-1,48
 193 106 193 106 222 106 c 0,49,50
 253 106 253 106 266 141 c 0,51,52
 272 158 272 158 272 180 c 2,38,-1
EndSplineSet
EndChar

StartChar: Gbreve
Encoding: 286 286 224
Width: 472
GlyphClass: 2
Flags: W
LayerCount: 2
Fore
SplineSet
432 378 m 1,0,-1
 432 18 l 1,1,2
 374 -6 374 -6 292 -6 c 0,3,4
 179 -6 179 -6 112 61 c 1,5,6
 22 148 22 148 25 333 c 0,7,8
 26 422 26 422 50.5 490.5 c 128,-1,9
 75 559 75 559 116 599 c 128,-1,10
 157 639 157 639 206.5 659.5 c 128,-1,11
 256 680 256 680 311 680 c 0,12,13
 379 680 379 680 421 660 c 1,14,-1
 398 547 l 1,15,16
 366 562 366 562 321 562 c 0,17,18
 248 562 248 562 204.5 505.5 c 128,-1,19
 161 449 161 449 161 325 c 0,20,21
 161 212 161 212 197 158.5 c 128,-1,22
 233 105 233 105 285 105 c 0,23,24
 304 105 304 105 311 108 c 1,25,-1
 311 271 l 1,26,-1
 251 271 l 1,27,-1
 251 378 l 1,28,-1
 432 378 l 1,0,-1
155 825 m 1,29,-1
 226 825 l 1,30,31
 227 805 227 805 240 793 c 128,-1,32
 253 781 253 781 276 781 c 0,33,34
 324 781 324 781 327 825 c 1,35,-1
 397 825 l 1,36,37
 397 771 397 771 366.5 740 c 128,-1,38
 336 709 336 709 277 709 c 0,39,40
 217 709 217 709 186 740 c 128,-1,41
 155 771 155 771 155 825 c 1,29,-1
EndSplineSet
Position2: "'cpsp' Capital Spacing lookup 0 subtable" dx=10 dy=0 dh=20 dv=0
EndChar

StartChar: gbreve
Encoding: 287 287 225
Width: 447
GlyphClass: 2
Flags: W
LayerCount: 2
Fore
SplineSet
114 679 m 1,0,-1
 179 679 l 1,1,2
 182 654 182 654 196 640 c 128,-1,3
 210 626 210 626 232 626 c 0,4,5
 258 626 258 626 272.5 641 c 128,-1,6
 287 656 287 656 288 679 c 1,7,-1
 352 679 l 1,8,9
 354 625 354 625 319.5 588.5 c 128,-1,10
 285 552 285 552 231 552 c 0,11,12
 178 552 178 552 145 588.5 c 128,-1,13
 112 625 112 625 114 679 c 1,0,-1
402 334 m 2,14,-1
 402 55 l 2,15,16
 402 -90 402 -90 343 -146 c 0,17,18
 286 -200 286 -200 184 -200 c 0,19,20
 116 -200 116 -200 62 -177 c 1,21,-1
 86 -76 l 1,22,23
 134 -97 134 -97 180 -97 c 0,24,25
 272 -97 272 -97 272 22 c 2,26,-1
 272 52 l 1,27,-1
 270 52 l 1,28,29
 243 3 243 3 182 3 c 0,30,31
 130 3 130 3 94 39 c 128,-1,32
 58 75 58 75 43.5 126.5 c 128,-1,33
 29 178 29 178 29 240 c 0,34,35
 29 359 29 359 76 428 c 128,-1,36
 123 497 123 497 194 497 c 0,37,38
 255 497 255 497 284 440 c 1,39,-1
 286 440 l 1,40,-1
 293 489 l 1,41,-1
 407 489 l 1,42,43
 402 379 402 379 402 334 c 2,14,-1
272 180 m 2,44,-1
 272 311 l 2,45,46
 272 330 272 330 267 347 c 0,47,48
 256 387 256 387 225 387 c 0,49,50
 192 387 192 387 175.5 347 c 128,-1,51
 159 307 159 307 159 243 c 0,52,53
 159 177 159 177 176 141.5 c 128,-1,54
 193 106 193 106 222 106 c 0,55,56
 253 106 253 106 266 141 c 0,57,58
 272 158 272 158 272 180 c 2,44,-1
EndSplineSet
EndChar

StartChar: Gdotaccent
Encoding: 288 288 226
Width: 472
GlyphClass: 2
Flags: W
LayerCount: 2
Fore
SplineSet
432 378 m 1,0,-1
 432 18 l 1,1,2
 374 -6 374 -6 292 -6 c 0,3,4
 179 -6 179 -6 112 61 c 1,5,6
 22 148 22 148 25 333 c 0,7,8
 26 422 26 422 50.5 490.5 c 128,-1,9
 75 559 75 559 116 599 c 128,-1,10
 157 639 157 639 206.5 659.5 c 128,-1,11
 256 680 256 680 311 680 c 0,12,13
 379 680 379 680 421 660 c 1,14,-1
 398 547 l 1,15,16
 366 562 366 562 321 562 c 0,17,18
 248 562 248 562 204.5 505.5 c 128,-1,19
 161 449 161 449 161 325 c 0,20,21
 161 212 161 212 197 158.5 c 128,-1,22
 233 105 233 105 285 105 c 0,23,24
 304 105 304 105 311 108 c 1,25,-1
 311 271 l 1,26,-1
 251 271 l 1,27,-1
 251 378 l 1,28,-1
 432 378 l 1,0,-1
272 713 m 2,29,-1
 271 713 l 2,30,31
 246 713 246 713 228 732 c 128,-1,32
 210 751 210 751 210 777 c 128,-1,33
 210 803 210 803 228.5 822 c 128,-1,34
 247 841 247 841 272 841 c 0,35,36
 298 841 298 841 316.5 822 c 128,-1,37
 335 803 335 803 335 777 c 128,-1,38
 335 751 335 751 316.5 732 c 128,-1,39
 298 713 298 713 272 713 c 2,29,-1
EndSplineSet
Position2: "'cpsp' Capital Spacing lookup 0 subtable" dx=10 dy=0 dh=20 dv=0
EndChar

StartChar: gdotaccent
Encoding: 289 289 227
Width: 447
GlyphClass: 2
Flags: W
LayerCount: 2
Fore
SplineSet
229 560 m 2,0,-1
 228 560 l 2,1,2
 204 560 204 560 186.5 578.5 c 128,-1,3
 169 597 169 597 169 624 c 128,-1,4
 169 651 169 651 187 669.5 c 128,-1,5
 205 688 205 688 229 688 c 0,6,7
 255 688 255 688 272 670 c 128,-1,8
 289 652 289 652 289 624 c 128,-1,9
 289 596 289 596 272 578 c 128,-1,10
 255 560 255 560 229 560 c 2,0,-1
402 334 m 2,11,-1
 402 55 l 2,12,13
 402 -90 402 -90 343 -146 c 0,14,15
 286 -200 286 -200 184 -200 c 0,16,17
 116 -200 116 -200 62 -177 c 1,18,-1
 86 -76 l 1,19,20
 134 -97 134 -97 180 -97 c 0,21,22
 272 -97 272 -97 272 22 c 2,23,-1
 272 52 l 1,24,-1
 270 52 l 1,25,26
 243 3 243 3 182 3 c 0,27,28
 130 3 130 3 94 39 c 128,-1,29
 58 75 58 75 43.5 126.5 c 128,-1,30
 29 178 29 178 29 240 c 0,31,32
 29 359 29 359 76 428 c 128,-1,33
 123 497 123 497 194 497 c 0,34,35
 255 497 255 497 284 440 c 1,36,-1
 286 440 l 1,37,-1
 293 489 l 1,38,-1
 407 489 l 1,39,40
 402 379 402 379 402 334 c 2,11,-1
272 180 m 2,41,-1
 272 311 l 2,42,43
 272 330 272 330 267 347 c 0,44,45
 256 387 256 387 225 387 c 0,46,47
 192 387 192 387 175.5 347 c 128,-1,48
 159 307 159 307 159 243 c 0,49,50
 159 177 159 177 176 141.5 c 128,-1,51
 193 106 193 106 222 106 c 0,52,53
 253 106 253 106 266 141 c 0,54,55
 272 158 272 158 272 180 c 2,41,-1
EndSplineSet
EndChar

StartChar: Gcommaaccent
Encoding: 290 290 228
Width: 472
GlyphClass: 2
Flags: W
LayerCount: 2
Fore
SplineSet
432 378 m 1,0,-1
 432 18 l 1,1,2
 374 -6 374 -6 292 -6 c 0,3,4
 179 -6 179 -6 112 61 c 1,5,6
 22 148 22 148 25 333 c 0,7,8
 26 422 26 422 50.5 490.5 c 128,-1,9
 75 559 75 559 116 599 c 128,-1,10
 157 639 157 639 206.5 659.5 c 128,-1,11
 256 680 256 680 311 680 c 0,12,13
 379 680 379 680 421 660 c 1,14,-1
 398 547 l 1,15,16
 366 562 366 562 321 562 c 0,17,18
 248 562 248 562 204.5 505.5 c 128,-1,19
 161 449 161 449 161 325 c 0,20,21
 161 212 161 212 197 158.5 c 128,-1,22
 233 105 233 105 285 105 c 0,23,24
 304 105 304 105 311 108 c 1,25,-1
 311 271 l 1,26,-1
 251 271 l 1,27,-1
 251 378 l 1,28,-1
 432 378 l 1,0,-1
206 -224 m 1,29,-1
 186 -166 l 1,30,31
 209 -160 209 -160 226.5 -146.5 c 128,-1,32
 244 -133 244 -133 244 -115 c 0,33,34
 244 -84 244 -84 212 -54 c 1,35,-1
 307 -41 l 1,36,37
 344 -65 344 -65 344 -114 c 0,38,39
 344 -164 344 -164 305.5 -191.5 c 128,-1,40
 267 -219 267 -219 206 -224 c 1,29,-1
EndSplineSet
Position2: "'cpsp' Capital Spacing lookup 0 subtable" dx=10 dy=0 dh=20 dv=0
EndChar

StartChar: gcommaaccent
Encoding: 291 291 229
Width: 447
GlyphClass: 2
Flags: W
LayerCount: 2
Fore
SplineSet
402 334 m 2,0,-1
 402 55 l 2,1,2
 402 -90 402 -90 343 -146 c 0,3,4
 286 -200 286 -200 184 -200 c 0,5,6
 116 -200 116 -200 62 -177 c 1,7,-1
 86 -76 l 1,8,9
 134 -97 134 -97 180 -97 c 0,10,11
 272 -97 272 -97 272 22 c 2,12,-1
 272 52 l 1,13,-1
 270 52 l 1,14,15
 243 3 243 3 182 3 c 0,16,17
 130 3 130 3 94 39 c 128,-1,18
 58 75 58 75 43.5 126.5 c 128,-1,19
 29 178 29 178 29 240 c 0,20,21
 29 359 29 359 76 428 c 128,-1,22
 123 497 123 497 194 497 c 0,23,24
 255 497 255 497 284 440 c 1,25,-1
 286 440 l 1,26,-1
 293 489 l 1,27,-1
 407 489 l 1,28,29
 402 379 402 379 402 334 c 2,0,-1
272 180 m 2,30,-1
 272 311 l 2,31,32
 272 330 272 330 267 347 c 0,33,34
 256 387 256 387 225 387 c 0,35,36
 192 387 192 387 175.5 347 c 128,-1,37
 159 307 159 307 159 243 c 0,38,39
 159 177 159 177 176 141.5 c 128,-1,40
 193 106 193 106 222 106 c 0,41,42
 253 106 253 106 266 141 c 0,43,44
 272 158 272 158 272 180 c 2,30,-1
297 723 m 1,45,-1
 318 671 l 1,46,47
 252 659 252 659 252 614 c 0,48,49
 252 580 252 580 288 552 c 1,50,-1
 198 540 l 1,51,52
 161 568 161 568 161 612 c 0,53,54
 161 710 161 710 297 723 c 1,45,-1
EndSplineSet
EndChar

StartChar: Hcircumflex
Encoding: 292 292 230
Width: 515
GlyphClass: 2
Flags: W
LayerCount: 2
Fore
SplineSet
58 674 m 1,0,-1
 189 674 l 1,1,-1
 189 404 l 1,2,-1
 326 404 l 1,3,-1
 326 674 l 1,4,-1
 457 674 l 1,5,-1
 457 0 l 1,6,-1
 326 0 l 1,7,-1
 326 282 l 1,8,-1
 189 282 l 1,9,-1
 189 0 l 1,10,-1
 58 0 l 1,11,-1
 58 674 l 1,0,-1
205 820 m 1,12,-1
 308 820 l 1,13,-1
 392 710 l 1,14,-1
 296 710 l 1,15,-1
 257 761 l 1,16,-1
 255 761 l 1,17,-1
 217 710 l 1,18,-1
 124 710 l 1,19,-1
 205 820 l 1,12,-1
EndSplineSet
Position2: "'cpsp' Capital Spacing lookup 0 subtable" dx=10 dy=0 dh=20 dv=0
EndChar

StartChar: hcircumflex
Encoding: 293 293 231
Width: 458
GlyphClass: 2
Flags: W
LayerCount: 2
Fore
SplineSet
46 0 m 1,0,-1
 46 692 l 1,1,-1
 177 692 l 1,2,-1
 177 438 l 1,3,-1
 179 438 l 1,4,5
 194 462 194 462 221 480 c 1,6,7
 250 497 250 497 287 497 c 0,8,9
 412 497 412 497 412 297 c 2,10,-1
 412 0 l 1,11,-1
 281 0 l 1,12,-1
 281 297 l 2,13,14
 281 387 281 387 233 387 c 0,15,16
 196 387 196 387 182 341 c 1,17,18
 177 321 177 321 177 304 c 2,19,-1
 177 0 l 1,20,-1
 46 0 l 1,0,-1
60 834 m 1,21,-1
 163 834 l 1,22,-1
 247 724 l 1,23,-1
 151 724 l 1,24,-1
 112 775 l 1,25,-1
 110 775 l 1,26,-1
 72 724 l 1,27,-1
 -21 724 l 1,28,-1
 60 834 l 1,21,-1
EndSplineSet
EndChar

StartChar: Hbar
Encoding: 294 294 232
Width: 515
GlyphClass: 2
Flags: W
LayerCount: 2
Fore
SplineSet
501 470 m 1,0,-1
 457 470 l 1,1,-1
 457 0 l 1,2,-1
 326 0 l 1,3,-1
 326 265 l 1,4,-1
 189 265 l 1,5,-1
 189 0 l 1,6,-1
 58 0 l 1,7,-1
 58 470 l 1,8,-1
 14 470 l 1,9,-1
 14 559 l 1,10,-1
 58 559 l 1,11,-1
 58 674 l 1,12,-1
 189 674 l 1,13,-1
 189 559 l 1,14,-1
 326 559 l 1,15,-1
 326 674 l 1,16,-1
 457 674 l 1,17,-1
 457 559 l 1,18,-1
 501 559 l 1,19,-1
 501 470 l 1,0,-1
326 387 m 1,20,-1
 326 470 l 1,21,-1
 189 470 l 1,22,-1
 189 387 l 1,23,-1
 326 387 l 1,20,-1
EndSplineSet
Position2: "'cpsp' Capital Spacing lookup 0 subtable" dx=10 dy=0 dh=20 dv=0
EndChar

StartChar: hbar
Encoding: 295 295 233
Width: 458
GlyphClass: 2
Flags: W
LayerCount: 2
Fore
SplineSet
412 0 m 1,0,-1
 281 0 l 1,1,-1
 281 297 l 2,2,3
 281 387 281 387 233 387 c 0,4,5
 196 387 196 387 182 341 c 1,6,7
 177 321 177 321 177 304 c 2,8,-1
 177 0 l 1,9,-1
 46 0 l 1,10,-1
 46 533 l 1,11,-1
 -15 533 l 1,12,-1
 -15 614 l 1,13,-1
 46 614 l 1,14,-1
 46 692 l 1,15,-1
 177 692 l 1,16,-1
 177 614 l 1,17,-1
 309 614 l 1,18,-1
 309 533 l 1,19,-1
 177 533 l 1,20,-1
 177 438 l 1,21,-1
 179 438 l 1,22,23
 194 462 194 462 221 480 c 1,24,25
 250 497 250 497 287 497 c 0,26,27
 412 497 412 497 412 297 c 2,28,-1
 412 0 l 1,0,-1
EndSplineSet
EndChar

StartChar: Itilde
Encoding: 296 296 234
Width: 248
GlyphClass: 2
Flags: W
LayerCount: 2
Fore
SplineSet
58 674 m 1,0,-1
 189 674 l 1,1,-1
 189 0 l 1,2,-1
 58 0 l 1,3,-1
 58 674 l 1,0,-1
64 718 m 1,4,-1
 5 718 l 1,5,6
 4 773 4 773 22 803.5 c 128,-1,7
 40 834 40 834 71 834 c 0,8,9
 94 834 94 834 124 817 c 1,10,11
 152 799 152 799 161 799 c 0,12,13
 172 799 172 799 177.5 807 c 128,-1,14
 183 815 183 815 185 837 c 1,15,-1
 243 837 l 1,16,17
 247 722 247 722 174 722 c 0,18,19
 148 722 148 722 120 738 c 1,20,21
 98 753 98 753 86 753 c 0,22,23
 68 753 68 753 64 718 c 1,4,-1
EndSplineSet
Position2: "'cpsp' Capital Spacing lookup 0 subtable" dx=10 dy=0 dh=20 dv=0
EndChar

StartChar: itilde
Encoding: 297 297 235
Width: 223
GlyphClass: 2
Flags: W
LayerCount: 2
Fore
SplineSet
50 557 m 1,0,-1
 -10 557 l 1,1,2
 -10 609 -10 609 8 642 c 128,-1,3
 26 675 26 675 61 675 c 0,4,5
 82 675 82 675 118 657 c 1,6,7
 144 641 144 641 155 641 c 128,-1,8
 166 641 166 641 171 648.5 c 128,-1,9
 176 656 176 656 177 678 c 1,10,-1
 235 678 l 1,11,12
 235 564 235 564 165 564 c 0,13,14
 144 564 144 564 112 580 c 0,15,16
 106 583 106 583 98 587.5 c 128,-1,17
 90 592 90 592 84.5 594.5 c 128,-1,18
 79 597 79 597 73 597 c 0,19,20
 50 597 50 597 50 557 c 1,0,-1
177 0 m 1,21,-1
 46 0 l 1,22,-1
 46 489 l 1,23,-1
 177 489 l 1,24,-1
 177 0 l 1,21,-1
EndSplineSet
EndChar

StartChar: Imacron
Encoding: 298 298 236
Width: 248
GlyphClass: 2
Flags: W
LayerCount: 2
Fore
SplineSet
58 674 m 1,0,-1
 189 674 l 1,1,-1
 189 0 l 1,2,-1
 58 0 l 1,3,-1
 58 674 l 1,0,-1
7 815 m 1,4,-1
 242 815 l 1,5,-1
 242 736 l 1,6,-1
 7 736 l 1,7,-1
 7 815 l 1,4,-1
EndSplineSet
Position2: "'cpsp' Capital Spacing lookup 0 subtable" dx=10 dy=0 dh=20 dv=0
EndChar

StartChar: imacron
Encoding: 299 299 237
Width: 223
GlyphClass: 2
Flags: W
LayerCount: 2
Fore
SplineSet
6 656 m 1,0,-1
 219 656 l 1,1,-1
 219 582 l 1,2,-1
 6 582 l 1,3,-1
 6 656 l 1,0,-1
177 0 m 1,4,-1
 46 0 l 1,5,-1
 46 489 l 1,6,-1
 177 489 l 1,7,-1
 177 0 l 1,4,-1
EndSplineSet
EndChar

StartChar: Ibreve
Encoding: 300 300 238
Width: 248
GlyphClass: 2
Flags: W
LayerCount: 2
Fore
SplineSet
58 674 m 1,0,-1
 189 674 l 1,1,-1
 189 0 l 1,2,-1
 58 0 l 1,3,-1
 58 674 l 1,0,-1
2 830 m 1,4,-1
 73 830 l 1,5,6
 74 810 74 810 87 798 c 128,-1,7
 100 786 100 786 123 786 c 0,8,9
 171 786 171 786 174 830 c 1,10,-1
 244 830 l 1,11,12
 244 776 244 776 213.5 745 c 128,-1,13
 183 714 183 714 124 714 c 0,14,15
 64 714 64 714 33 745 c 128,-1,16
 2 776 2 776 2 830 c 1,4,-1
EndSplineSet
Position2: "'cpsp' Capital Spacing lookup 0 subtable" dx=10 dy=0 dh=20 dv=0
EndChar

StartChar: ibreve
Encoding: 301 301 239
Width: 223
GlyphClass: 2
Flags: W
LayerCount: 2
Fore
SplineSet
-7 679 m 1,0,-1
 58 679 l 1,1,2
 61 654 61 654 75 640 c 128,-1,3
 89 626 89 626 111 626 c 0,4,5
 137 626 137 626 151.5 641 c 128,-1,6
 166 656 166 656 167 679 c 1,7,-1
 231 679 l 1,8,9
 233 625 233 625 198.5 588.5 c 128,-1,10
 164 552 164 552 110 552 c 0,11,12
 57 552 57 552 24 588.5 c 128,-1,13
 -9 625 -9 625 -7 679 c 1,0,-1
177 0 m 1,14,-1
 46 0 l 1,15,-1
 46 489 l 1,16,-1
 177 489 l 1,17,-1
 177 0 l 1,14,-1
EndSplineSet
EndChar

StartChar: Iogonek
Encoding: 302 302 240
Width: 248
GlyphClass: 2
Flags: W
LayerCount: 2
Fore
SplineSet
189 674 m 1,0,-1
 189 0 l 1,1,-1
 139 0 l 1,2,3
 113 -42 113 -42 113 -78 c 0,4,5
 113 -99 113 -99 124.5 -110.5 c 128,-1,6
 136 -122 136 -122 154 -122 c 0,7,8
 178 -122 178 -122 192 -116 c 1,9,-1
 208 -182 l 1,10,11
 173 -207 173 -207 121 -207 c 0,12,13
 73 -207 73 -207 48 -181.5 c 128,-1,14
 23 -156 23 -156 23 -113 c 0,15,16
 23 -66 23 -66 58 0 c 1,17,-1
 58 674 l 1,18,-1
 189 674 l 1,0,-1
EndSplineSet
Position2: "'cpsp' Capital Spacing lookup 0 subtable" dx=10 dy=0 dh=20 dv=0
EndChar

StartChar: iogonek
Encoding: 303 303 241
Width: 223
GlyphClass: 2
Flags: W
LayerCount: 2
Fore
SplineSet
109 548 m 2,0,-1
 108 548 l 2,1,2
 80 548 80 548 61 568 c 128,-1,3
 42 588 42 588 43 619 c 1,4,5
 42 651 42 651 62 670.5 c 128,-1,6
 82 690 82 690 110 690 c 0,7,8
 139 690 139 690 158 670.5 c 128,-1,9
 177 651 177 651 177 619 c 1,10,11
 178 588 178 588 158.5 568 c 128,-1,12
 139 548 139 548 109 548 c 2,0,-1
177 489 m 1,13,-1
 177 0 l 1,14,-1
 126 0 l 1,15,16
 101 -43 101 -43 101 -80 c 0,17,18
 101 -98 101 -98 112.5 -110 c 128,-1,19
 124 -122 124 -122 141 -122 c 0,20,21
 166 -122 166 -122 180 -116 c 1,22,-1
 196 -182 l 1,23,24
 160 -207 160 -207 108 -207 c 0,25,26
 60 -207 60 -207 35 -181 c 128,-1,27
 10 -155 10 -155 10 -111 c 0,28,29
 10 -68 10 -68 46 0 c 1,30,-1
 46 489 l 1,31,-1
 177 489 l 1,13,-1
EndSplineSet
EndChar

StartChar: Idotaccent
Encoding: 304 304 242
Width: 248
GlyphClass: 2
Flags: W
LayerCount: 2
Fore
SplineSet
58 674 m 1,0,-1
 189 674 l 1,1,-1
 189 0 l 1,2,-1
 58 0 l 1,3,-1
 58 674 l 1,0,-1
124 715 m 2,4,-1
 123 715 l 2,5,6
 98 715 98 715 80 734 c 128,-1,7
 62 753 62 753 62 779 c 128,-1,8
 62 805 62 805 80.5 824 c 128,-1,9
 99 843 99 843 124 843 c 0,10,11
 150 843 150 843 168.5 824 c 128,-1,12
 187 805 187 805 187 779 c 128,-1,13
 187 753 187 753 168.5 734 c 128,-1,14
 150 715 150 715 124 715 c 2,4,-1
EndSplineSet
Position2: "'cpsp' Capital Spacing lookup 0 subtable" dx=10 dy=0 dh=20 dv=0
EndChar

StartChar: dotlessi
Encoding: 305 305 243
Width: 223
GlyphClass: 2
Flags: W
LayerCount: 2
Fore
SplineSet
177 0 m 1,0,-1
 46 0 l 1,1,-1
 46 489 l 1,2,-1
 177 489 l 1,3,-1
 177 0 l 1,0,-1
EndSplineSet
EndChar

StartChar: IJ
Encoding: 306 306 244
Width: 544
GlyphClass: 2
Flags: W
LayerCount: 2
Fore
SplineSet
58 674 m 1,0,-1
 189 674 l 1,1,-1
 189 0 l 1,2,-1
 58 0 l 1,3,-1
 58 674 l 1,0,-1
363 209 m 2,4,-1
 363 674 l 1,5,-1
 495 674 l 1,6,-1
 495 215 l 2,7,8
 495 145 495 145 479.5 98.5 c 128,-1,9
 464 52 464 52 435 30 c 128,-1,10
 406 8 406 8 376 0 c 128,-1,11
 346 -8 346 -8 305 -8 c 128,-1,12
 264 -8 264 -8 239 2 c 1,13,-1
 250 112 l 1,14,15
 272 107 272 107 293 107 c 0,16,17
 326 107 326 107 344.5 128 c 128,-1,18
 363 149 363 149 363 209 c 2,4,-1
EndSplineSet
Position2: "'cpsp' Capital Spacing lookup 0 subtable" dx=10 dy=0 dh=20 dv=0
EndChar

StartChar: ij
Encoding: 307 307 245
Width: 447
GlyphClass: 2
Flags: W
LayerCount: 2
Fore
SplineSet
177 0 m 1,0,-1
 46 0 l 1,1,-1
 46 489 l 1,2,-1
 177 489 l 1,3,-1
 177 0 l 1,0,-1
110 690 m 0,4,5
 139 690 139 690 158 670.5 c 128,-1,6
 177 651 177 651 177 619 c 1,7,8
 178 588 178 588 158 568 c 128,-1,9
 138 548 138 548 108 548 c 0,10,11
 80 548 80 548 61 568 c 128,-1,12
 42 588 42 588 43 619 c 1,13,14
 42 651 42 651 62 670.5 c 128,-1,15
 82 690 82 690 110 690 c 0,4,5
194 -200 m 1,16,-1
 184 -96 l 1,17,18
 230 -90 230 -90 248 -70 c 1,19,20
 262 -56 262 -56 266 -28 c 128,-1,21
 270 0 270 0 270 60 c 2,22,-1
 270 489 l 1,23,-1
 402 489 l 1,24,-1
 402 35 l 2,25,26
 402 -44 402 -44 386 -88 c 128,-1,27
 370 -132 370 -132 337 -158 c 0,28,29
 285 -200 285 -200 194 -200 c 1,16,-1
336 690 m 128,-1,31
 365 690 365 690 384 670.5 c 128,-1,32
 403 651 403 651 403 619 c 0,33,34
 403 588 403 588 383.5 568 c 128,-1,35
 364 548 364 548 334 548 c 0,36,37
 306 548 306 548 287 568 c 128,-1,38
 268 588 268 588 269 619 c 1,39,40
 268 651 268 651 287.5 670.5 c 128,-1,30
 307 690 307 690 336 690 c 128,-1,31
EndSplineSet
EndChar

StartChar: Jcircumflex
Encoding: 308 308 246
Width: 296
GlyphClass: 2
Flags: W
LayerCount: 2
Fore
SplineSet
115 209 m 2,0,-1
 115 674 l 1,1,-1
 247 674 l 1,2,-1
 247 215 l 2,3,4
 247 145 247 145 231.5 98.5 c 128,-1,5
 216 52 216 52 187 30 c 128,-1,6
 158 8 158 8 128 0 c 128,-1,7
 98 -8 98 -8 57 -8 c 128,-1,8
 16 -8 16 -8 -9 2 c 1,9,-1
 2 112 l 1,10,11
 24 107 24 107 45 107 c 0,12,13
 78 107 78 107 96.5 128 c 128,-1,14
 115 149 115 149 115 209 c 2,0,-1
127 820 m 1,15,-1
 230 820 l 1,16,-1
 314 710 l 1,17,-1
 218 710 l 1,18,-1
 179 761 l 1,19,-1
 177 761 l 1,20,-1
 139 710 l 1,21,-1
 46 710 l 1,22,-1
 127 820 l 1,15,-1
EndSplineSet
Position2: "'cpsp' Capital Spacing lookup 0 subtable" dx=10 dy=0 dh=20 dv=0
EndChar

StartChar: jcircumflex
Encoding: 309 309 247
Width: 224
GlyphClass: 2
Flags: W
LayerCount: 2
Fore
SplineSet
-29 -200 m 1,0,-1
 -39 -96 l 1,1,2
 7 -90 7 -90 25 -70 c 1,3,4
 39 -56 39 -56 43 -28 c 128,-1,5
 47 0 47 0 47 60 c 2,6,-1
 47 489 l 1,7,-1
 179 489 l 1,8,-1
 179 35 l 2,9,10
 179 -44 179 -44 163 -88 c 128,-1,11
 147 -132 147 -132 114 -158 c 0,12,13
 62 -200 62 -200 -29 -200 c 1,0,-1
65 687 m 1,14,-1
 156 687 l 1,15,-1
 242 547 l 1,16,-1
 152 547 l 1,17,-1
 112 627 l 1,18,-1
 110 627 l 1,19,-1
 70 547 l 1,20,-1
 -21 547 l 1,21,-1
 65 687 l 1,14,-1
EndSplineSet
EndChar

StartChar: Kcommaaccent
Encoding: 310 310 248
Width: 459
GlyphClass: 2
Flags: W
LayerCount: 2
Fore
SplineSet
58 0 m 1,0,-1
 58 674 l 1,1,-1
 189 674 l 1,2,-1
 189 371 l 1,3,-1
 191 371 l 1,4,-1
 224 458 l 1,5,-1
 314 674 l 1,6,-1
 458 674 l 1,7,-1
 307 381 l 1,8,-1
 460 0 l 1,9,-1
 317 0 l 1,10,-1
 219 279 l 1,11,-1
 189 224 l 1,12,-1
 189 0 l 1,13,-1
 58 0 l 1,0,-1
173 -222 m 1,14,-1
 153 -164 l 1,15,16
 176 -158 176 -158 193.5 -144.5 c 128,-1,17
 211 -131 211 -131 211 -113 c 0,18,19
 211 -82 211 -82 179 -52 c 1,20,-1
 274 -39 l 1,21,22
 311 -63 311 -63 311 -112 c 0,23,24
 311 -162 311 -162 272.5 -189.5 c 128,-1,25
 234 -217 234 -217 173 -222 c 1,14,-1
EndSplineSet
Position2: "'cpsp' Capital Spacing lookup 0 subtable" dx=10 dy=0 dh=20 dv=0
EndChar

StartChar: kcommaaccent
Encoding: 311 311 249
Width: 413
GlyphClass: 2
Flags: W
LayerCount: 2
Fore
SplineSet
176 692 m 1,0,-1
 176 275 l 1,1,-1
 178 275 l 1,2,3
 192 319 192 319 203 343 c 2,4,-1
 266 489 l 1,5,-1
 407 489 l 1,6,-1
 289 284 l 1,7,-1
 414 0 l 1,8,-1
 268 0 l 1,9,-1
 198 201 l 1,10,-1
 176 159 l 1,11,-1
 176 0 l 1,12,-1
 45 0 l 1,13,-1
 45 692 l 1,14,-1
 176 692 l 1,0,-1
142 -224 m 1,15,-1
 122 -166 l 1,16,17
 145 -160 145 -160 162.5 -146.5 c 128,-1,18
 180 -133 180 -133 180 -115 c 0,19,20
 180 -84 180 -84 148 -54 c 1,21,-1
 243 -41 l 1,22,23
 280 -65 280 -65 280 -114 c 0,24,25
 280 -164 280 -164 241.5 -191.5 c 128,-1,26
 203 -219 203 -219 142 -224 c 1,15,-1
EndSplineSet
EndChar

StartChar: kgreenlandic
Encoding: 312 312 250
Width: 413
GlyphClass: 2
Flags: W
LayerCount: 2
Fore
SplineSet
176 489 m 1,0,-1
 176 275 l 1,1,-1
 178 275 l 1,2,3
 192 319 192 319 203 343 c 2,4,-1
 266 489 l 1,5,-1
 407 489 l 1,6,-1
 289 284 l 1,7,-1
 414 0 l 1,8,-1
 268 0 l 1,9,-1
 198 201 l 1,10,-1
 176 159 l 1,11,-1
 176 0 l 1,12,-1
 45 0 l 1,13,-1
 45 489 l 1,14,-1
 176 489 l 1,0,-1
EndSplineSet
EndChar

StartChar: Lacute
Encoding: 313 313 251
Width: 380
GlyphClass: 2
Flags: W
LayerCount: 2
Fore
SplineSet
58 0 m 1,0,-1
 58 674 l 1,1,-1
 189 674 l 1,2,-1
 189 111 l 1,3,-1
 362 111 l 1,4,-1
 362 0 l 1,5,-1
 58 0 l 1,0,-1
157 823 m 1,6,-1
 290 823 l 1,7,-1
 168 710 l 1,8,-1
 75 710 l 1,9,-1
 157 823 l 1,6,-1
EndSplineSet
Position2: "'cpsp' Capital Spacing lookup 0 subtable" dx=10 dy=0 dh=20 dv=0
EndChar

StartChar: lacute
Encoding: 314 314 252
Width: 225
GlyphClass: 2
Flags: W
LayerCount: 2
Fore
SplineSet
46 0 m 1,0,-1
 46 692 l 1,1,-1
 177 692 l 1,2,-1
 177 0 l 1,3,-1
 46 0 l 1,0,-1
133 837 m 1,4,-1
 266 837 l 1,5,-1
 144 724 l 1,6,-1
 51 724 l 1,7,-1
 133 837 l 1,4,-1
EndSplineSet
EndChar

StartChar: Lcommaaccent
Encoding: 315 315 253
Width: 380
GlyphClass: 2
Flags: W
LayerCount: 2
Fore
SplineSet
58 0 m 1,0,-1
 58 674 l 1,1,-1
 189 674 l 1,2,-1
 189 111 l 1,3,-1
 362 111 l 1,4,-1
 362 0 l 1,5,-1
 58 0 l 1,0,-1
127 -224 m 1,6,-1
 107 -166 l 1,7,8
 130 -160 130 -160 147.5 -146.5 c 128,-1,9
 165 -133 165 -133 165 -115 c 0,10,11
 165 -84 165 -84 133 -54 c 1,12,-1
 228 -41 l 1,13,14
 265 -65 265 -65 265 -114 c 0,15,16
 265 -164 265 -164 226.5 -191.5 c 128,-1,17
 188 -219 188 -219 127 -224 c 1,6,-1
EndSplineSet
Position2: "'cpsp' Capital Spacing lookup 0 subtable" dx=10 dy=0 dh=20 dv=0
EndChar

